%TF.GenerationSoftware,KiCad,Pcbnew,10.0.4*%
%TF.CreationDate,2026-08-22T20:26:33+02:00*%
%TF.ProjectId,samot2040_devboard,73616d6f-7432-4303-9430-5f646576626f,rev?*%
%TF.SameCoordinates,Original*%
%TF.FileFunction,Copper,L2,Bot*%
%TF.FilePolarity,Positive*%
%FSLAX46Y46*%
G04 Gerber Fmt 4.6, Leading zero omitted, Abs format (unit mm)*
G04 Created by KiCad (PCBNEW 10.0.4) date 2026-08-22 20:26:33*
%MOMM*%
%LPD*%
G01*
G04 APERTURE LIST*
%TA.AperFunction,ComponentPad*%
%ADD10C,0.700000*%
%TD*%
%TA.AperFunction,ComponentPad*%
%ADD11O,0.900000X2.400000*%
%TD*%
%TA.AperFunction,ComponentPad*%
%ADD12O,0.900000X1.700000*%
%TD*%
%TA.AperFunction,ComponentPad*%
%ADD13R,1.700000X1.700000*%
%TD*%
%TA.AperFunction,ComponentPad*%
%ADD14C,1.700000*%
%TD*%
%TA.AperFunction,ViaPad*%
%ADD15C,0.600000*%
%TD*%
%TA.AperFunction,Conductor*%
%ADD16C,0.200000*%
%TD*%
%TA.AperFunction,Conductor*%
%ADD17C,0.300000*%
%TD*%
G04 APERTURE END LIST*
D10*
%TO.P,J1,A1,GND_A1*%
%TO.N,GND*%
X163625000Y-52860000D03*
%TO.P,J1,A4,VBUS_A4*%
%TO.N,VBUS*%
X162775000Y-52860000D03*
%TO.P,J1,A5,CC1_A5*%
%TO.N,Net-(J1-CC1)*%
X161925000Y-52860000D03*
%TO.P,J1,A6,D+_A6*%
%TO.N,USB_D+*%
X161075000Y-52860000D03*
%TO.P,J1,A7,D-_A7*%
%TO.N,USB_D-*%
X160225000Y-52860000D03*
%TO.P,J1,A8,SBU1_A8*%
%TO.N,unconnected-(J1-SBU1-PadA8)*%
X159375000Y-52860000D03*
%TO.P,J1,A9,VBUS_A9*%
%TO.N,VBUS*%
X158525000Y-52860000D03*
%TO.P,J1,A12,GND_A12*%
%TO.N,GND*%
X157675000Y-52860000D03*
%TO.P,J1,B1,GND_B1*%
X157675000Y-51510000D03*
%TO.P,J1,B4,VBUS_B4*%
%TO.N,VBUS*%
X158525000Y-51510000D03*
%TO.P,J1,B5,CC2_B5*%
%TO.N,Net-(J1-CC2)*%
X159375000Y-51510000D03*
%TO.P,J1,B6,D+_B6*%
%TO.N,USB_D+*%
X160225000Y-51510000D03*
%TO.P,J1,B7,D-_B7*%
%TO.N,USB_D-*%
X161075000Y-51510000D03*
%TO.P,J1,B8,SBU2_B8*%
%TO.N,unconnected-(J1-SBU2-PadB8)*%
X161925000Y-51510000D03*
%TO.P,J1,B9,VBUS_B9*%
%TO.N,VBUS*%
X162775000Y-51510000D03*
%TO.P,J1,B12,GND_B12*%
%TO.N,GND*%
X163625000Y-51510000D03*
D11*
%TO.P,J1,SH,SHIELD_SH*%
X164975000Y-51880000D03*
D12*
X164975000Y-48500000D03*
D11*
X156325000Y-51880000D03*
D12*
X156325000Y-48500000D03*
%TD*%
D13*
%TO.P,J3,1,Pin_1_1*%
%TO.N,VBUS*%
X169550000Y-48125000D03*
D14*
%TO.P,J3,2,Pin_2_2*%
%TO.N,unconnected-(J3-Pin_2-Pad2)*%
X169550000Y-50665000D03*
%TO.P,J3,3,Pin_3_3*%
%TO.N,GND*%
X169550000Y-53205000D03*
%TO.P,J3,4,Pin_4_4*%
%TO.N,unconnected-(J3-Pin_4-Pad4)*%
X169550000Y-55745000D03*
%TO.P,J3,5,Pin_5_5*%
%TO.N,+3V3*%
X169550000Y-58285000D03*
%TO.P,J3,6,Pin_6_6*%
%TO.N,unconnected-(J3-Pin_6-Pad6)*%
X169550000Y-60825000D03*
%TO.P,J3,7,Pin_7_7*%
%TO.N,GPIO28{slash}ADC2*%
X169550000Y-63365000D03*
%TO.P,J3,8,Pin_8_8*%
%TO.N,GND*%
X169550000Y-65905000D03*
%TO.P,J3,9,Pin_9_9*%
%TO.N,GPIO27{slash}ADC1*%
X169550000Y-68445000D03*
%TO.P,J3,10,Pin_10_10*%
%TO.N,GPIO26{slash}ADC0*%
X169550000Y-70985000D03*
%TO.P,J3,11,Pin_11_11*%
%TO.N,unconnected-(J3-Pin_11-Pad11)*%
X169550000Y-73525000D03*
%TO.P,J3,12,Pin_12_12*%
%TO.N,GPIO22*%
X169550000Y-76065000D03*
%TO.P,J3,13,Pin_13_13*%
%TO.N,GND*%
X169550000Y-78605000D03*
%TO.P,J3,14,Pin_14_14*%
%TO.N,GPIO21*%
X169550000Y-81145000D03*
%TO.P,J3,15,Pin_15_15*%
%TO.N,GPIO20*%
X169550000Y-83685000D03*
%TO.P,J3,16,Pin_16_16*%
%TO.N,GPIO19*%
X169550000Y-86225000D03*
%TO.P,J3,17,Pin_17_17*%
%TO.N,GPIO18*%
X169550000Y-88765000D03*
%TO.P,J3,18,Pin_18_18*%
%TO.N,GND*%
X169550000Y-91305000D03*
%TO.P,J3,19,Pin_19_19*%
%TO.N,GPIO17*%
X169550000Y-93845000D03*
%TO.P,J3,20,Pin_20_20*%
%TO.N,GPIO16*%
X169550000Y-96385000D03*
%TD*%
D13*
%TO.P,J2,1,Pin_1_1*%
%TO.N,GPIO0*%
X151750000Y-48125000D03*
D14*
%TO.P,J2,2,Pin_2_2*%
%TO.N,GPIO1*%
X151750000Y-50665000D03*
%TO.P,J2,3,Pin_3_3*%
%TO.N,GND*%
X151750000Y-53205000D03*
%TO.P,J2,4,Pin_4_4*%
%TO.N,GPIO2*%
X151750000Y-55745000D03*
%TO.P,J2,5,Pin_5_5*%
%TO.N,GPIO3*%
X151750000Y-58285000D03*
%TO.P,J2,6,Pin_6_6*%
%TO.N,GPIO4*%
X151750000Y-60825000D03*
%TO.P,J2,7,Pin_7_7*%
%TO.N,GPIO5*%
X151750000Y-63365000D03*
%TO.P,J2,8,Pin_8_8*%
%TO.N,GND*%
X151750000Y-65905000D03*
%TO.P,J2,9,Pin_9_9*%
%TO.N,GPIO6*%
X151750000Y-68445000D03*
%TO.P,J2,10,Pin_10_10*%
%TO.N,GPIO7*%
X151750000Y-70985000D03*
%TO.P,J2,11,Pin_11_11*%
%TO.N,GPIO8*%
X151750000Y-73525000D03*
%TO.P,J2,12,Pin_12_12*%
%TO.N,GPIO9*%
X151750000Y-76065000D03*
%TO.P,J2,13,Pin_13_13*%
%TO.N,GND*%
X151750000Y-78605000D03*
%TO.P,J2,14,Pin_14_14*%
%TO.N,GPIO10*%
X151750000Y-81145000D03*
%TO.P,J2,15,Pin_15_15*%
%TO.N,GPIO11*%
X151750000Y-83685000D03*
%TO.P,J2,16,Pin_16_16*%
%TO.N,GPIO12*%
X151750000Y-86225000D03*
%TO.P,J2,17,Pin_17_17*%
%TO.N,GPIO13*%
X151750000Y-88765000D03*
%TO.P,J2,18,Pin_18_18*%
%TO.N,GND*%
X151750000Y-91305000D03*
%TO.P,J2,19,Pin_19_19*%
%TO.N,GPIO14*%
X151750000Y-93845000D03*
%TO.P,J2,20,Pin_20_20*%
%TO.N,GPIO15*%
X151750000Y-96385000D03*
%TD*%
D15*
%TO.N,GND*%
X162775000Y-54000000D03*
X159450000Y-68950000D03*
X154350000Y-77300000D03*
X163891628Y-82450000D03*
X167500000Y-93200000D03*
X157100000Y-66700000D03*
X160837500Y-78050000D03*
X159800000Y-68250000D03*
X167550000Y-78090000D03*
X157400000Y-73400000D03*
X158431010Y-78541341D03*
X164105000Y-85105000D03*
X165625000Y-69900000D03*
%TO.N,Net-(R6-Pad1)*%
X154700000Y-86400000D03*
X155050000Y-85100000D03*
%TO.N,QSPI_SS*%
X159100000Y-74500000D03*
X155050000Y-80675000D03*
%TO.N,USB_D+*%
X163757880Y-69172880D03*
%TO.N,USB_D-*%
X163550000Y-68350000D03*
%TO.N,+1V1*%
X160000000Y-74500000D03*
X161850000Y-79500000D03*
X162570000Y-74390000D03*
%TO.N,GPIO7*%
X158270000Y-75400000D03*
%TO.N,GPIO10*%
X158377518Y-79507293D03*
%TO.N,GPIO12*%
X157200000Y-82000000D03*
%TO.N,GPIO13*%
X158300000Y-81450000D03*
%TO.N,GPIO14*%
X159040487Y-79059551D03*
%TO.N,GPIO15*%
X159851472Y-79099999D03*
%TO.N,GPIO16*%
X163050000Y-79150000D03*
%TO.N,GPIO18*%
X166500000Y-82800000D03*
%TO.N,GPIO19*%
X166050000Y-80450000D03*
%TO.N,GPIO20*%
X166200000Y-79600000D03*
%TO.N,GPIO21*%
X166788939Y-78680000D03*
%TD*%
%TO.N,GND*%
D16*
X168065000Y-78605000D02*
X169550000Y-78605000D01*
X158000000Y-73901471D02*
X158000000Y-72800000D01*
X158450000Y-74848529D02*
X158450000Y-74450736D01*
X156305000Y-65905000D02*
X157100000Y-66700000D01*
X163625000Y-53150000D02*
X163625000Y-52860000D01*
X154350000Y-77300000D02*
X153055000Y-77300000D01*
X153055000Y-77300000D02*
X151750000Y-78605000D01*
X162775000Y-54000000D02*
X163625000Y-53150000D01*
X163891628Y-84891628D02*
X163891628Y-82450000D01*
X158820000Y-75627818D02*
X158820000Y-75172182D01*
X158820000Y-75172182D02*
X158497818Y-74850000D01*
X167550000Y-78090000D02*
X168065000Y-78605000D01*
X158650000Y-68250000D02*
X159800000Y-68250000D01*
X158477000Y-76723000D02*
X158737500Y-76462500D01*
X160837500Y-79887500D02*
X160837500Y-78050000D01*
X157678237Y-77300000D02*
X158255238Y-76723000D01*
X161450000Y-69900000D02*
X165625000Y-69900000D01*
X158737500Y-75710318D02*
X158820000Y-75627818D01*
X157400000Y-73400000D02*
X157901471Y-73901471D01*
X158000000Y-70400000D02*
X159450000Y-68950000D01*
X163950000Y-81790000D02*
X162740000Y-81790000D01*
X151750000Y-65905000D02*
X156305000Y-65905000D01*
X158451471Y-74850000D02*
X158450000Y-74848529D01*
X159800000Y-68250000D02*
X161450000Y-69900000D01*
X158737500Y-76462500D02*
X158737500Y-75710318D01*
X157901471Y-73901471D02*
X158000000Y-73901471D01*
X158450000Y-74450736D02*
X158000000Y-74000736D01*
X158000000Y-72800000D02*
X158000000Y-70400000D01*
X158497818Y-74850000D02*
X158451471Y-74850000D01*
X162740000Y-81790000D02*
X160837500Y-79887500D01*
X164105000Y-85105000D02*
X163891628Y-84891628D01*
X158000000Y-74000736D02*
X158000000Y-73901471D01*
X158255238Y-76723000D02*
X158477000Y-76723000D01*
X163891628Y-81848372D02*
X163950000Y-81790000D01*
X157400000Y-73400000D02*
X158000000Y-72800000D01*
X157100000Y-66700000D02*
X158650000Y-68250000D01*
X163891628Y-82450000D02*
X163891628Y-81848372D01*
X154350000Y-77300000D02*
X157678237Y-77300000D01*
%TO.N,VBUS*%
D17*
X162459974Y-50700000D02*
X162775000Y-51015026D01*
X158525000Y-51075000D02*
X158900000Y-50700000D01*
X162775000Y-51015026D02*
X162775000Y-51510000D01*
X158900000Y-50700000D02*
X162459974Y-50700000D01*
X158525000Y-51510000D02*
X158525000Y-51075000D01*
%TO.N,Net-(R6-Pad1)*%
D16*
X155050000Y-86050000D02*
X155050000Y-85100000D01*
X154700000Y-86400000D02*
X155050000Y-86050000D01*
%TO.N,QSPI_SS*%
X159100000Y-74500000D02*
X159100000Y-74650000D01*
X157740685Y-77700000D02*
X157600000Y-77700000D01*
X159400000Y-74950000D02*
X159400000Y-76775000D01*
X155150000Y-80575000D02*
X155050000Y-80675000D01*
X155373529Y-80575000D02*
X155150000Y-80575000D01*
X159100000Y-74650000D02*
X159400000Y-74950000D01*
X156923529Y-79025000D02*
X155373529Y-80575000D01*
X159400000Y-76775000D02*
X159125000Y-77050000D01*
X156923529Y-78376471D02*
X156923529Y-79025000D01*
X157600000Y-77700000D02*
X156923529Y-78376471D01*
X158390686Y-77050000D02*
X157740685Y-77700000D01*
X159125000Y-77050000D02*
X158390686Y-77050000D01*
%TO.N,USB_D+*%
D17*
X163757880Y-69172880D02*
X164290380Y-68640380D01*
X164290380Y-68640380D02*
X164290380Y-68140380D01*
X161750000Y-65600000D02*
X161744239Y-65600000D01*
X161075000Y-64930761D02*
X161075000Y-52860000D01*
X164290380Y-68140380D02*
X161750000Y-65600000D01*
X161744239Y-65600000D02*
X161075000Y-64930761D01*
%TO.N,USB_D-*%
X162540380Y-68140380D02*
X160225000Y-65825000D01*
X160225000Y-65825000D02*
X160225000Y-52860000D01*
X160225000Y-52860000D02*
X160225000Y-52720050D01*
X162540380Y-68140380D02*
X163340380Y-68140380D01*
X161075000Y-51870050D02*
X161075000Y-51510000D01*
X160225000Y-52720050D02*
X161075000Y-51870050D01*
X163340380Y-68140380D02*
X163550000Y-68350000D01*
%TO.N,+1V1*%
D16*
X162950000Y-75200000D02*
X162950000Y-78400000D01*
X162570000Y-74390000D02*
X162650000Y-74470000D01*
X160350000Y-74850000D02*
X160000000Y-74500000D01*
X162950000Y-78400000D02*
X161850000Y-79500000D01*
X162600000Y-74850000D02*
X160350000Y-74850000D01*
X162650000Y-74470000D02*
X162650000Y-74900000D01*
X162650000Y-74900000D02*
X162950000Y-75200000D01*
X162950000Y-75200000D02*
X162600000Y-74850000D01*
%TO.N,GPIO7*%
X156365000Y-75600000D02*
X151750000Y-70985000D01*
X158070000Y-75600000D02*
X158270000Y-75400000D01*
X156365000Y-75600000D02*
X158070000Y-75600000D01*
%TO.N,GPIO10*%
X156411397Y-80461397D02*
X155372794Y-81500000D01*
X158250000Y-79600000D02*
X157388603Y-80461397D01*
X155372794Y-81500000D02*
X152105000Y-81500000D01*
X152105000Y-81500000D02*
X151750000Y-81145000D01*
X158325780Y-79507293D02*
X158250000Y-79583073D01*
X158377518Y-79507293D02*
X158325780Y-79507293D01*
X157388603Y-80461397D02*
X156411397Y-80461397D01*
X158250000Y-79583073D02*
X158250000Y-79600000D01*
%TO.N,GPIO12*%
X152975000Y-86225000D02*
X151750000Y-86225000D01*
X157200000Y-82000000D02*
X152975000Y-86225000D01*
%TO.N,GPIO13*%
X153435000Y-88765000D02*
X151750000Y-88765000D01*
X158650000Y-83550000D02*
X153435000Y-88765000D01*
X158300000Y-81450000D02*
X158650000Y-81800000D01*
X158650000Y-81800000D02*
X158650000Y-83550000D01*
%TO.N,GPIO14*%
X159040487Y-79059551D02*
X159040487Y-79140487D01*
X159040487Y-79140487D02*
X159153170Y-79253170D01*
X159150000Y-86445000D02*
X151750000Y-93845000D01*
X159153170Y-79609330D02*
X159150000Y-79612500D01*
X159150000Y-79612500D02*
X159150000Y-86445000D01*
X159153170Y-79253170D02*
X159153170Y-79609330D01*
%TO.N,GPIO15*%
X159550000Y-80950000D02*
X159550000Y-81150000D01*
X159747538Y-81347538D02*
X159747538Y-89589543D01*
X159851472Y-79099999D02*
X159553170Y-79398300D01*
X152952081Y-96385000D02*
X151750000Y-96385000D01*
X159553170Y-79398300D02*
X159553170Y-80946830D01*
X159550000Y-81150000D02*
X159747538Y-81347538D01*
X159747538Y-89589543D02*
X152952081Y-96385000D01*
X159553170Y-80946830D02*
X159550000Y-80950000D01*
%TO.N,GPIO16*%
X169550000Y-96385000D02*
X165300000Y-92135000D01*
X165300000Y-81400000D02*
X163050000Y-79150000D01*
X165300000Y-92135000D02*
X165300000Y-81400000D01*
%TO.N,GPIO18*%
X166500000Y-82800000D02*
X166500000Y-85715000D01*
X166500000Y-85715000D02*
X169550000Y-88765000D01*
%TO.N,GPIO19*%
X166659953Y-81360639D02*
X167930000Y-82630686D01*
X166050000Y-80450000D02*
X165976446Y-80523554D01*
X166373554Y-80523554D02*
X166659953Y-80809953D01*
X167930000Y-82630686D02*
X167930000Y-84605000D01*
X169550000Y-85730000D02*
X169550000Y-86225000D01*
X166050000Y-80450000D02*
X166123554Y-80523554D01*
X166659953Y-80809953D02*
X166659953Y-81360639D01*
X166123554Y-80523554D02*
X166373554Y-80523554D01*
X167930000Y-84605000D02*
X169550000Y-86225000D01*
%TO.N,GPIO20*%
X167059953Y-81194953D02*
X167059953Y-80025639D01*
X169550000Y-83685000D02*
X167059953Y-81194953D01*
X166634314Y-79600000D02*
X166200000Y-79600000D01*
X167059953Y-80025639D02*
X166634314Y-79600000D01*
%TO.N,GPIO21*%
X166788939Y-78680000D02*
X167000000Y-78891061D01*
X168745000Y-81145000D02*
X169550000Y-81145000D01*
X167000000Y-78891061D02*
X167000000Y-79400000D01*
X167000000Y-79400000D02*
X168745000Y-81145000D01*
%TD*%
%TA.AperFunction,Conductor*%
%TO.N,GND*%
G36*
X160005584Y-75107206D02*
G01*
X160029275Y-75109561D01*
X160045204Y-75118840D01*
X160049784Y-75120185D01*
X160055707Y-75124958D01*
X160059772Y-75127326D01*
X160065371Y-75131764D01*
X160104087Y-75170480D01*
X160133475Y-75187447D01*
X160195412Y-75223207D01*
X160297273Y-75250501D01*
X160297276Y-75250501D01*
X160410323Y-75250501D01*
X160410339Y-75250500D01*
X162382745Y-75250500D01*
X162412185Y-75259144D01*
X162442172Y-75265668D01*
X162447187Y-75269422D01*
X162449784Y-75270185D01*
X162470426Y-75286819D01*
X162513181Y-75329574D01*
X162546666Y-75390897D01*
X162549500Y-75417255D01*
X162549500Y-78182745D01*
X162529815Y-78249784D01*
X162513181Y-78270426D01*
X161920426Y-78863181D01*
X161859103Y-78896666D01*
X161832745Y-78899500D01*
X161770943Y-78899500D01*
X161618216Y-78940423D01*
X161618209Y-78940426D01*
X161481290Y-79019475D01*
X161481282Y-79019481D01*
X161369481Y-79131282D01*
X161369475Y-79131290D01*
X161290426Y-79268209D01*
X161290423Y-79268216D01*
X161249500Y-79420943D01*
X161249500Y-79579057D01*
X161290423Y-79731782D01*
X161290423Y-79731783D01*
X161290426Y-79731790D01*
X161369475Y-79868709D01*
X161369479Y-79868714D01*
X161369480Y-79868716D01*
X161481284Y-79980520D01*
X161481286Y-79980521D01*
X161481290Y-79980524D01*
X161594585Y-80045934D01*
X161618216Y-80059577D01*
X161770943Y-80100500D01*
X161770945Y-80100500D01*
X161929055Y-80100500D01*
X161929057Y-80100500D01*
X162081784Y-80059577D01*
X162218716Y-79980520D01*
X162330520Y-79868716D01*
X162409577Y-79731784D01*
X162432808Y-79645083D01*
X162469170Y-79585426D01*
X162532016Y-79554896D01*
X162601392Y-79563190D01*
X162640262Y-79589498D01*
X162681284Y-79630520D01*
X162681286Y-79630521D01*
X162681290Y-79630524D01*
X162765353Y-79679057D01*
X162818216Y-79709577D01*
X162970943Y-79750500D01*
X163032745Y-79750500D01*
X163099784Y-79770185D01*
X163120426Y-79786819D01*
X164863181Y-81529573D01*
X164896666Y-81590896D01*
X164899500Y-81617254D01*
X164899500Y-90255765D01*
X164879815Y-90322804D01*
X164827011Y-90368559D01*
X164757853Y-90378503D01*
X164740538Y-90374656D01*
X164614071Y-90349500D01*
X164614069Y-90349500D01*
X164485931Y-90349500D01*
X164485929Y-90349500D01*
X164360261Y-90374497D01*
X164360255Y-90374499D01*
X164241875Y-90423533D01*
X164241866Y-90423538D01*
X164135331Y-90494723D01*
X164135327Y-90494726D01*
X164044726Y-90585327D01*
X164044723Y-90585331D01*
X163973538Y-90691866D01*
X163973533Y-90691875D01*
X163924499Y-90810255D01*
X163924497Y-90810261D01*
X163899500Y-90935928D01*
X163899500Y-90935931D01*
X163899500Y-91064069D01*
X163899500Y-91064071D01*
X163899499Y-91064071D01*
X163924497Y-91189738D01*
X163924499Y-91189744D01*
X163973533Y-91308124D01*
X163973538Y-91308133D01*
X164044723Y-91414668D01*
X164044726Y-91414672D01*
X164135327Y-91505273D01*
X164135331Y-91505276D01*
X164241866Y-91576461D01*
X164241872Y-91576464D01*
X164241873Y-91576465D01*
X164360256Y-91625501D01*
X164360260Y-91625501D01*
X164360261Y-91625502D01*
X164485928Y-91650500D01*
X164485931Y-91650500D01*
X164614071Y-91650500D01*
X164745718Y-91624313D01*
X164745957Y-91625517D01*
X164809366Y-91624948D01*
X164868481Y-91662194D01*
X164898075Y-91725486D01*
X164899500Y-91744234D01*
X164899500Y-92187726D01*
X164926793Y-92289589D01*
X164953156Y-92335250D01*
X164979520Y-92380913D01*
X166713017Y-94114410D01*
X168444325Y-95845717D01*
X168477810Y-95907040D01*
X168474575Y-95971715D01*
X168427829Y-96115587D01*
X168399500Y-96294448D01*
X168399500Y-96475551D01*
X168427829Y-96654410D01*
X168483787Y-96826636D01*
X168483788Y-96826639D01*
X168566006Y-96987997D01*
X168612953Y-97052615D01*
X168636433Y-97118421D01*
X168620607Y-97186475D01*
X168570502Y-97235170D01*
X168512635Y-97249500D01*
X152787365Y-97249500D01*
X152781311Y-97247722D01*
X152775113Y-97248893D01*
X152748190Y-97237997D01*
X152720326Y-97229815D01*
X152716195Y-97225047D01*
X152710347Y-97222681D01*
X152693587Y-97198956D01*
X152674571Y-97177011D01*
X152673673Y-97170768D01*
X152670033Y-97165615D01*
X152668760Y-97136597D01*
X152664627Y-97107853D01*
X152667177Y-97100527D01*
X152666971Y-97095812D01*
X152674344Y-97079947D01*
X152680212Y-97063096D01*
X152683365Y-97057681D01*
X152733996Y-96987994D01*
X152804252Y-96850107D01*
X152806007Y-96847096D01*
X152828954Y-96825380D01*
X152850650Y-96802409D01*
X152854260Y-96801432D01*
X152856756Y-96799071D01*
X152877402Y-96795172D01*
X152913160Y-96785500D01*
X153004806Y-96785500D01*
X153004808Y-96785500D01*
X153106669Y-96758207D01*
X153197994Y-96705480D01*
X160068018Y-89835456D01*
X160070469Y-89831211D01*
X160120745Y-89744130D01*
X160148038Y-89642270D01*
X160148038Y-81294811D01*
X160137126Y-81254087D01*
X160120745Y-81192950D01*
X160068018Y-81101625D01*
X159989989Y-81023596D01*
X159956504Y-80962273D01*
X159953670Y-80935915D01*
X159953670Y-79789446D01*
X159973355Y-79722407D01*
X160026159Y-79676652D01*
X160045570Y-79669673D01*
X160083256Y-79659576D01*
X160220188Y-79580519D01*
X160331992Y-79468715D01*
X160411049Y-79331783D01*
X160451972Y-79179056D01*
X160451972Y-79020942D01*
X160411049Y-78868215D01*
X160405791Y-78859107D01*
X160331996Y-78731289D01*
X160331990Y-78731281D01*
X160220189Y-78619480D01*
X160220181Y-78619474D01*
X160083262Y-78540425D01*
X160083258Y-78540423D01*
X160083256Y-78540422D01*
X159930529Y-78499499D01*
X159772415Y-78499499D01*
X159619688Y-78540422D01*
X159619685Y-78540423D01*
X159542618Y-78584918D01*
X159474717Y-78601391D01*
X159417176Y-78581475D01*
X159416242Y-78583094D01*
X159272277Y-78499977D01*
X159272273Y-78499975D01*
X159272271Y-78499974D01*
X159119544Y-78459051D01*
X158961430Y-78459051D01*
X158808703Y-78499974D01*
X158808696Y-78499977D01*
X158671777Y-78579026D01*
X158671769Y-78579032D01*
X158559968Y-78690833D01*
X158559962Y-78690841D01*
X158480910Y-78827764D01*
X158479882Y-78830248D01*
X158478453Y-78832020D01*
X158476846Y-78834805D01*
X158476411Y-78834554D01*
X158436040Y-78884651D01*
X158369745Y-78906714D01*
X158365322Y-78906793D01*
X158298461Y-78906793D01*
X158145734Y-78947716D01*
X158145727Y-78947719D01*
X158008808Y-79026768D01*
X158008800Y-79026774D01*
X157896999Y-79138575D01*
X157896993Y-79138583D01*
X157817944Y-79275502D01*
X157817941Y-79275509D01*
X157777018Y-79428236D01*
X157777018Y-79455227D01*
X157757333Y-79522266D01*
X157740699Y-79542908D01*
X157259029Y-80024578D01*
X157197706Y-80058063D01*
X157171348Y-80060897D01*
X156753387Y-80060897D01*
X156686348Y-80041212D01*
X156640593Y-79988408D01*
X156630649Y-79919250D01*
X156659674Y-79855694D01*
X156665706Y-79849216D01*
X156951732Y-79563190D01*
X157244009Y-79270913D01*
X157296736Y-79179588D01*
X157324029Y-79077727D01*
X157324029Y-78972273D01*
X157324029Y-78593726D01*
X157343714Y-78526687D01*
X157360348Y-78506045D01*
X157542649Y-78323744D01*
X157732328Y-78134064D01*
X157742556Y-78127641D01*
X157747789Y-78120948D01*
X157769756Y-78110559D01*
X157779112Y-78104684D01*
X157791089Y-78100500D01*
X157793412Y-78100500D01*
X157895272Y-78073207D01*
X157925091Y-78055991D01*
X157935192Y-78050158D01*
X157935195Y-78050158D01*
X157986591Y-78020484D01*
X157986590Y-78020484D01*
X157986598Y-78020480D01*
X158061165Y-77945913D01*
X158061166Y-77945911D01*
X158520261Y-77486816D01*
X158581583Y-77453334D01*
X158607941Y-77450500D01*
X159177725Y-77450500D01*
X159177727Y-77450500D01*
X159279588Y-77423207D01*
X159370913Y-77370480D01*
X159645911Y-77095481D01*
X159645913Y-77095480D01*
X159720480Y-77020913D01*
X159773207Y-76929587D01*
X159790379Y-76865500D01*
X159800501Y-76827727D01*
X159800501Y-76722273D01*
X159800501Y-76714678D01*
X159800500Y-76714660D01*
X159800500Y-75224500D01*
X159820185Y-75157461D01*
X159872989Y-75111706D01*
X159924500Y-75100500D01*
X159982745Y-75100500D01*
X160005584Y-75107206D01*
G37*
%TD.AperFunction*%
%TA.AperFunction,Conductor*%
G36*
X165905703Y-82982235D02*
G01*
X165936357Y-83024747D01*
X165936359Y-83024746D01*
X165936368Y-83024763D01*
X165939062Y-83028498D01*
X165940424Y-83031788D01*
X166019475Y-83168709D01*
X166019481Y-83168717D01*
X166063181Y-83212417D01*
X166096666Y-83273740D01*
X166099500Y-83300098D01*
X166099500Y-85767726D01*
X166126793Y-85869589D01*
X166140073Y-85892590D01*
X166179520Y-85960913D01*
X166179522Y-85960915D01*
X168444325Y-88225718D01*
X168477810Y-88287041D01*
X168474575Y-88351716D01*
X168427829Y-88495587D01*
X168399500Y-88674448D01*
X168399500Y-88855551D01*
X168427829Y-89034410D01*
X168483787Y-89206636D01*
X168483788Y-89206639D01*
X168566006Y-89367997D01*
X168672441Y-89514494D01*
X168672445Y-89514499D01*
X168800500Y-89642554D01*
X168800505Y-89642558D01*
X168928287Y-89735396D01*
X168947006Y-89748996D01*
X169048780Y-89800853D01*
X169078684Y-89816090D01*
X169129480Y-89864065D01*
X169146275Y-89931886D01*
X169123737Y-89998021D01*
X169069022Y-90041472D01*
X169060708Y-90044506D01*
X169031781Y-90053905D01*
X168842439Y-90150380D01*
X168788282Y-90189727D01*
X168788282Y-90189728D01*
X169420591Y-90822037D01*
X169357007Y-90839075D01*
X169242993Y-90904901D01*
X169149901Y-90997993D01*
X169084075Y-91112007D01*
X169067037Y-91175591D01*
X168434728Y-90543282D01*
X168434727Y-90543282D01*
X168395380Y-90597439D01*
X168298904Y-90786782D01*
X168233242Y-90988869D01*
X168233242Y-90988872D01*
X168200000Y-91198753D01*
X168200000Y-91411246D01*
X168233242Y-91621127D01*
X168233242Y-91621130D01*
X168298904Y-91823217D01*
X168395375Y-92012550D01*
X168434728Y-92066716D01*
X169067037Y-91434408D01*
X169084075Y-91497993D01*
X169149901Y-91612007D01*
X169242993Y-91705099D01*
X169357007Y-91770925D01*
X169420590Y-91787962D01*
X168788282Y-92420269D01*
X168788282Y-92420270D01*
X168842449Y-92459624D01*
X169031780Y-92556094D01*
X169060705Y-92565492D01*
X169118381Y-92604929D01*
X169145580Y-92669287D01*
X169133667Y-92738134D01*
X169086424Y-92789610D01*
X169078685Y-92793908D01*
X168947004Y-92861004D01*
X168800505Y-92967441D01*
X168800500Y-92967445D01*
X168672445Y-93095500D01*
X168672441Y-93095505D01*
X168566006Y-93242002D01*
X168483788Y-93403360D01*
X168483787Y-93403363D01*
X168427829Y-93575589D01*
X168399500Y-93754448D01*
X168399500Y-93935551D01*
X168427829Y-94114410D01*
X168483787Y-94286636D01*
X168483788Y-94286639D01*
X168566006Y-94447997D01*
X168643838Y-94555125D01*
X168672447Y-94594501D01*
X168800499Y-94722553D01*
X168815751Y-94733634D01*
X168815754Y-94733637D01*
X168930502Y-94817005D01*
X168947006Y-94828996D01*
X169052484Y-94882740D01*
X169108360Y-94911211D01*
X169108363Y-94911212D01*
X169122792Y-94915900D01*
X169280591Y-94967171D01*
X169353639Y-94978740D01*
X169440678Y-94992527D01*
X169503813Y-95022456D01*
X169540744Y-95081768D01*
X169539746Y-95151631D01*
X169501136Y-95209863D01*
X169440678Y-95237473D01*
X169280587Y-95262829D01*
X169136715Y-95309575D01*
X169066874Y-95311570D01*
X169010717Y-95279325D01*
X168647292Y-94915900D01*
X168479100Y-94747707D01*
X165736819Y-92005426D01*
X165703334Y-91944103D01*
X165700500Y-91917745D01*
X165700500Y-83075948D01*
X165720185Y-83008909D01*
X165772989Y-82963154D01*
X165842147Y-82953210D01*
X165905703Y-82982235D01*
G37*
%TD.AperFunction*%
%TA.AperFunction,Conductor*%
G36*
X170613181Y-92014627D02*
G01*
X170646666Y-92075950D01*
X170649500Y-92102308D01*
X170649500Y-93019349D01*
X170629815Y-93086388D01*
X170577011Y-93132143D01*
X170507853Y-93142087D01*
X170444297Y-93113062D01*
X170431206Y-93098800D01*
X170430725Y-93099212D01*
X170427554Y-93095500D01*
X170299499Y-92967445D01*
X170299494Y-92967441D01*
X170152995Y-92861004D01*
X170021314Y-92793908D01*
X169970519Y-92745934D01*
X169953724Y-92678113D01*
X169976262Y-92611978D01*
X170030977Y-92568527D01*
X170039295Y-92565492D01*
X170068217Y-92556095D01*
X170257554Y-92459622D01*
X170311716Y-92420270D01*
X170311717Y-92420270D01*
X169679408Y-91787962D01*
X169742993Y-91770925D01*
X169857007Y-91705099D01*
X169950099Y-91612007D01*
X170015925Y-91497993D01*
X170032962Y-91434408D01*
X170613181Y-92014627D01*
G37*
%TD.AperFunction*%
%TA.AperFunction,Conductor*%
G36*
X151284075Y-91497993D02*
G01*
X151349901Y-91612007D01*
X151442993Y-91705099D01*
X151557007Y-91770925D01*
X151620590Y-91787962D01*
X150988282Y-92420269D01*
X150988282Y-92420270D01*
X151042449Y-92459624D01*
X151231780Y-92556094D01*
X151260705Y-92565492D01*
X151318381Y-92604929D01*
X151345580Y-92669287D01*
X151333667Y-92738134D01*
X151286424Y-92789610D01*
X151278685Y-92793908D01*
X151147004Y-92861004D01*
X151000505Y-92967441D01*
X151000500Y-92967445D01*
X150872445Y-93095500D01*
X150869275Y-93099212D01*
X150867614Y-93097793D01*
X150819474Y-93134906D01*
X150749859Y-93140876D01*
X150688069Y-93108262D01*
X150653719Y-93047419D01*
X150650500Y-93019349D01*
X150650500Y-92102308D01*
X150670185Y-92035269D01*
X150686819Y-92014627D01*
X151267037Y-91434408D01*
X151284075Y-91497993D01*
G37*
%TD.AperFunction*%
%TA.AperFunction,Conductor*%
G36*
X158668834Y-84200072D02*
G01*
X158724767Y-84241944D01*
X158749184Y-84307408D01*
X158749500Y-84316254D01*
X158749500Y-86227744D01*
X158729815Y-86294783D01*
X158713181Y-86315425D01*
X153267985Y-91760620D01*
X153206662Y-91794105D01*
X153136970Y-91789121D01*
X153081037Y-91747249D01*
X153056620Y-91681785D01*
X153062375Y-91634616D01*
X153066756Y-91621132D01*
X153066757Y-91621127D01*
X153100000Y-91411246D01*
X153100000Y-91198753D01*
X153066757Y-90988872D01*
X153066757Y-90988869D01*
X153001095Y-90786782D01*
X152904624Y-90597449D01*
X152865270Y-90543282D01*
X152865269Y-90543282D01*
X152232962Y-91175590D01*
X152215925Y-91112007D01*
X152150099Y-90997993D01*
X152057007Y-90904901D01*
X151942993Y-90839075D01*
X151879409Y-90822037D01*
X152511716Y-90189728D01*
X152457550Y-90150375D01*
X152268217Y-90053904D01*
X152239292Y-90044506D01*
X152181616Y-90005068D01*
X152154418Y-89940710D01*
X152166333Y-89871863D01*
X152213577Y-89820388D01*
X152221315Y-89816090D01*
X152352994Y-89748996D01*
X152499501Y-89642553D01*
X152627553Y-89514501D01*
X152733996Y-89367994D01*
X152802675Y-89233205D01*
X152850650Y-89182409D01*
X152913160Y-89165500D01*
X153487725Y-89165500D01*
X153487727Y-89165500D01*
X153589588Y-89138207D01*
X153680913Y-89085480D01*
X158537819Y-84228572D01*
X158599142Y-84195088D01*
X158668834Y-84200072D01*
G37*
%TD.AperFunction*%
%TA.AperFunction,Conductor*%
G36*
X150855703Y-89496937D02*
G01*
X150868788Y-89511203D01*
X150869275Y-89510788D01*
X150872445Y-89514499D01*
X151000500Y-89642554D01*
X151000505Y-89642558D01*
X151128287Y-89735396D01*
X151147006Y-89748996D01*
X151248780Y-89800853D01*
X151278684Y-89816090D01*
X151329480Y-89864065D01*
X151346275Y-89931886D01*
X151323737Y-89998021D01*
X151269022Y-90041472D01*
X151260708Y-90044506D01*
X151231781Y-90053905D01*
X151042439Y-90150380D01*
X150988282Y-90189727D01*
X150988282Y-90189728D01*
X151620591Y-90822037D01*
X151557007Y-90839075D01*
X151442993Y-90904901D01*
X151349901Y-90997993D01*
X151284075Y-91112007D01*
X151267037Y-91175591D01*
X150686819Y-90595373D01*
X150653334Y-90534050D01*
X150650500Y-90507692D01*
X150650500Y-89590650D01*
X150670185Y-89523611D01*
X150722989Y-89477856D01*
X150792147Y-89467912D01*
X150855703Y-89496937D01*
G37*
%TD.AperFunction*%
%TA.AperFunction,Conductor*%
G36*
X170611869Y-89501676D02*
G01*
X170646261Y-89562495D01*
X170649500Y-89590650D01*
X170649500Y-90507692D01*
X170629815Y-90574731D01*
X170613181Y-90595373D01*
X170032962Y-91175591D01*
X170015925Y-91112007D01*
X169950099Y-90997993D01*
X169857007Y-90904901D01*
X169742993Y-90839075D01*
X169679409Y-90822037D01*
X170311716Y-90189728D01*
X170257550Y-90150375D01*
X170068217Y-90053904D01*
X170039292Y-90044506D01*
X169981616Y-90005068D01*
X169954418Y-89940710D01*
X169966333Y-89871863D01*
X170013577Y-89820388D01*
X170021315Y-89816090D01*
X170152994Y-89748996D01*
X170299501Y-89642553D01*
X170427553Y-89514501D01*
X170427558Y-89514494D01*
X170430725Y-89510788D01*
X170432398Y-89512217D01*
X170480445Y-89475125D01*
X170550055Y-89469106D01*
X170611869Y-89501676D01*
G37*
%TD.AperFunction*%
%TA.AperFunction,Conductor*%
G36*
X152289281Y-72090674D02*
G01*
X152652706Y-72454099D01*
X156040179Y-75841571D01*
X156040189Y-75841582D01*
X156044519Y-75845912D01*
X156044520Y-75845913D01*
X156119087Y-75920480D01*
X156186805Y-75959577D01*
X156210413Y-75973207D01*
X156312273Y-76000501D01*
X156312275Y-76000501D01*
X156425323Y-76000501D01*
X156425339Y-76000500D01*
X158122725Y-76000500D01*
X158122727Y-76000500D01*
X158124731Y-75999963D01*
X158126806Y-75999963D01*
X158130786Y-75999439D01*
X158130855Y-75999963D01*
X158182815Y-75999963D01*
X158182884Y-75999439D01*
X158186864Y-75999963D01*
X158188939Y-75999963D01*
X158190943Y-76000500D01*
X158190945Y-76000500D01*
X158349055Y-76000500D01*
X158349057Y-76000500D01*
X158501784Y-75959577D01*
X158638716Y-75880520D01*
X158750520Y-75768716D01*
X158768112Y-75738244D01*
X158818679Y-75690029D01*
X158887286Y-75676805D01*
X158952151Y-75702773D01*
X158992680Y-75759687D01*
X158999500Y-75800244D01*
X158999500Y-76525500D01*
X158979815Y-76592539D01*
X158927011Y-76638294D01*
X158875500Y-76649500D01*
X158451025Y-76649500D01*
X158451009Y-76649499D01*
X158443413Y-76649499D01*
X158337960Y-76649499D01*
X158236099Y-76676793D01*
X158144773Y-76729520D01*
X158077275Y-76797018D01*
X158077274Y-76797017D01*
X158077272Y-76797020D01*
X157608358Y-77265933D01*
X157600607Y-77271036D01*
X157597169Y-77275848D01*
X157581133Y-77283858D01*
X157566574Y-77293445D01*
X157551377Y-77299500D01*
X157547273Y-77299500D01*
X157445413Y-77326793D01*
X157369745Y-77370480D01*
X157361983Y-77374960D01*
X157361976Y-77374964D01*
X157354090Y-77379517D01*
X157354085Y-77379521D01*
X156603051Y-78130555D01*
X156603047Y-78130561D01*
X156550321Y-78221883D01*
X156550322Y-78221884D01*
X156523029Y-78323744D01*
X156523029Y-78807744D01*
X156503344Y-78874783D01*
X156486710Y-78895425D01*
X155320519Y-80061615D01*
X155259196Y-80095100D01*
X155200745Y-80093709D01*
X155129057Y-80074500D01*
X154970943Y-80074500D01*
X154818216Y-80115423D01*
X154818209Y-80115426D01*
X154681290Y-80194475D01*
X154681282Y-80194481D01*
X154569481Y-80306282D01*
X154569475Y-80306290D01*
X154490426Y-80443209D01*
X154490423Y-80443216D01*
X154449500Y-80595943D01*
X154449500Y-80754057D01*
X154486040Y-80890424D01*
X154490423Y-80906783D01*
X154490424Y-80906786D01*
X154494302Y-80913503D01*
X154510772Y-80981403D01*
X154487919Y-81047430D01*
X154432996Y-81090619D01*
X154386913Y-81099500D01*
X153013541Y-81099500D01*
X152946502Y-81079815D01*
X152900747Y-81027011D01*
X152891068Y-80994898D01*
X152880871Y-80930520D01*
X152872171Y-80875591D01*
X152816211Y-80703361D01*
X152816211Y-80703360D01*
X152761478Y-80595943D01*
X152733996Y-80542006D01*
X152720396Y-80523287D01*
X152627558Y-80395505D01*
X152627554Y-80395500D01*
X152499499Y-80267445D01*
X152499494Y-80267441D01*
X152352995Y-80161004D01*
X152221314Y-80093908D01*
X152170519Y-80045934D01*
X152153724Y-79978113D01*
X152176262Y-79911978D01*
X152230977Y-79868527D01*
X152239295Y-79865492D01*
X152268217Y-79856095D01*
X152457554Y-79759622D01*
X152511716Y-79720270D01*
X152511717Y-79720270D01*
X151879408Y-79087962D01*
X151942993Y-79070925D01*
X152057007Y-79005099D01*
X152150099Y-78912007D01*
X152215925Y-78797993D01*
X152232962Y-78734409D01*
X152865270Y-79366717D01*
X152865270Y-79366716D01*
X152904622Y-79312554D01*
X153001095Y-79123217D01*
X153066757Y-78921130D01*
X153066757Y-78921127D01*
X153100000Y-78711246D01*
X153100000Y-78498753D01*
X153066757Y-78288872D01*
X153066757Y-78288869D01*
X153001095Y-78086782D01*
X152904624Y-77897449D01*
X152865270Y-77843282D01*
X152865269Y-77843282D01*
X152232962Y-78475590D01*
X152215925Y-78412007D01*
X152150099Y-78297993D01*
X152057007Y-78204901D01*
X151942993Y-78139075D01*
X151879409Y-78122037D01*
X152511716Y-77489728D01*
X152457550Y-77450375D01*
X152268217Y-77353904D01*
X152239292Y-77344506D01*
X152181616Y-77305068D01*
X152154418Y-77240710D01*
X152166333Y-77171863D01*
X152213577Y-77120388D01*
X152221315Y-77116090D01*
X152352994Y-77048996D01*
X152499501Y-76942553D01*
X152627553Y-76814501D01*
X152733996Y-76667994D01*
X152816211Y-76506639D01*
X152872171Y-76334409D01*
X152886765Y-76242259D01*
X152900500Y-76155551D01*
X152900500Y-75974448D01*
X152880141Y-75845913D01*
X152872171Y-75795591D01*
X152816211Y-75623361D01*
X152816211Y-75623360D01*
X152787740Y-75567484D01*
X152733996Y-75462006D01*
X152682333Y-75390897D01*
X152627558Y-75315505D01*
X152627554Y-75315500D01*
X152499499Y-75187445D01*
X152499494Y-75187441D01*
X152352997Y-75081006D01*
X152352996Y-75081005D01*
X152352994Y-75081004D01*
X152301300Y-75054664D01*
X152191639Y-74998788D01*
X152191636Y-74998787D01*
X152019410Y-74942829D01*
X151859321Y-74917473D01*
X151796186Y-74887544D01*
X151759255Y-74828232D01*
X151760253Y-74758370D01*
X151798863Y-74700137D01*
X151859321Y-74672527D01*
X151933851Y-74660722D01*
X152019409Y-74647171D01*
X152191639Y-74591211D01*
X152352994Y-74508996D01*
X152499501Y-74402553D01*
X152627553Y-74274501D01*
X152733996Y-74127994D01*
X152816211Y-73966639D01*
X152872171Y-73794409D01*
X152886765Y-73702259D01*
X152900500Y-73615551D01*
X152900500Y-73434448D01*
X152884019Y-73330397D01*
X152872171Y-73255591D01*
X152816211Y-73083361D01*
X152816211Y-73083360D01*
X152787740Y-73027484D01*
X152733996Y-72922006D01*
X152661401Y-72822087D01*
X152638637Y-72790754D01*
X152638634Y-72790751D01*
X152627553Y-72775499D01*
X152499501Y-72647447D01*
X152484248Y-72636365D01*
X152484244Y-72636361D01*
X152352997Y-72541006D01*
X152352996Y-72541005D01*
X152352994Y-72541004D01*
X152301300Y-72514664D01*
X152191639Y-72458788D01*
X152191636Y-72458787D01*
X152019410Y-72402829D01*
X151859321Y-72377473D01*
X151796186Y-72347544D01*
X151759255Y-72288232D01*
X151760253Y-72218370D01*
X151798863Y-72160137D01*
X151859321Y-72132527D01*
X152019409Y-72107171D01*
X152070182Y-72090674D01*
X152163284Y-72060423D01*
X152233123Y-72058429D01*
X152289281Y-72090674D01*
G37*
%TD.AperFunction*%
%TA.AperFunction,Conductor*%
G36*
X155598673Y-47270185D02*
G01*
X155644428Y-47322989D01*
X155654372Y-47392147D01*
X155625347Y-47455703D01*
X155619315Y-47462181D01*
X155587089Y-47494406D01*
X155587086Y-47494410D01*
X155483124Y-47649999D01*
X155483119Y-47650008D01*
X155411508Y-47822894D01*
X155411506Y-47822902D01*
X155375000Y-48006428D01*
X155375000Y-48250000D01*
X156025000Y-48250000D01*
X156025000Y-48750000D01*
X155375000Y-48750000D01*
X155375000Y-48993571D01*
X155411506Y-49177097D01*
X155411508Y-49177105D01*
X155483119Y-49349991D01*
X155483124Y-49350000D01*
X155587086Y-49505589D01*
X155587089Y-49505593D01*
X155719406Y-49637910D01*
X155719410Y-49637913D01*
X155874999Y-49741875D01*
X155875012Y-49741882D01*
X156047889Y-49813489D01*
X156047896Y-49813491D01*
X156075000Y-49818882D01*
X156075000Y-49066988D01*
X156084940Y-49084205D01*
X156140795Y-49140060D01*
X156209204Y-49179556D01*
X156285504Y-49200000D01*
X156364496Y-49200000D01*
X156440796Y-49179556D01*
X156509205Y-49140060D01*
X156565060Y-49084205D01*
X156575000Y-49066988D01*
X156575000Y-49818881D01*
X156602103Y-49813491D01*
X156602110Y-49813489D01*
X156774987Y-49741882D01*
X156775000Y-49741875D01*
X156930589Y-49637913D01*
X156930593Y-49637910D01*
X157062910Y-49505593D01*
X157062913Y-49505589D01*
X157166875Y-49350000D01*
X157166880Y-49349991D01*
X157238491Y-49177105D01*
X157238493Y-49177097D01*
X157274999Y-48993571D01*
X157275000Y-48993569D01*
X157275000Y-48750000D01*
X156625000Y-48750000D01*
X156625000Y-48250000D01*
X157275000Y-48250000D01*
X157275000Y-48006430D01*
X157274999Y-48006428D01*
X157238493Y-47822902D01*
X157238491Y-47822894D01*
X157166880Y-47650008D01*
X157166875Y-47649999D01*
X157062913Y-47494410D01*
X157062910Y-47494406D01*
X157030685Y-47462181D01*
X156997200Y-47400858D01*
X157002184Y-47331166D01*
X157044056Y-47275233D01*
X157109520Y-47250816D01*
X157118366Y-47250500D01*
X164181634Y-47250500D01*
X164248673Y-47270185D01*
X164294428Y-47322989D01*
X164304372Y-47392147D01*
X164275347Y-47455703D01*
X164269315Y-47462181D01*
X164237089Y-47494406D01*
X164237086Y-47494410D01*
X164133124Y-47649999D01*
X164133119Y-47650008D01*
X164061508Y-47822894D01*
X164061506Y-47822902D01*
X164025000Y-48006428D01*
X164025000Y-48250000D01*
X164675000Y-48250000D01*
X164675000Y-48750000D01*
X164025000Y-48750000D01*
X164025000Y-48993571D01*
X164061506Y-49177097D01*
X164061508Y-49177105D01*
X164133119Y-49349991D01*
X164133124Y-49350000D01*
X164237086Y-49505589D01*
X164237089Y-49505593D01*
X164369406Y-49637910D01*
X164369410Y-49637913D01*
X164524999Y-49741875D01*
X164525012Y-49741882D01*
X164697889Y-49813489D01*
X164697896Y-49813491D01*
X164725000Y-49818882D01*
X164725000Y-49066988D01*
X164734940Y-49084205D01*
X164790795Y-49140060D01*
X164859204Y-49179556D01*
X164935504Y-49200000D01*
X165014496Y-49200000D01*
X165090796Y-49179556D01*
X165159205Y-49140060D01*
X165215060Y-49084205D01*
X165225000Y-49066988D01*
X165225000Y-49818881D01*
X165252103Y-49813491D01*
X165252110Y-49813489D01*
X165424987Y-49741882D01*
X165425000Y-49741875D01*
X165580589Y-49637913D01*
X165580593Y-49637910D01*
X165712910Y-49505593D01*
X165712913Y-49505589D01*
X165816875Y-49350000D01*
X165816880Y-49349991D01*
X165888491Y-49177105D01*
X165888493Y-49177097D01*
X165924999Y-48993571D01*
X165925000Y-48993569D01*
X165925000Y-48750000D01*
X165275000Y-48750000D01*
X165275000Y-48250000D01*
X165925000Y-48250000D01*
X165925000Y-48006430D01*
X165924999Y-48006428D01*
X165888493Y-47822902D01*
X165888491Y-47822894D01*
X165816880Y-47650008D01*
X165816875Y-47649999D01*
X165712913Y-47494410D01*
X165712910Y-47494406D01*
X165680685Y-47462181D01*
X165647200Y-47400858D01*
X165652184Y-47331166D01*
X165694056Y-47275233D01*
X165759520Y-47250816D01*
X165768366Y-47250500D01*
X168275500Y-47250500D01*
X168342539Y-47270185D01*
X168388294Y-47322989D01*
X168399500Y-47374500D01*
X168399500Y-49019856D01*
X168399502Y-49019882D01*
X168402413Y-49044987D01*
X168402415Y-49044991D01*
X168447793Y-49147764D01*
X168447794Y-49147765D01*
X168527235Y-49227206D01*
X168630009Y-49272585D01*
X168655135Y-49275500D01*
X169392873Y-49275499D01*
X169459910Y-49295183D01*
X169505665Y-49347987D01*
X169515609Y-49417146D01*
X169486584Y-49480702D01*
X169427806Y-49518476D01*
X169412270Y-49521972D01*
X169280589Y-49542829D01*
X169108363Y-49598787D01*
X169108360Y-49598788D01*
X168947002Y-49681006D01*
X168800505Y-49787441D01*
X168800500Y-49787445D01*
X168672445Y-49915500D01*
X168672441Y-49915505D01*
X168566006Y-50062002D01*
X168483788Y-50223360D01*
X168483787Y-50223363D01*
X168427829Y-50395589D01*
X168399500Y-50574448D01*
X168399500Y-50755551D01*
X168427829Y-50934410D01*
X168483787Y-51106636D01*
X168483788Y-51106639D01*
X168566006Y-51267997D01*
X168672441Y-51414494D01*
X168672445Y-51414499D01*
X168800500Y-51542554D01*
X168800505Y-51542558D01*
X168839979Y-51571237D01*
X168947006Y-51648996D01*
X169046604Y-51699744D01*
X169078684Y-51716090D01*
X169129480Y-51764065D01*
X169146275Y-51831886D01*
X169123737Y-51898021D01*
X169069022Y-51941472D01*
X169060708Y-51944506D01*
X169031781Y-51953905D01*
X168842439Y-52050380D01*
X168788282Y-52089727D01*
X168788282Y-52089728D01*
X169420591Y-52722037D01*
X169357007Y-52739075D01*
X169242993Y-52804901D01*
X169149901Y-52897993D01*
X169084075Y-53012007D01*
X169067037Y-53075591D01*
X168434728Y-52443282D01*
X168434727Y-52443282D01*
X168395380Y-52497439D01*
X168298904Y-52686782D01*
X168233242Y-52888869D01*
X168233242Y-52888872D01*
X168200000Y-53098753D01*
X168200000Y-53311246D01*
X168233242Y-53521127D01*
X168233242Y-53521130D01*
X168298904Y-53723217D01*
X168395375Y-53912550D01*
X168434728Y-53966716D01*
X169067037Y-53334408D01*
X169084075Y-53397993D01*
X169149901Y-53512007D01*
X169242993Y-53605099D01*
X169357007Y-53670925D01*
X169420590Y-53687962D01*
X168788282Y-54320269D01*
X168788282Y-54320270D01*
X168842449Y-54359624D01*
X169031780Y-54456094D01*
X169060705Y-54465492D01*
X169118381Y-54504929D01*
X169145580Y-54569287D01*
X169133667Y-54638134D01*
X169086424Y-54689610D01*
X169078685Y-54693908D01*
X168947004Y-54761004D01*
X168800505Y-54867441D01*
X168800500Y-54867445D01*
X168672445Y-54995500D01*
X168672441Y-54995505D01*
X168566006Y-55142002D01*
X168483788Y-55303360D01*
X168483787Y-55303363D01*
X168427829Y-55475589D01*
X168399500Y-55654448D01*
X168399500Y-55835551D01*
X168427829Y-56014410D01*
X168483787Y-56186636D01*
X168483788Y-56186639D01*
X168566006Y-56347997D01*
X168672441Y-56494494D01*
X168672445Y-56494499D01*
X168800500Y-56622554D01*
X168800505Y-56622558D01*
X168928287Y-56715396D01*
X168947006Y-56728996D01*
X169052484Y-56782740D01*
X169108360Y-56811211D01*
X169108363Y-56811212D01*
X169194476Y-56839191D01*
X169280591Y-56867171D01*
X169353639Y-56878740D01*
X169440678Y-56892527D01*
X169503813Y-56922456D01*
X169540744Y-56981768D01*
X169539746Y-57051631D01*
X169501136Y-57109863D01*
X169440678Y-57137473D01*
X169280589Y-57162829D01*
X169108363Y-57218787D01*
X169108360Y-57218788D01*
X168947002Y-57301006D01*
X168800505Y-57407441D01*
X168800500Y-57407445D01*
X168672445Y-57535500D01*
X168672441Y-57535505D01*
X168566006Y-57682002D01*
X168483788Y-57843360D01*
X168483787Y-57843363D01*
X168427829Y-58015589D01*
X168399500Y-58194448D01*
X168399500Y-58375551D01*
X168427829Y-58554410D01*
X168483787Y-58726636D01*
X168483788Y-58726639D01*
X168566006Y-58887997D01*
X168672441Y-59034494D01*
X168672445Y-59034499D01*
X168800500Y-59162554D01*
X168800505Y-59162558D01*
X168928287Y-59255396D01*
X168947006Y-59268996D01*
X169052484Y-59322740D01*
X169108360Y-59351211D01*
X169108363Y-59351212D01*
X169194476Y-59379191D01*
X169280591Y-59407171D01*
X169353639Y-59418740D01*
X169440678Y-59432527D01*
X169503813Y-59462456D01*
X169540744Y-59521768D01*
X169539746Y-59591631D01*
X169501136Y-59649863D01*
X169440678Y-59677473D01*
X169280589Y-59702829D01*
X169108363Y-59758787D01*
X169108360Y-59758788D01*
X168947002Y-59841006D01*
X168800505Y-59947441D01*
X168800500Y-59947445D01*
X168672445Y-60075500D01*
X168672441Y-60075505D01*
X168566006Y-60222002D01*
X168483788Y-60383360D01*
X168483787Y-60383363D01*
X168427829Y-60555589D01*
X168399500Y-60734448D01*
X168399500Y-60915551D01*
X168427829Y-61094410D01*
X168483787Y-61266636D01*
X168483788Y-61266639D01*
X168566006Y-61427997D01*
X168672441Y-61574494D01*
X168672445Y-61574499D01*
X168800500Y-61702554D01*
X168800505Y-61702558D01*
X168928287Y-61795396D01*
X168947006Y-61808996D01*
X169052484Y-61862740D01*
X169108360Y-61891211D01*
X169108363Y-61891212D01*
X169194476Y-61919191D01*
X169280591Y-61947171D01*
X169353639Y-61958740D01*
X169440678Y-61972527D01*
X169503813Y-62002456D01*
X169540744Y-62061768D01*
X169539746Y-62131631D01*
X169501136Y-62189863D01*
X169440678Y-62217473D01*
X169280589Y-62242829D01*
X169108363Y-62298787D01*
X169108360Y-62298788D01*
X168947002Y-62381006D01*
X168800505Y-62487441D01*
X168800500Y-62487445D01*
X168672445Y-62615500D01*
X168672441Y-62615505D01*
X168566006Y-62762002D01*
X168483788Y-62923360D01*
X168483787Y-62923363D01*
X168427829Y-63095589D01*
X168399500Y-63274448D01*
X168399500Y-63455551D01*
X168427829Y-63634410D01*
X168483787Y-63806636D01*
X168483788Y-63806639D01*
X168566006Y-63967997D01*
X168672441Y-64114494D01*
X168672445Y-64114499D01*
X168800500Y-64242554D01*
X168800505Y-64242558D01*
X168928287Y-64335396D01*
X168947006Y-64348996D01*
X169048780Y-64400853D01*
X169078684Y-64416090D01*
X169129480Y-64464065D01*
X169146275Y-64531886D01*
X169123737Y-64598021D01*
X169069022Y-64641472D01*
X169060708Y-64644506D01*
X169031781Y-64653905D01*
X168842439Y-64750380D01*
X168788282Y-64789727D01*
X168788282Y-64789728D01*
X169420591Y-65422037D01*
X169357007Y-65439075D01*
X169242993Y-65504901D01*
X169149901Y-65597993D01*
X169084075Y-65712007D01*
X169067037Y-65775591D01*
X168434728Y-65143282D01*
X168434727Y-65143282D01*
X168395380Y-65197439D01*
X168298904Y-65386782D01*
X168233242Y-65588869D01*
X168233242Y-65588872D01*
X168200000Y-65798753D01*
X168200000Y-66011246D01*
X168233242Y-66221127D01*
X168233242Y-66221130D01*
X168298904Y-66423217D01*
X168395375Y-66612550D01*
X168434728Y-66666716D01*
X169067037Y-66034408D01*
X169084075Y-66097993D01*
X169149901Y-66212007D01*
X169242993Y-66305099D01*
X169357007Y-66370925D01*
X169420590Y-66387962D01*
X168788282Y-67020269D01*
X168788282Y-67020270D01*
X168842449Y-67059624D01*
X169031780Y-67156094D01*
X169060705Y-67165492D01*
X169118381Y-67204929D01*
X169145580Y-67269287D01*
X169133667Y-67338134D01*
X169086424Y-67389610D01*
X169078685Y-67393908D01*
X168947004Y-67461004D01*
X168800505Y-67567441D01*
X168800500Y-67567445D01*
X168672445Y-67695500D01*
X168672441Y-67695505D01*
X168566006Y-67842002D01*
X168483788Y-68003360D01*
X168483787Y-68003363D01*
X168427829Y-68175589D01*
X168399500Y-68354448D01*
X168399500Y-68535551D01*
X168427829Y-68714410D01*
X168483787Y-68886636D01*
X168483788Y-68886639D01*
X168566006Y-69047997D01*
X168672441Y-69194494D01*
X168672445Y-69194499D01*
X168800500Y-69322554D01*
X168800505Y-69322558D01*
X168913514Y-69404663D01*
X168947006Y-69428996D01*
X169052484Y-69482740D01*
X169108360Y-69511211D01*
X169108363Y-69511212D01*
X169194476Y-69539191D01*
X169280591Y-69567171D01*
X169353639Y-69578740D01*
X169440678Y-69592527D01*
X169503813Y-69622456D01*
X169540744Y-69681768D01*
X169539746Y-69751631D01*
X169501136Y-69809863D01*
X169440678Y-69837473D01*
X169280589Y-69862829D01*
X169108363Y-69918787D01*
X169108360Y-69918788D01*
X168947002Y-70001006D01*
X168800505Y-70107441D01*
X168800500Y-70107445D01*
X168672445Y-70235500D01*
X168672441Y-70235505D01*
X168566006Y-70382002D01*
X168483788Y-70543360D01*
X168483787Y-70543363D01*
X168427829Y-70715589D01*
X168399500Y-70894448D01*
X168399500Y-71075551D01*
X168427829Y-71254410D01*
X168483787Y-71426636D01*
X168483788Y-71426639D01*
X168566006Y-71587997D01*
X168672441Y-71734494D01*
X168672445Y-71734499D01*
X168800500Y-71862554D01*
X168800505Y-71862558D01*
X168928287Y-71955396D01*
X168947006Y-71968996D01*
X169052484Y-72022740D01*
X169108360Y-72051211D01*
X169108363Y-72051212D01*
X169194476Y-72079191D01*
X169280591Y-72107171D01*
X169353639Y-72118740D01*
X169440678Y-72132527D01*
X169503813Y-72162456D01*
X169540744Y-72221768D01*
X169539746Y-72291631D01*
X169501136Y-72349863D01*
X169440678Y-72377473D01*
X169280589Y-72402829D01*
X169108363Y-72458787D01*
X169108360Y-72458788D01*
X168947002Y-72541006D01*
X168800505Y-72647441D01*
X168800500Y-72647445D01*
X168672445Y-72775500D01*
X168672441Y-72775505D01*
X168566006Y-72922002D01*
X168483788Y-73083360D01*
X168483787Y-73083363D01*
X168427829Y-73255589D01*
X168399500Y-73434448D01*
X168399500Y-73615551D01*
X168427829Y-73794410D01*
X168483787Y-73966636D01*
X168483788Y-73966639D01*
X168566006Y-74127997D01*
X168672441Y-74274494D01*
X168672445Y-74274499D01*
X168800500Y-74402554D01*
X168800505Y-74402558D01*
X168892033Y-74469056D01*
X168947006Y-74508996D01*
X169052484Y-74562740D01*
X169108360Y-74591211D01*
X169108363Y-74591212D01*
X169194476Y-74619191D01*
X169280591Y-74647171D01*
X169353639Y-74658740D01*
X169440678Y-74672527D01*
X169503813Y-74702456D01*
X169540744Y-74761768D01*
X169539746Y-74831631D01*
X169501136Y-74889863D01*
X169440678Y-74917473D01*
X169280589Y-74942829D01*
X169108363Y-74998787D01*
X169108360Y-74998788D01*
X168947002Y-75081006D01*
X168800505Y-75187441D01*
X168800500Y-75187445D01*
X168672445Y-75315500D01*
X168672441Y-75315505D01*
X168566006Y-75462002D01*
X168483788Y-75623360D01*
X168483787Y-75623363D01*
X168427829Y-75795589D01*
X168399500Y-75974448D01*
X168399500Y-76155551D01*
X168427829Y-76334410D01*
X168483787Y-76506636D01*
X168483788Y-76506639D01*
X168535999Y-76609107D01*
X168556580Y-76649499D01*
X168566006Y-76667997D01*
X168672441Y-76814494D01*
X168672445Y-76814499D01*
X168800500Y-76942554D01*
X168800505Y-76942558D01*
X168908353Y-77020913D01*
X168947006Y-77048996D01*
X169048780Y-77100853D01*
X169078684Y-77116090D01*
X169129480Y-77164065D01*
X169146275Y-77231886D01*
X169123737Y-77298021D01*
X169069022Y-77341472D01*
X169060708Y-77344506D01*
X169031781Y-77353905D01*
X168842439Y-77450380D01*
X168788282Y-77489727D01*
X168788282Y-77489728D01*
X169420591Y-78122037D01*
X169357007Y-78139075D01*
X169242993Y-78204901D01*
X169149901Y-78297993D01*
X169084075Y-78412007D01*
X169067037Y-78475591D01*
X168434728Y-77843282D01*
X168434727Y-77843282D01*
X168395380Y-77897439D01*
X168298904Y-78086782D01*
X168233242Y-78288869D01*
X168233242Y-78288872D01*
X168200000Y-78498753D01*
X168200000Y-78711246D01*
X168233242Y-78921127D01*
X168233242Y-78921130D01*
X168298904Y-79123217D01*
X168395375Y-79312550D01*
X168434728Y-79366716D01*
X169067037Y-78734408D01*
X169084075Y-78797993D01*
X169149901Y-78912007D01*
X169242993Y-79005099D01*
X169357007Y-79070925D01*
X169420590Y-79087962D01*
X168788282Y-79720269D01*
X168788282Y-79720270D01*
X168842449Y-79759624D01*
X169031780Y-79856094D01*
X169060705Y-79865492D01*
X169118381Y-79904929D01*
X169145580Y-79969287D01*
X169133667Y-80038134D01*
X169086424Y-80089610D01*
X169078685Y-80093908D01*
X168947004Y-80161004D01*
X168800506Y-80267440D01*
X168704850Y-80363096D01*
X168643526Y-80396580D01*
X168573835Y-80391596D01*
X168529488Y-80363095D01*
X167436819Y-79270426D01*
X167403334Y-79209103D01*
X167400500Y-79182745D01*
X167400500Y-78838335D01*
X167398333Y-78830248D01*
X167392467Y-78808358D01*
X167389771Y-78767185D01*
X167389439Y-78767185D01*
X167389439Y-78762120D01*
X167389305Y-78760075D01*
X167389439Y-78759057D01*
X167389439Y-78600945D01*
X167389439Y-78600943D01*
X167348516Y-78448216D01*
X167276653Y-78323744D01*
X167269463Y-78311290D01*
X167269457Y-78311282D01*
X167157656Y-78199481D01*
X167157648Y-78199475D01*
X167020729Y-78120426D01*
X167020725Y-78120424D01*
X167020723Y-78120423D01*
X166867996Y-78079500D01*
X166709882Y-78079500D01*
X166557155Y-78120423D01*
X166557148Y-78120426D01*
X166420229Y-78199475D01*
X166420221Y-78199481D01*
X166308420Y-78311282D01*
X166308414Y-78311290D01*
X166229365Y-78448209D01*
X166229363Y-78448214D01*
X166229362Y-78448216D01*
X166188439Y-78600943D01*
X166188439Y-78759057D01*
X166211935Y-78846745D01*
X166210272Y-78916595D01*
X166171109Y-78974457D01*
X166124254Y-78998613D01*
X166120944Y-78999500D01*
X166120943Y-78999500D01*
X166100047Y-79005099D01*
X165968214Y-79040423D01*
X165968209Y-79040426D01*
X165831290Y-79119475D01*
X165831282Y-79119481D01*
X165719481Y-79231282D01*
X165719475Y-79231290D01*
X165640426Y-79368209D01*
X165640423Y-79368216D01*
X165599500Y-79520943D01*
X165599500Y-79679057D01*
X165621088Y-79759622D01*
X165640423Y-79831783D01*
X165640425Y-79831788D01*
X165658205Y-79862585D01*
X165674676Y-79930485D01*
X165651823Y-79996512D01*
X165638499Y-80012263D01*
X165569481Y-80081282D01*
X165569475Y-80081290D01*
X165490426Y-80218209D01*
X165490423Y-80218216D01*
X165449500Y-80370943D01*
X165449500Y-80529056D01*
X165490423Y-80681783D01*
X165493534Y-80689294D01*
X165490567Y-80690522D01*
X165503475Y-80743803D01*
X165480601Y-80809822D01*
X165425666Y-80852995D01*
X165356111Y-80859615D01*
X165294018Y-80827579D01*
X165291936Y-80825544D01*
X164581818Y-80115426D01*
X163686819Y-79220426D01*
X163653334Y-79159103D01*
X163650500Y-79132745D01*
X163650500Y-79070945D01*
X163650500Y-79070943D01*
X163609577Y-78918216D01*
X163602936Y-78906714D01*
X163530524Y-78781290D01*
X163530518Y-78781282D01*
X163418718Y-78669482D01*
X163418716Y-78669480D01*
X163418713Y-78669478D01*
X163418709Y-78669475D01*
X163391741Y-78653905D01*
X163343526Y-78603338D01*
X163330304Y-78534730D01*
X163333964Y-78514441D01*
X163350500Y-78452727D01*
X163350500Y-78347273D01*
X163350500Y-75262729D01*
X163350501Y-75262716D01*
X163350501Y-75147275D01*
X163350501Y-75147273D01*
X163323207Y-75045412D01*
X163299636Y-75004587D01*
X163270480Y-74954087D01*
X163126799Y-74810406D01*
X163093314Y-74749083D01*
X163098298Y-74679391D01*
X163107083Y-74660743D01*
X163129577Y-74621784D01*
X163170500Y-74469057D01*
X163170500Y-74310943D01*
X163129577Y-74158216D01*
X163129573Y-74158209D01*
X163050524Y-74021290D01*
X163050518Y-74021282D01*
X162938717Y-73909481D01*
X162938709Y-73909475D01*
X162801790Y-73830426D01*
X162801786Y-73830424D01*
X162801784Y-73830423D01*
X162649057Y-73789500D01*
X162490943Y-73789500D01*
X162338216Y-73830423D01*
X162338209Y-73830426D01*
X162201290Y-73909475D01*
X162201282Y-73909481D01*
X162089481Y-74021282D01*
X162089475Y-74021290D01*
X162010426Y-74158209D01*
X162010423Y-74158216D01*
X161969500Y-74310943D01*
X161969500Y-74325500D01*
X161949815Y-74392539D01*
X161897011Y-74438294D01*
X161845500Y-74449500D01*
X160703300Y-74449500D01*
X160636261Y-74429815D01*
X160590506Y-74377011D01*
X160583525Y-74357593D01*
X160574926Y-74325500D01*
X160559577Y-74268216D01*
X160496065Y-74158209D01*
X160480524Y-74131290D01*
X160480518Y-74131282D01*
X160368717Y-74019481D01*
X160368709Y-74019475D01*
X160231790Y-73940426D01*
X160231786Y-73940424D01*
X160231784Y-73940423D01*
X160079057Y-73899500D01*
X159920943Y-73899500D01*
X159768216Y-73940423D01*
X159768209Y-73940426D01*
X159631291Y-74019475D01*
X159625488Y-74023928D01*
X159560319Y-74049123D01*
X159491874Y-74035086D01*
X159474512Y-74023928D01*
X159468720Y-74019484D01*
X159468716Y-74019480D01*
X159468710Y-74019476D01*
X159468708Y-74019475D01*
X159331790Y-73940426D01*
X159331786Y-73940424D01*
X159331784Y-73940423D01*
X159179057Y-73899500D01*
X159020943Y-73899500D01*
X158868216Y-73940423D01*
X158868209Y-73940426D01*
X158731290Y-74019475D01*
X158731282Y-74019481D01*
X158619481Y-74131282D01*
X158619475Y-74131290D01*
X158540426Y-74268209D01*
X158540423Y-74268216D01*
X158499500Y-74420943D01*
X158499500Y-74579056D01*
X158519186Y-74652525D01*
X158517523Y-74722374D01*
X158478360Y-74780237D01*
X158414132Y-74807741D01*
X158367319Y-74804393D01*
X158349058Y-74799500D01*
X158349057Y-74799500D01*
X158190943Y-74799500D01*
X158038216Y-74840423D01*
X158038209Y-74840426D01*
X157901290Y-74919475D01*
X157901282Y-74919481D01*
X157789481Y-75031282D01*
X157789477Y-75031287D01*
X157728156Y-75137500D01*
X157677589Y-75185716D01*
X157620769Y-75199500D01*
X156582254Y-75199500D01*
X156515215Y-75179815D01*
X156494573Y-75163181D01*
X152855674Y-71524281D01*
X152822189Y-71462958D01*
X152825423Y-71398284D01*
X152872171Y-71254409D01*
X152900500Y-71075551D01*
X152900500Y-70894448D01*
X152884019Y-70790397D01*
X152872171Y-70715591D01*
X152816211Y-70543361D01*
X152816211Y-70543360D01*
X152787740Y-70487484D01*
X152733996Y-70382006D01*
X152661401Y-70282087D01*
X152627558Y-70235505D01*
X152627554Y-70235500D01*
X152499499Y-70107445D01*
X152499494Y-70107441D01*
X152352997Y-70001006D01*
X152352996Y-70001005D01*
X152352994Y-70001004D01*
X152301300Y-69974664D01*
X152191639Y-69918788D01*
X152191636Y-69918787D01*
X152019410Y-69862829D01*
X151859321Y-69837473D01*
X151796186Y-69807544D01*
X151759255Y-69748232D01*
X151760253Y-69678370D01*
X151798863Y-69620137D01*
X151859321Y-69592527D01*
X151929425Y-69581422D01*
X152019409Y-69567171D01*
X152191639Y-69511211D01*
X152352994Y-69428996D01*
X152499501Y-69322553D01*
X152627553Y-69194501D01*
X152733996Y-69047994D01*
X152816211Y-68886639D01*
X152872171Y-68714409D01*
X152891736Y-68590880D01*
X152900500Y-68535551D01*
X152900500Y-68354448D01*
X152884019Y-68250397D01*
X152872171Y-68175591D01*
X152816211Y-68003361D01*
X152816211Y-68003360D01*
X152787740Y-67947484D01*
X152733996Y-67842006D01*
X152661401Y-67742087D01*
X152627558Y-67695505D01*
X152627554Y-67695500D01*
X152499499Y-67567445D01*
X152499494Y-67567441D01*
X152352995Y-67461004D01*
X152221314Y-67393908D01*
X152170519Y-67345934D01*
X152153724Y-67278113D01*
X152176262Y-67211978D01*
X152230977Y-67168527D01*
X152239295Y-67165492D01*
X152268217Y-67156095D01*
X152457554Y-67059622D01*
X152511716Y-67020270D01*
X152511717Y-67020270D01*
X151879408Y-66387962D01*
X151942993Y-66370925D01*
X152057007Y-66305099D01*
X152150099Y-66212007D01*
X152215925Y-66097993D01*
X152232962Y-66034409D01*
X152865270Y-66666717D01*
X152865270Y-66666716D01*
X152904622Y-66612554D01*
X153001095Y-66423217D01*
X153066757Y-66221130D01*
X153066757Y-66221127D01*
X153100000Y-66011246D01*
X153100000Y-65798753D01*
X153066757Y-65588872D01*
X153066757Y-65588869D01*
X153001095Y-65386782D01*
X152904624Y-65197449D01*
X152865270Y-65143282D01*
X152865269Y-65143282D01*
X152232962Y-65775590D01*
X152215925Y-65712007D01*
X152150099Y-65597993D01*
X152057007Y-65504901D01*
X151942993Y-65439075D01*
X151879409Y-65422037D01*
X152511716Y-64789728D01*
X152457550Y-64750375D01*
X152268217Y-64653904D01*
X152239292Y-64644506D01*
X152181616Y-64605068D01*
X152154418Y-64540710D01*
X152166333Y-64471863D01*
X152213577Y-64420388D01*
X152221315Y-64416090D01*
X152352994Y-64348996D01*
X152499501Y-64242553D01*
X152627553Y-64114501D01*
X152733996Y-63967994D01*
X152816211Y-63806639D01*
X152872171Y-63634409D01*
X152886765Y-63542259D01*
X152900500Y-63455551D01*
X152900500Y-63274448D01*
X152884019Y-63170397D01*
X152872171Y-63095591D01*
X152816211Y-62923361D01*
X152816211Y-62923360D01*
X152787740Y-62867484D01*
X152733996Y-62762006D01*
X152661401Y-62662087D01*
X152627558Y-62615505D01*
X152627554Y-62615500D01*
X152499499Y-62487445D01*
X152499494Y-62487441D01*
X152352997Y-62381006D01*
X152352996Y-62381005D01*
X152352994Y-62381004D01*
X152301300Y-62354664D01*
X152191639Y-62298788D01*
X152191636Y-62298787D01*
X152019410Y-62242829D01*
X151859321Y-62217473D01*
X151796186Y-62187544D01*
X151759255Y-62128232D01*
X151760253Y-62058370D01*
X151798863Y-62000137D01*
X151859321Y-61972527D01*
X151929425Y-61961422D01*
X152019409Y-61947171D01*
X152191639Y-61891211D01*
X152352994Y-61808996D01*
X152499501Y-61702553D01*
X152627553Y-61574501D01*
X152733996Y-61427994D01*
X152816211Y-61266639D01*
X152872171Y-61094409D01*
X152886765Y-61002259D01*
X152900500Y-60915551D01*
X152900500Y-60734448D01*
X152884019Y-60630397D01*
X152872171Y-60555591D01*
X152816211Y-60383361D01*
X152816211Y-60383360D01*
X152787740Y-60327484D01*
X152733996Y-60222006D01*
X152661401Y-60122087D01*
X152627558Y-60075505D01*
X152627554Y-60075500D01*
X152499499Y-59947445D01*
X152499494Y-59947441D01*
X152352997Y-59841006D01*
X152352996Y-59841005D01*
X152352994Y-59841004D01*
X152301300Y-59814664D01*
X152191639Y-59758788D01*
X152191636Y-59758787D01*
X152019410Y-59702829D01*
X151859321Y-59677473D01*
X151796186Y-59647544D01*
X151759255Y-59588232D01*
X151760253Y-59518370D01*
X151798863Y-59460137D01*
X151859321Y-59432527D01*
X151929425Y-59421422D01*
X152019409Y-59407171D01*
X152191639Y-59351211D01*
X152352994Y-59268996D01*
X152499501Y-59162553D01*
X152627553Y-59034501D01*
X152733996Y-58887994D01*
X152816211Y-58726639D01*
X152872171Y-58554409D01*
X152886765Y-58462259D01*
X152900500Y-58375551D01*
X152900500Y-58194448D01*
X152884019Y-58090397D01*
X152872171Y-58015591D01*
X152816211Y-57843361D01*
X152816211Y-57843360D01*
X152787740Y-57787484D01*
X152733996Y-57682006D01*
X152661401Y-57582087D01*
X152627558Y-57535505D01*
X152627554Y-57535500D01*
X152499499Y-57407445D01*
X152499494Y-57407441D01*
X152352997Y-57301006D01*
X152352996Y-57301005D01*
X152352994Y-57301004D01*
X152301300Y-57274664D01*
X152191639Y-57218788D01*
X152191636Y-57218787D01*
X152019410Y-57162829D01*
X151859321Y-57137473D01*
X151796186Y-57107544D01*
X151759255Y-57048232D01*
X151760253Y-56978370D01*
X151798863Y-56920137D01*
X151859321Y-56892527D01*
X151929425Y-56881422D01*
X152019409Y-56867171D01*
X152191639Y-56811211D01*
X152352994Y-56728996D01*
X152499501Y-56622553D01*
X152627553Y-56494501D01*
X152733996Y-56347994D01*
X152816211Y-56186639D01*
X152872171Y-56014409D01*
X152886765Y-55922259D01*
X152900500Y-55835551D01*
X152900500Y-55654448D01*
X152884019Y-55550397D01*
X152872171Y-55475591D01*
X152816211Y-55303361D01*
X152816211Y-55303360D01*
X152787740Y-55247484D01*
X152733996Y-55142006D01*
X152661401Y-55042087D01*
X152627558Y-54995505D01*
X152627554Y-54995500D01*
X152499499Y-54867445D01*
X152499494Y-54867441D01*
X152352995Y-54761004D01*
X152221314Y-54693908D01*
X152170519Y-54645934D01*
X152153724Y-54578113D01*
X152176262Y-54511978D01*
X152230977Y-54468527D01*
X152239295Y-54465492D01*
X152268217Y-54456095D01*
X152457554Y-54359622D01*
X152511716Y-54320270D01*
X152511717Y-54320270D01*
X151879408Y-53687962D01*
X151942993Y-53670925D01*
X152057007Y-53605099D01*
X152150099Y-53512007D01*
X152215925Y-53397993D01*
X152232962Y-53334409D01*
X152865270Y-53966717D01*
X152865270Y-53966716D01*
X152904622Y-53912554D01*
X153001095Y-53723217D01*
X153066757Y-53521130D01*
X153066757Y-53521127D01*
X153100000Y-53311246D01*
X153100000Y-53098753D01*
X153066757Y-52888872D01*
X153066757Y-52888869D01*
X153001095Y-52686782D01*
X152904624Y-52497449D01*
X152865270Y-52443282D01*
X152865269Y-52443282D01*
X152232962Y-53075590D01*
X152215925Y-53012007D01*
X152150099Y-52897993D01*
X152057007Y-52804901D01*
X151942993Y-52739075D01*
X151879409Y-52722037D01*
X152511716Y-52089729D01*
X152511716Y-52089728D01*
X152457550Y-52050375D01*
X152268217Y-51953904D01*
X152239292Y-51944506D01*
X152181616Y-51905068D01*
X152154418Y-51840710D01*
X152166333Y-51771863D01*
X152213577Y-51720388D01*
X152221315Y-51716090D01*
X152352994Y-51648996D01*
X152499501Y-51542553D01*
X152627553Y-51414501D01*
X152733996Y-51267994D01*
X152816211Y-51106639D01*
X152819885Y-51095331D01*
X152839024Y-51036428D01*
X155375000Y-51036428D01*
X155375000Y-51630000D01*
X156025000Y-51630000D01*
X156025000Y-52130000D01*
X155375000Y-52130000D01*
X155375000Y-52723571D01*
X155411506Y-52907097D01*
X155411508Y-52907105D01*
X155483119Y-53079991D01*
X155483124Y-53080000D01*
X155587086Y-53235589D01*
X155587089Y-53235593D01*
X155719406Y-53367910D01*
X155719410Y-53367913D01*
X155874999Y-53471875D01*
X155875012Y-53471882D01*
X156047889Y-53543489D01*
X156047896Y-53543491D01*
X156075000Y-53548882D01*
X156075000Y-52796988D01*
X156084940Y-52814205D01*
X156140795Y-52870060D01*
X156209204Y-52909556D01*
X156285504Y-52930000D01*
X156364496Y-52930000D01*
X156440796Y-52909556D01*
X156509205Y-52870060D01*
X156565060Y-52814205D01*
X156575000Y-52796988D01*
X156575000Y-53548881D01*
X156602103Y-53543491D01*
X156602110Y-53543489D01*
X156774989Y-53471881D01*
X156774990Y-53471880D01*
X156850497Y-53421428D01*
X156856033Y-53365218D01*
X156882193Y-53300430D01*
X156891755Y-53289690D01*
X157321445Y-52859999D01*
X156892939Y-52431493D01*
X156859454Y-52370170D01*
X156864438Y-52300478D01*
X156892939Y-52256131D01*
X156964070Y-52185000D01*
X156892938Y-52113868D01*
X156859454Y-52052545D01*
X156864438Y-51982853D01*
X156892939Y-51938506D01*
X157410542Y-51420904D01*
X157471865Y-51387419D01*
X157511876Y-51390280D01*
X157505448Y-51396709D01*
X157475000Y-51470218D01*
X157475000Y-51549782D01*
X157505448Y-51623291D01*
X157561709Y-51679552D01*
X157635218Y-51710000D01*
X157714782Y-51710000D01*
X157788291Y-51679552D01*
X157844552Y-51623291D01*
X157869441Y-51563201D01*
X157873454Y-51571237D01*
X157874972Y-51576445D01*
X157899499Y-51699744D01*
X157938100Y-51792934D01*
X157939994Y-51799430D01*
X157939941Y-51827875D01*
X157942982Y-51856159D01*
X157939876Y-51862362D01*
X157939864Y-51869299D01*
X157924440Y-51893199D01*
X157911707Y-51918638D01*
X157905740Y-51922178D01*
X157901979Y-51928007D01*
X157876080Y-51939776D01*
X157851618Y-51954290D01*
X157844685Y-51954042D01*
X157838369Y-51956913D01*
X157810214Y-51952811D01*
X157781793Y-51951796D01*
X157775171Y-51947705D01*
X157769230Y-51946840D01*
X157758104Y-51937162D01*
X157733271Y-51921823D01*
X157675001Y-51863553D01*
X157675000Y-51863553D01*
X157353553Y-52185000D01*
X157674999Y-52506445D01*
X157733270Y-52448175D01*
X157794593Y-52414690D01*
X157864285Y-52419674D01*
X157920219Y-52461545D01*
X157944636Y-52527009D01*
X157935513Y-52583308D01*
X157899500Y-52670251D01*
X157899497Y-52670261D01*
X157874500Y-52795928D01*
X157874500Y-52795931D01*
X157874500Y-52819010D01*
X157844552Y-52746709D01*
X157788291Y-52690448D01*
X157714782Y-52660000D01*
X157635218Y-52660000D01*
X157561709Y-52690448D01*
X157505448Y-52746709D01*
X157475000Y-52820218D01*
X157475000Y-52899782D01*
X157505448Y-52973291D01*
X157561709Y-53029552D01*
X157635218Y-53060000D01*
X157714782Y-53060000D01*
X157788291Y-53029552D01*
X157844552Y-52973291D01*
X157874500Y-52900989D01*
X157874500Y-52924069D01*
X157874500Y-52924071D01*
X157874499Y-52924071D01*
X157899497Y-53049738D01*
X157899500Y-53049748D01*
X157935512Y-53136690D01*
X157942981Y-53206160D01*
X157911705Y-53268639D01*
X157851616Y-53304291D01*
X157781791Y-53301796D01*
X157733269Y-53271823D01*
X157675000Y-53213553D01*
X157274437Y-53614114D01*
X157427063Y-53677334D01*
X157427071Y-53677336D01*
X157591277Y-53709999D01*
X157591280Y-53710000D01*
X157758720Y-53710000D01*
X157758722Y-53709999D01*
X157922928Y-53677336D01*
X157922936Y-53677334D01*
X158075561Y-53614114D01*
X158080120Y-53591193D01*
X158079690Y-53590405D01*
X158084674Y-53520713D01*
X158126546Y-53464780D01*
X158192010Y-53440363D01*
X158248307Y-53449485D01*
X158335256Y-53485501D01*
X158335260Y-53485501D01*
X158335261Y-53485502D01*
X158460928Y-53510500D01*
X158460931Y-53510500D01*
X158589071Y-53510500D01*
X158674828Y-53493441D01*
X158714744Y-53485501D01*
X158833127Y-53436465D01*
X158833133Y-53436461D01*
X158881109Y-53404405D01*
X158947787Y-53383527D01*
X159015167Y-53402011D01*
X159018891Y-53404405D01*
X159066866Y-53436461D01*
X159066875Y-53436466D01*
X159080279Y-53442018D01*
X159185256Y-53485501D01*
X159185260Y-53485501D01*
X159185261Y-53485502D01*
X159310928Y-53510500D01*
X159310931Y-53510500D01*
X159439071Y-53510500D01*
X159524828Y-53493441D01*
X159564744Y-53485501D01*
X159603048Y-53469634D01*
X159672516Y-53462166D01*
X159734996Y-53493441D01*
X159770648Y-53553530D01*
X159774500Y-53584196D01*
X159774500Y-65884308D01*
X159798712Y-65974672D01*
X159805200Y-65998885D01*
X159805200Y-65998886D01*
X159830267Y-66042303D01*
X159864511Y-66101614D01*
X162263766Y-68500870D01*
X162366493Y-68560179D01*
X162390701Y-68566664D01*
X162390704Y-68566666D01*
X162390705Y-68566666D01*
X162420827Y-68574737D01*
X162481071Y-68590880D01*
X162924083Y-68590880D01*
X162991122Y-68610565D01*
X163019892Y-68636161D01*
X163026368Y-68644043D01*
X163069480Y-68718716D01*
X163171737Y-68820973D01*
X163175579Y-68825649D01*
X163186979Y-68852451D01*
X163200936Y-68878010D01*
X163200772Y-68884876D01*
X163202928Y-68889944D01*
X163200283Y-68905443D01*
X163199545Y-68936461D01*
X163198303Y-68941095D01*
X163198303Y-68941096D01*
X163157380Y-69093823D01*
X163157380Y-69251937D01*
X163176302Y-69322553D01*
X163198303Y-69404663D01*
X163198306Y-69404670D01*
X163277355Y-69541589D01*
X163277359Y-69541594D01*
X163277360Y-69541596D01*
X163389164Y-69653400D01*
X163389166Y-69653401D01*
X163389170Y-69653404D01*
X163438299Y-69681768D01*
X163526096Y-69732457D01*
X163678823Y-69773380D01*
X163678825Y-69773380D01*
X163836935Y-69773380D01*
X163836937Y-69773380D01*
X163989664Y-69732457D01*
X164126596Y-69653400D01*
X164238400Y-69541596D01*
X164317457Y-69404664D01*
X164358380Y-69251937D01*
X164358380Y-69251924D01*
X164359321Y-69244781D01*
X164387587Y-69180883D01*
X164394555Y-69173307D01*
X164650870Y-68916994D01*
X164710179Y-68814267D01*
X164727265Y-68750500D01*
X164740880Y-68699689D01*
X164740880Y-68081071D01*
X164710179Y-67966494D01*
X164710179Y-67966493D01*
X164710179Y-67966492D01*
X164650872Y-67863769D01*
X164650868Y-67863764D01*
X163807373Y-67020269D01*
X162026614Y-65239511D01*
X162026611Y-65239509D01*
X162020165Y-65234563D01*
X162020211Y-65234502D01*
X162001438Y-65220096D01*
X161561819Y-64780477D01*
X161528334Y-64719154D01*
X161525500Y-64692796D01*
X161525500Y-53584196D01*
X161545185Y-53517157D01*
X161597989Y-53471402D01*
X161667147Y-53461458D01*
X161696950Y-53469634D01*
X161735256Y-53485501D01*
X161735260Y-53485501D01*
X161735261Y-53485502D01*
X161860928Y-53510500D01*
X161860931Y-53510500D01*
X161989071Y-53510500D01*
X162074828Y-53493441D01*
X162114744Y-53485501D01*
X162233127Y-53436465D01*
X162233133Y-53436461D01*
X162281109Y-53404405D01*
X162347787Y-53383527D01*
X162415167Y-53402011D01*
X162418891Y-53404405D01*
X162466866Y-53436461D01*
X162466875Y-53436466D01*
X162480279Y-53442018D01*
X162585256Y-53485501D01*
X162585260Y-53485501D01*
X162585261Y-53485502D01*
X162710928Y-53510500D01*
X162710931Y-53510500D01*
X162839071Y-53510500D01*
X162924828Y-53493441D01*
X162964744Y-53485501D01*
X163051689Y-53449486D01*
X163121157Y-53442018D01*
X163183636Y-53473293D01*
X163219289Y-53533382D01*
X163217628Y-53579884D01*
X163224437Y-53614114D01*
X163377063Y-53677334D01*
X163377071Y-53677336D01*
X163541277Y-53709999D01*
X163541280Y-53710000D01*
X163708720Y-53710000D01*
X163708722Y-53709999D01*
X163872928Y-53677336D01*
X163872936Y-53677334D01*
X164025561Y-53614114D01*
X163625001Y-53213553D01*
X163566728Y-53271825D01*
X163505404Y-53305309D01*
X163435713Y-53300325D01*
X163379779Y-53258453D01*
X163355363Y-53192988D01*
X163364485Y-53136692D01*
X163400501Y-53049744D01*
X163415709Y-52973291D01*
X163425500Y-52924071D01*
X163425500Y-52900989D01*
X163455448Y-52973291D01*
X163511709Y-53029552D01*
X163585218Y-53060000D01*
X163664782Y-53060000D01*
X163738291Y-53029552D01*
X163794552Y-52973291D01*
X163825000Y-52899782D01*
X163825000Y-52820218D01*
X163794552Y-52746709D01*
X163738291Y-52690448D01*
X163664782Y-52660000D01*
X163585218Y-52660000D01*
X163511709Y-52690448D01*
X163455448Y-52746709D01*
X163425500Y-52819010D01*
X163425500Y-52795928D01*
X163400502Y-52670261D01*
X163400501Y-52670260D01*
X163400501Y-52670256D01*
X163364486Y-52583308D01*
X163364486Y-52583307D01*
X163357017Y-52513838D01*
X163388292Y-52451359D01*
X163448381Y-52415707D01*
X163518206Y-52418201D01*
X163566728Y-52448174D01*
X163625000Y-52506446D01*
X163625001Y-52506446D01*
X163946446Y-52185001D01*
X163946446Y-52184999D01*
X163625001Y-51863553D01*
X163566728Y-51921825D01*
X163562822Y-51923957D01*
X163560425Y-51927704D01*
X163532429Y-51940552D01*
X163505404Y-51955309D01*
X163500968Y-51954991D01*
X163496924Y-51956848D01*
X163466428Y-51952521D01*
X163435713Y-51950325D01*
X163432151Y-51947658D01*
X163427747Y-51947034D01*
X163404434Y-51926909D01*
X163379779Y-51908453D01*
X163378224Y-51904284D01*
X163374857Y-51901378D01*
X163366124Y-51871841D01*
X163355363Y-51842988D01*
X163355953Y-51837442D01*
X163355047Y-51834375D01*
X163357720Y-51820870D01*
X163360005Y-51799431D01*
X163361897Y-51792940D01*
X163400501Y-51699744D01*
X163425029Y-51576434D01*
X163426545Y-51571237D01*
X163431002Y-51564272D01*
X163455448Y-51623291D01*
X163511709Y-51679552D01*
X163585218Y-51710000D01*
X163664782Y-51710000D01*
X163738291Y-51679552D01*
X163794552Y-51623291D01*
X163825000Y-51549782D01*
X163825000Y-51470218D01*
X163794552Y-51396709D01*
X163786020Y-51388177D01*
X163845109Y-51392403D01*
X163889457Y-51420904D01*
X164407060Y-51938506D01*
X164440545Y-51999829D01*
X164435561Y-52069520D01*
X164407061Y-52113868D01*
X164335929Y-52185000D01*
X164407060Y-52256131D01*
X164440545Y-52317454D01*
X164435561Y-52387146D01*
X164407060Y-52431493D01*
X163978553Y-52860000D01*
X164408243Y-53289690D01*
X164441728Y-53351013D01*
X164443965Y-53365217D01*
X164449501Y-53421427D01*
X164525005Y-53471878D01*
X164525012Y-53471882D01*
X164697889Y-53543489D01*
X164697896Y-53543491D01*
X164725000Y-53548882D01*
X164725000Y-52796988D01*
X164734940Y-52814205D01*
X164790795Y-52870060D01*
X164859204Y-52909556D01*
X164935504Y-52930000D01*
X165014496Y-52930000D01*
X165090796Y-52909556D01*
X165159205Y-52870060D01*
X165215060Y-52814205D01*
X165225000Y-52796988D01*
X165225000Y-53548881D01*
X165252103Y-53543491D01*
X165252110Y-53543489D01*
X165424987Y-53471882D01*
X165425000Y-53471875D01*
X165580589Y-53367913D01*
X165580593Y-53367910D01*
X165712910Y-53235593D01*
X165712913Y-53235589D01*
X165816875Y-53080000D01*
X165816878Y-53079994D01*
X165830783Y-53046427D01*
X165830784Y-53046424D01*
X165888490Y-52907109D01*
X165888493Y-52907097D01*
X165924999Y-52723571D01*
X165925000Y-52723569D01*
X165925000Y-52130000D01*
X165275000Y-52130000D01*
X165275000Y-51630000D01*
X165925000Y-51630000D01*
X165925000Y-51036430D01*
X165924999Y-51036428D01*
X165888493Y-50852902D01*
X165888491Y-50852894D01*
X165816880Y-50680008D01*
X165816875Y-50679999D01*
X165712913Y-50524410D01*
X165712910Y-50524406D01*
X165580593Y-50392089D01*
X165580589Y-50392086D01*
X165425000Y-50288124D01*
X165424991Y-50288119D01*
X165252103Y-50216507D01*
X165252100Y-50216506D01*
X165225000Y-50211115D01*
X165225000Y-50963011D01*
X165215060Y-50945795D01*
X165159205Y-50889940D01*
X165090796Y-50850444D01*
X165014496Y-50830000D01*
X164935504Y-50830000D01*
X164859204Y-50850444D01*
X164790795Y-50889940D01*
X164734940Y-50945795D01*
X164725000Y-50963011D01*
X164725000Y-50211116D01*
X164724999Y-50211115D01*
X164697899Y-50216506D01*
X164697896Y-50216507D01*
X164525008Y-50288119D01*
X164524999Y-50288124D01*
X164369410Y-50392086D01*
X164369406Y-50392089D01*
X164237089Y-50524406D01*
X164237086Y-50524410D01*
X164129736Y-50685071D01*
X164128636Y-50684336D01*
X164084427Y-50729337D01*
X164016288Y-50744794D01*
X163976586Y-50735597D01*
X163872940Y-50692666D01*
X163872928Y-50692663D01*
X163708721Y-50660000D01*
X163541279Y-50660000D01*
X163377071Y-50692663D01*
X163377063Y-50692665D01*
X163250444Y-50745113D01*
X163180974Y-50752582D01*
X163118495Y-50721307D01*
X163115310Y-50718233D01*
X162736590Y-50339513D01*
X162736588Y-50339511D01*
X162685224Y-50309856D01*
X162633862Y-50280201D01*
X162621754Y-50276957D01*
X162609647Y-50273713D01*
X162609644Y-50273712D01*
X162571452Y-50263478D01*
X162519283Y-50249500D01*
X158840691Y-50249500D01*
X158750325Y-50273713D01*
X158750324Y-50273712D01*
X158726116Y-50280199D01*
X158726113Y-50280200D01*
X158623386Y-50339511D01*
X158623383Y-50339513D01*
X158226414Y-50736481D01*
X158165091Y-50769966D01*
X158095399Y-50764982D01*
X158080280Y-50758158D01*
X158077629Y-50756741D01*
X157922936Y-50692665D01*
X157922928Y-50692663D01*
X157758721Y-50660000D01*
X157591279Y-50660000D01*
X157427071Y-50692663D01*
X157427059Y-50692666D01*
X157323413Y-50735598D01*
X157253944Y-50743067D01*
X157191465Y-50711792D01*
X157170685Y-50684789D01*
X157170264Y-50685071D01*
X157062913Y-50524410D01*
X157062910Y-50524406D01*
X156930593Y-50392089D01*
X156930589Y-50392086D01*
X156775000Y-50288124D01*
X156774991Y-50288119D01*
X156602103Y-50216507D01*
X156602100Y-50216506D01*
X156575000Y-50211115D01*
X156575000Y-50963011D01*
X156565060Y-50945795D01*
X156509205Y-50889940D01*
X156440796Y-50850444D01*
X156364496Y-50830000D01*
X156285504Y-50830000D01*
X156209204Y-50850444D01*
X156140795Y-50889940D01*
X156084940Y-50945795D01*
X156075000Y-50963011D01*
X156075000Y-50211116D01*
X156074999Y-50211115D01*
X156047899Y-50216506D01*
X156047896Y-50216507D01*
X155875008Y-50288119D01*
X155874999Y-50288124D01*
X155719410Y-50392086D01*
X155719406Y-50392089D01*
X155587089Y-50524406D01*
X155587086Y-50524410D01*
X155483124Y-50679999D01*
X155483119Y-50680008D01*
X155411508Y-50852894D01*
X155411506Y-50852902D01*
X155375000Y-51036428D01*
X152839024Y-51036428D01*
X152853452Y-50992023D01*
X152853452Y-50992022D01*
X152872170Y-50934412D01*
X152872169Y-50934412D01*
X152872171Y-50934409D01*
X152886943Y-50841140D01*
X152900500Y-50755551D01*
X152900500Y-50574448D01*
X152884019Y-50470397D01*
X152872171Y-50395591D01*
X152844191Y-50309476D01*
X152816212Y-50223363D01*
X152816211Y-50223360D01*
X152787740Y-50167484D01*
X152733996Y-50062006D01*
X152661401Y-49962087D01*
X152627558Y-49915505D01*
X152627554Y-49915500D01*
X152499499Y-49787445D01*
X152499494Y-49787441D01*
X152352997Y-49681006D01*
X152352996Y-49681005D01*
X152352994Y-49681004D01*
X152268418Y-49637910D01*
X152191639Y-49598788D01*
X152191636Y-49598787D01*
X152019410Y-49542829D01*
X151887728Y-49521972D01*
X151824594Y-49492042D01*
X151787663Y-49432731D01*
X151788661Y-49362868D01*
X151827271Y-49304636D01*
X151891235Y-49276522D01*
X151907120Y-49275499D01*
X152644864Y-49275499D01*
X152644879Y-49275497D01*
X152644882Y-49275497D01*
X152669987Y-49272586D01*
X152669988Y-49272585D01*
X152669991Y-49272585D01*
X152772765Y-49227206D01*
X152852206Y-49147765D01*
X152897585Y-49044991D01*
X152900500Y-49019865D01*
X152900499Y-48060504D01*
X152900499Y-47374500D01*
X152920184Y-47307461D01*
X152972987Y-47261706D01*
X153024499Y-47250500D01*
X155531634Y-47250500D01*
X155598673Y-47270185D01*
G37*
%TD.AperFunction*%
%TA.AperFunction,Conductor*%
G36*
X170613181Y-79314627D02*
G01*
X170646666Y-79375950D01*
X170649500Y-79402308D01*
X170649500Y-80319349D01*
X170629815Y-80386388D01*
X170577011Y-80432143D01*
X170507853Y-80442087D01*
X170444297Y-80413062D01*
X170431206Y-80398800D01*
X170430725Y-80399212D01*
X170427554Y-80395500D01*
X170299499Y-80267445D01*
X170299494Y-80267441D01*
X170152995Y-80161004D01*
X170021314Y-80093908D01*
X169970519Y-80045934D01*
X169953724Y-79978113D01*
X169976262Y-79911978D01*
X170030977Y-79868527D01*
X170039295Y-79865492D01*
X170068217Y-79856095D01*
X170257554Y-79759622D01*
X170311716Y-79720270D01*
X170311717Y-79720270D01*
X169679408Y-79087962D01*
X169742993Y-79070925D01*
X169857007Y-79005099D01*
X169950099Y-78912007D01*
X170015925Y-78797993D01*
X170032962Y-78734408D01*
X170613181Y-79314627D01*
G37*
%TD.AperFunction*%
%TA.AperFunction,Conductor*%
G36*
X151284075Y-78797993D02*
G01*
X151349901Y-78912007D01*
X151442993Y-79005099D01*
X151557007Y-79070925D01*
X151620590Y-79087962D01*
X150988282Y-79720269D01*
X150988282Y-79720270D01*
X151042449Y-79759624D01*
X151231780Y-79856094D01*
X151260705Y-79865492D01*
X151318381Y-79904929D01*
X151345580Y-79969287D01*
X151333667Y-80038134D01*
X151286424Y-80089610D01*
X151278685Y-80093908D01*
X151147004Y-80161004D01*
X151000505Y-80267441D01*
X151000500Y-80267445D01*
X150872445Y-80395500D01*
X150869275Y-80399212D01*
X150867614Y-80397793D01*
X150819474Y-80434906D01*
X150749859Y-80440876D01*
X150688069Y-80408262D01*
X150653719Y-80347419D01*
X150650500Y-80319349D01*
X150650500Y-79402308D01*
X150670185Y-79335269D01*
X150686819Y-79314627D01*
X151267037Y-78734408D01*
X151284075Y-78797993D01*
G37*
%TD.AperFunction*%
%TA.AperFunction,Conductor*%
G36*
X150855703Y-76796937D02*
G01*
X150868788Y-76811203D01*
X150869275Y-76810788D01*
X150872445Y-76814499D01*
X151000500Y-76942554D01*
X151000505Y-76942558D01*
X151108353Y-77020913D01*
X151147006Y-77048996D01*
X151248780Y-77100853D01*
X151278684Y-77116090D01*
X151329480Y-77164065D01*
X151346275Y-77231886D01*
X151323737Y-77298021D01*
X151269022Y-77341472D01*
X151260708Y-77344506D01*
X151231781Y-77353905D01*
X151042439Y-77450380D01*
X150988282Y-77489727D01*
X150988282Y-77489728D01*
X151620591Y-78122037D01*
X151557007Y-78139075D01*
X151442993Y-78204901D01*
X151349901Y-78297993D01*
X151284075Y-78412007D01*
X151267037Y-78475591D01*
X150686819Y-77895373D01*
X150653334Y-77834050D01*
X150650500Y-77807692D01*
X150650500Y-76890650D01*
X150670185Y-76823611D01*
X150722989Y-76777856D01*
X150792147Y-76767912D01*
X150855703Y-76796937D01*
G37*
%TD.AperFunction*%
%TA.AperFunction,Conductor*%
G36*
X170611869Y-76801676D02*
G01*
X170646261Y-76862495D01*
X170649500Y-76890650D01*
X170649500Y-77807692D01*
X170629815Y-77874731D01*
X170613181Y-77895373D01*
X170032962Y-78475591D01*
X170015925Y-78412007D01*
X169950099Y-78297993D01*
X169857007Y-78204901D01*
X169742993Y-78139075D01*
X169679409Y-78122037D01*
X170311716Y-77489728D01*
X170257550Y-77450375D01*
X170068217Y-77353904D01*
X170039292Y-77344506D01*
X169981616Y-77305068D01*
X169954418Y-77240710D01*
X169966333Y-77171863D01*
X170013577Y-77120388D01*
X170021315Y-77116090D01*
X170152994Y-77048996D01*
X170299501Y-76942553D01*
X170427553Y-76814501D01*
X170427558Y-76814494D01*
X170430725Y-76810788D01*
X170432398Y-76812217D01*
X170480445Y-76775125D01*
X170550055Y-76769106D01*
X170611869Y-76801676D01*
G37*
%TD.AperFunction*%
%TA.AperFunction,Conductor*%
G36*
X170613181Y-66614627D02*
G01*
X170646666Y-66675950D01*
X170649500Y-66702308D01*
X170649500Y-67619349D01*
X170629815Y-67686388D01*
X170577011Y-67732143D01*
X170507853Y-67742087D01*
X170444297Y-67713062D01*
X170431206Y-67698800D01*
X170430725Y-67699212D01*
X170427554Y-67695500D01*
X170299499Y-67567445D01*
X170299494Y-67567441D01*
X170152995Y-67461004D01*
X170021314Y-67393908D01*
X169970519Y-67345934D01*
X169953724Y-67278113D01*
X169976262Y-67211978D01*
X170030977Y-67168527D01*
X170039295Y-67165492D01*
X170068217Y-67156095D01*
X170257554Y-67059622D01*
X170311716Y-67020270D01*
X170311717Y-67020270D01*
X169679408Y-66387962D01*
X169742993Y-66370925D01*
X169857007Y-66305099D01*
X169950099Y-66212007D01*
X170015925Y-66097993D01*
X170032962Y-66034408D01*
X170613181Y-66614627D01*
G37*
%TD.AperFunction*%
%TA.AperFunction,Conductor*%
G36*
X151284075Y-66097993D02*
G01*
X151349901Y-66212007D01*
X151442993Y-66305099D01*
X151557007Y-66370925D01*
X151620590Y-66387962D01*
X150988282Y-67020269D01*
X150988282Y-67020270D01*
X151042449Y-67059624D01*
X151231780Y-67156094D01*
X151260705Y-67165492D01*
X151318381Y-67204929D01*
X151345580Y-67269287D01*
X151333667Y-67338134D01*
X151286424Y-67389610D01*
X151278685Y-67393908D01*
X151147004Y-67461004D01*
X151000505Y-67567441D01*
X151000500Y-67567445D01*
X150872445Y-67695500D01*
X150869275Y-67699212D01*
X150867614Y-67697793D01*
X150819474Y-67734906D01*
X150749859Y-67740876D01*
X150688069Y-67708262D01*
X150653719Y-67647419D01*
X150650500Y-67619349D01*
X150650500Y-66702308D01*
X150670185Y-66635269D01*
X150686819Y-66614627D01*
X151267037Y-66034408D01*
X151284075Y-66097993D01*
G37*
%TD.AperFunction*%
%TA.AperFunction,Conductor*%
G36*
X150855703Y-64096937D02*
G01*
X150868788Y-64111203D01*
X150869275Y-64110788D01*
X150872445Y-64114499D01*
X151000500Y-64242554D01*
X151000505Y-64242558D01*
X151128287Y-64335396D01*
X151147006Y-64348996D01*
X151248780Y-64400853D01*
X151278684Y-64416090D01*
X151329480Y-64464065D01*
X151346275Y-64531886D01*
X151323737Y-64598021D01*
X151269022Y-64641472D01*
X151260708Y-64644506D01*
X151231781Y-64653905D01*
X151042439Y-64750380D01*
X150988282Y-64789727D01*
X150988282Y-64789728D01*
X151620591Y-65422037D01*
X151557007Y-65439075D01*
X151442993Y-65504901D01*
X151349901Y-65597993D01*
X151284075Y-65712007D01*
X151267037Y-65775591D01*
X150686819Y-65195373D01*
X150653334Y-65134050D01*
X150650500Y-65107692D01*
X150650500Y-64190650D01*
X150670185Y-64123611D01*
X150722989Y-64077856D01*
X150792147Y-64067912D01*
X150855703Y-64096937D01*
G37*
%TD.AperFunction*%
%TA.AperFunction,Conductor*%
G36*
X170611869Y-64101676D02*
G01*
X170646261Y-64162495D01*
X170649500Y-64190650D01*
X170649500Y-65107692D01*
X170629815Y-65174731D01*
X170613181Y-65195373D01*
X170032962Y-65775591D01*
X170015925Y-65712007D01*
X169950099Y-65597993D01*
X169857007Y-65504901D01*
X169742993Y-65439075D01*
X169679409Y-65422037D01*
X170311716Y-64789728D01*
X170257550Y-64750375D01*
X170068217Y-64653904D01*
X170039292Y-64644506D01*
X169981616Y-64605068D01*
X169954418Y-64540710D01*
X169966333Y-64471863D01*
X170013577Y-64420388D01*
X170021315Y-64416090D01*
X170152994Y-64348996D01*
X170299501Y-64242553D01*
X170427553Y-64114501D01*
X170427558Y-64114494D01*
X170430725Y-64110788D01*
X170432398Y-64112217D01*
X170480445Y-64075125D01*
X170550055Y-64069106D01*
X170611869Y-64101676D01*
G37*
%TD.AperFunction*%
%TA.AperFunction,Conductor*%
G36*
X170613181Y-53914627D02*
G01*
X170646666Y-53975950D01*
X170649500Y-54002308D01*
X170649500Y-54919349D01*
X170629815Y-54986388D01*
X170577011Y-55032143D01*
X170507853Y-55042087D01*
X170444297Y-55013062D01*
X170431206Y-54998800D01*
X170430725Y-54999212D01*
X170427554Y-54995500D01*
X170299499Y-54867445D01*
X170299494Y-54867441D01*
X170152995Y-54761004D01*
X170021314Y-54693908D01*
X169970519Y-54645934D01*
X169953724Y-54578113D01*
X169976262Y-54511978D01*
X170030977Y-54468527D01*
X170039295Y-54465492D01*
X170068217Y-54456095D01*
X170257554Y-54359622D01*
X170311716Y-54320270D01*
X170311717Y-54320270D01*
X169679408Y-53687962D01*
X169742993Y-53670925D01*
X169857007Y-53605099D01*
X169950099Y-53512007D01*
X170015925Y-53397993D01*
X170032962Y-53334408D01*
X170613181Y-53914627D01*
G37*
%TD.AperFunction*%
%TA.AperFunction,Conductor*%
G36*
X151284075Y-53397993D02*
G01*
X151349901Y-53512007D01*
X151442993Y-53605099D01*
X151557007Y-53670925D01*
X151620590Y-53687962D01*
X150988282Y-54320269D01*
X150988282Y-54320270D01*
X151042449Y-54359624D01*
X151231780Y-54456094D01*
X151260705Y-54465492D01*
X151318381Y-54504929D01*
X151345580Y-54569287D01*
X151333667Y-54638134D01*
X151286424Y-54689610D01*
X151278685Y-54693908D01*
X151147004Y-54761004D01*
X151000505Y-54867441D01*
X151000500Y-54867445D01*
X150872445Y-54995500D01*
X150869275Y-54999212D01*
X150867614Y-54997793D01*
X150819474Y-55034906D01*
X150749859Y-55040876D01*
X150688069Y-55008262D01*
X150653719Y-54947419D01*
X150650500Y-54919349D01*
X150650500Y-54002308D01*
X150670185Y-53935269D01*
X150686819Y-53914627D01*
X151267037Y-53334408D01*
X151284075Y-53397993D01*
G37*
%TD.AperFunction*%
%TA.AperFunction,Conductor*%
G36*
X150855703Y-51396937D02*
G01*
X150868788Y-51411203D01*
X150869275Y-51410788D01*
X150872445Y-51414499D01*
X151000500Y-51542554D01*
X151000505Y-51542558D01*
X151039979Y-51571237D01*
X151147006Y-51648996D01*
X151246604Y-51699744D01*
X151278684Y-51716090D01*
X151329480Y-51764065D01*
X151346275Y-51831886D01*
X151323737Y-51898021D01*
X151269022Y-51941472D01*
X151260708Y-51944506D01*
X151231781Y-51953905D01*
X151042439Y-52050380D01*
X150988282Y-52089727D01*
X150988282Y-52089728D01*
X151620591Y-52722037D01*
X151557007Y-52739075D01*
X151442993Y-52804901D01*
X151349901Y-52897993D01*
X151284075Y-53012007D01*
X151267037Y-53075591D01*
X150686819Y-52495373D01*
X150653334Y-52434050D01*
X150650500Y-52407692D01*
X150650500Y-51490650D01*
X150670185Y-51423611D01*
X150722989Y-51377856D01*
X150792147Y-51367912D01*
X150855703Y-51396937D01*
G37*
%TD.AperFunction*%
%TA.AperFunction,Conductor*%
G36*
X170611869Y-51401676D02*
G01*
X170646261Y-51462495D01*
X170649500Y-51490650D01*
X170649500Y-52407692D01*
X170629815Y-52474731D01*
X170613181Y-52495373D01*
X170032962Y-53075591D01*
X170015925Y-53012007D01*
X169950099Y-52897993D01*
X169857007Y-52804901D01*
X169742993Y-52739075D01*
X169679409Y-52722037D01*
X170311716Y-52089728D01*
X170257550Y-52050375D01*
X170068217Y-51953904D01*
X170039292Y-51944506D01*
X169981616Y-51905068D01*
X169954418Y-51840710D01*
X169966333Y-51771863D01*
X170013577Y-51720388D01*
X170021315Y-51716090D01*
X170152994Y-51648996D01*
X170299501Y-51542553D01*
X170427553Y-51414501D01*
X170427558Y-51414494D01*
X170430725Y-51410788D01*
X170432398Y-51412217D01*
X170480445Y-51375125D01*
X170550055Y-51369106D01*
X170611869Y-51401676D01*
G37*
%TD.AperFunction*%
%TD*%
M02*
