%TF.GenerationSoftware,KiCad,Pcbnew,10.0.5-10.0.5~ubuntu24.04.1*%
%TF.CreationDate,2026-08-26T19:31:41+02:00*%
%TF.ProjectId,samot2040_devboard,73616d6f-7432-4303-9430-5f646576626f,rev?*%
%TF.SameCoordinates,Original*%
%TF.FileFunction,Paste,Top*%
%TF.FilePolarity,Positive*%
%FSLAX46Y46*%
G04 Gerber Fmt 4.6, Leading zero omitted, Abs format (unit mm)*
G04 Created by KiCad (PCBNEW 10.0.5-10.0.5~ubuntu24.04.1) date 2026-08-26 19:31:41*
%MOMM*%
%LPD*%
G01*
G04 APERTURE LIST*
G04 Aperture macros list*
%AMRoundRect*
0 Rectangle with rounded corners*
0 $1 Rounding radius*
0 $2 $3 $4 $5 $6 $7 $8 $9 X,Y pos of 4 corners*
0 Add a 4 corners polygon primitive as box body*
4,1,4,$2,$3,$4,$5,$6,$7,$8,$9,$2,$3,0*
0 Add four circle primitives for the rounded corners*
1,1,$1+$1,$2,$3*
1,1,$1+$1,$4,$5*
1,1,$1+$1,$6,$7*
1,1,$1+$1,$8,$9*
0 Add four rect primitives between the rounded corners*
20,1,$1+$1,$2,$3,$4,$5,0*
20,1,$1+$1,$4,$5,$6,$7,0*
20,1,$1+$1,$6,$7,$8,$9,0*
20,1,$1+$1,$8,$9,$2,$3,0*%
G04 Aperture macros list end*
%ADD10RoundRect,0.150000X0.150000X0.425000X-0.150000X0.425000X-0.150000X-0.425000X0.150000X-0.425000X0*%
%ADD11RoundRect,0.075000X0.075000X0.500000X-0.075000X0.500000X-0.075000X-0.500000X0.075000X-0.500000X0*%
%ADD12O,1.000000X2.100000*%
%ADD13O,1.000000X1.800000*%
%ADD14RoundRect,0.155000X-0.212500X-0.155000X0.212500X-0.155000X0.212500X0.155000X-0.212500X0.155000X0*%
%ADD15RoundRect,0.237500X0.237500X-0.300000X0.237500X0.300000X-0.237500X0.300000X-0.237500X-0.300000X0*%
%ADD16RoundRect,0.237500X0.237500X-0.250000X0.237500X0.250000X-0.237500X0.250000X-0.237500X-0.250000X0*%
%ADD17RoundRect,0.237500X-0.237500X0.250000X-0.237500X-0.250000X0.237500X-0.250000X0.237500X0.250000X0*%
%ADD18RoundRect,0.150000X0.150000X-0.587500X0.150000X0.587500X-0.150000X0.587500X-0.150000X-0.587500X0*%
%ADD19RoundRect,0.155000X0.155000X-0.212500X0.155000X0.212500X-0.155000X0.212500X-0.155000X-0.212500X0*%
%ADD20RoundRect,0.162500X-0.650000X-0.162500X0.650000X-0.162500X0.650000X0.162500X-0.650000X0.162500X0*%
%ADD21RoundRect,0.237500X0.250000X0.237500X-0.250000X0.237500X-0.250000X-0.237500X0.250000X-0.237500X0*%
%ADD22RoundRect,0.160000X-0.160000X0.197500X-0.160000X-0.197500X0.160000X-0.197500X0.160000X0.197500X0*%
%ADD23R,0.900000X1.700000*%
%ADD24RoundRect,0.237500X0.300000X0.237500X-0.300000X0.237500X-0.300000X-0.237500X0.300000X-0.237500X0*%
%ADD25RoundRect,0.237500X-0.250000X-0.237500X0.250000X-0.237500X0.250000X0.237500X-0.250000X0.237500X0*%
%ADD26RoundRect,0.250000X-0.800000X-0.650000X0.800000X-0.650000X0.800000X0.650000X-0.800000X0.650000X0*%
%ADD27RoundRect,0.155000X0.212500X0.155000X-0.212500X0.155000X-0.212500X-0.155000X0.212500X-0.155000X0*%
%ADD28RoundRect,0.237500X-0.237500X0.300000X-0.237500X-0.300000X0.237500X-0.300000X0.237500X0.300000X0*%
%ADD29RoundRect,0.249999X-0.395001X-0.395001X0.395001X-0.395001X0.395001X0.395001X-0.395001X0.395001X0*%
%ADD30RoundRect,0.050000X-0.387500X-0.050000X0.387500X-0.050000X0.387500X0.050000X-0.387500X0.050000X0*%
%ADD31RoundRect,0.050000X-0.050000X-0.387500X0.050000X-0.387500X0.050000X0.387500X-0.050000X0.387500X0*%
G04 APERTURE END LIST*
D10*
%TO.C,J1*%
X164150000Y-54080000D03*
X163350000Y-54080000D03*
D11*
X162200000Y-54080000D03*
X161200000Y-54080000D03*
X160700000Y-54080000D03*
X159700000Y-54080000D03*
D10*
X158550000Y-54080000D03*
X157750000Y-54080000D03*
X157750000Y-54080000D03*
X158550000Y-54080000D03*
D11*
X159200000Y-54080000D03*
X160200000Y-54080000D03*
X161700000Y-54080000D03*
X162700000Y-54080000D03*
D10*
X163350000Y-54080000D03*
X164150000Y-54080000D03*
D12*
X165270000Y-53505000D03*
D13*
X165270000Y-49325000D03*
D12*
X156630000Y-53505000D03*
D13*
X156630000Y-49325000D03*
%TD*%
D14*
%TO.C,C9*%
X162072500Y-83000000D03*
X163207500Y-83000000D03*
%TD*%
D15*
%TO.C,C14*%
X167400000Y-55162500D03*
X167400000Y-53437500D03*
%TD*%
D16*
%TO.C,R6*%
X155050000Y-84512500D03*
X155050000Y-82687500D03*
%TD*%
D17*
%TO.C,R1*%
X163600000Y-56087500D03*
X163600000Y-57912500D03*
%TD*%
D16*
%TO.C,R7*%
X155050000Y-81112500D03*
X155050000Y-79287500D03*
%TD*%
D18*
%TO.C,U2*%
X165112500Y-58237500D03*
X167012500Y-58237500D03*
X166062500Y-56362500D03*
%TD*%
D19*
%TO.C,C5*%
X160700000Y-68917500D03*
X160700000Y-67782500D03*
%TD*%
%TO.C,C18*%
X164700000Y-82767500D03*
X164700000Y-81632500D03*
%TD*%
D14*
%TO.C,C8*%
X165482500Y-73625000D03*
X166617500Y-73625000D03*
%TD*%
D20*
%TO.C,U3*%
X157062500Y-62095000D03*
X157062500Y-63365000D03*
X157062500Y-64635000D03*
X157062500Y-65905000D03*
X164237500Y-65905000D03*
X164237500Y-64635000D03*
X164237500Y-63365000D03*
X164237500Y-62095000D03*
%TD*%
D21*
%TO.C,R2*%
X157812500Y-56700000D03*
X155987500Y-56700000D03*
%TD*%
D14*
%TO.C,C11*%
X161782500Y-82050000D03*
X162917500Y-82050000D03*
%TD*%
%TO.C,C7*%
X165662500Y-77870000D03*
X166797500Y-77870000D03*
%TD*%
D15*
%TO.C,C15*%
X164700000Y-85837500D03*
X164700000Y-84112500D03*
%TD*%
D19*
%TO.C,C10*%
X163550000Y-71717500D03*
X163550000Y-70582500D03*
%TD*%
D22*
%TO.C,R3*%
X162600000Y-70527500D03*
X162600000Y-71722500D03*
%TD*%
D19*
%TO.C,C4*%
X156400000Y-73517500D03*
X156400000Y-72382500D03*
%TD*%
D23*
%TO.C,SW2*%
X162850000Y-91000000D03*
X166250000Y-91000000D03*
%TD*%
D16*
%TO.C,R9*%
X166650000Y-87762500D03*
X166650000Y-85937500D03*
%TD*%
D19*
%TO.C,C17*%
X161700000Y-68917500D03*
X161700000Y-67782500D03*
%TD*%
D23*
%TO.C,SW1*%
X158650000Y-91000000D03*
X155250000Y-91000000D03*
%TD*%
D24*
%TO.C,C13*%
X167000000Y-60000000D03*
X165275000Y-60000000D03*
%TD*%
D25*
%TO.C,R5*%
X158262500Y-82450000D03*
X160087500Y-82450000D03*
%TD*%
D19*
%TO.C,C12*%
X159750000Y-70867500D03*
X159750000Y-69732500D03*
%TD*%
%TO.C,C2*%
X164500000Y-71717500D03*
X164500000Y-70582500D03*
%TD*%
D26*
%TO.C,Y1*%
X159675000Y-86950000D03*
X162575000Y-86950000D03*
X162575000Y-84650000D03*
X159675000Y-84650000D03*
%TD*%
D22*
%TO.C,R4*%
X161650000Y-70527500D03*
X161650000Y-71722500D03*
%TD*%
D27*
%TO.C,C1*%
X166717500Y-61200000D03*
X165582500Y-61200000D03*
%TD*%
D28*
%TO.C,C16*%
X157575000Y-84662500D03*
X157575000Y-86387500D03*
%TD*%
D27*
%TO.C,C6*%
X155967500Y-78010000D03*
X154832500Y-78010000D03*
%TD*%
D29*
%TO.C,U1*%
X160037500Y-76200000D03*
X160037500Y-77800000D03*
X161637500Y-76200000D03*
X161637500Y-77800000D03*
D30*
X157400000Y-74400000D03*
X157400000Y-74800000D03*
X157400000Y-75200000D03*
X157400000Y-75600000D03*
X157400000Y-76000000D03*
X157400000Y-76400000D03*
X157400000Y-76800000D03*
X157400000Y-77200000D03*
X157400000Y-77600000D03*
X157400000Y-78000000D03*
X157400000Y-78400000D03*
X157400000Y-78800000D03*
X157400000Y-79200000D03*
X157400000Y-79600000D03*
D31*
X158237500Y-80437500D03*
X158637500Y-80437500D03*
X159037500Y-80437500D03*
X159437500Y-80437500D03*
X159837500Y-80437500D03*
X160237500Y-80437500D03*
X160637500Y-80437500D03*
X161037500Y-80437500D03*
X161437500Y-80437500D03*
X161837500Y-80437500D03*
X162237500Y-80437500D03*
X162637500Y-80437500D03*
X163037500Y-80437500D03*
X163437500Y-80437500D03*
D30*
X164275000Y-79600000D03*
X164275000Y-79200000D03*
X164275000Y-78800000D03*
X164275000Y-78400000D03*
X164275000Y-78000000D03*
X164275000Y-77600000D03*
X164275000Y-77200000D03*
X164275000Y-76800000D03*
X164275000Y-76400000D03*
X164275000Y-76000000D03*
X164275000Y-75600000D03*
X164275000Y-75200000D03*
X164275000Y-74800000D03*
X164275000Y-74400000D03*
D31*
X163437500Y-73562500D03*
X163037500Y-73562500D03*
X162637500Y-73562500D03*
X162237500Y-73562500D03*
X161837500Y-73562500D03*
X161437500Y-73562500D03*
X161037500Y-73562500D03*
X160637500Y-73562500D03*
X160237500Y-73562500D03*
X159837500Y-73562500D03*
X159437500Y-73562500D03*
X159037500Y-73562500D03*
X158637500Y-73562500D03*
X158237500Y-73562500D03*
%TD*%
D14*
%TO.C,C3*%
X165482500Y-72700000D03*
X166617500Y-72700000D03*
%TD*%
M02*
