%TF.GenerationSoftware,KiCad,Pcbnew,10.0.4*%
%TF.CreationDate,2026-08-28T17:36:24+02:00*%
%TF.ProjectId,samot2040_devboard,73616d6f-7432-4303-9430-5f646576626f,rev?*%
%TF.SameCoordinates,Original*%
%TF.FileFunction,Legend,Bot*%
%TF.FilePolarity,Positive*%
%FSLAX46Y46*%
G04 Gerber Fmt 4.6, Leading zero omitted, Abs format (unit mm)*
G04 Created by KiCad (PCBNEW 10.0.4) date 2026-08-28 17:36:24*
%MOMM*%
%LPD*%
G01*
G04 APERTURE LIST*
%ADD10C,0.150000*%
%ADD11C,0.120000*%
G04 APERTURE END LIST*
D10*
X158386546Y-57626823D02*
X158243689Y-57674442D01*
X158243689Y-57674442D02*
X158196070Y-57722061D01*
X158196070Y-57722061D02*
X158148451Y-57817299D01*
X158148451Y-57817299D02*
X158148451Y-57960156D01*
X158148451Y-57960156D02*
X158196070Y-58055394D01*
X158196070Y-58055394D02*
X158243689Y-58103014D01*
X158243689Y-58103014D02*
X158338927Y-58150633D01*
X158338927Y-58150633D02*
X158719879Y-58150633D01*
X158719879Y-58150633D02*
X158719879Y-57150633D01*
X158719879Y-57150633D02*
X158386546Y-57150633D01*
X158386546Y-57150633D02*
X158291308Y-57198252D01*
X158291308Y-57198252D02*
X158243689Y-57245871D01*
X158243689Y-57245871D02*
X158196070Y-57341109D01*
X158196070Y-57341109D02*
X158196070Y-57436347D01*
X158196070Y-57436347D02*
X158243689Y-57531585D01*
X158243689Y-57531585D02*
X158291308Y-57579204D01*
X158291308Y-57579204D02*
X158386546Y-57626823D01*
X158386546Y-57626823D02*
X158719879Y-57626823D01*
X157719879Y-57769680D02*
X156957975Y-57769680D01*
X157338927Y-58150633D02*
X157338927Y-57388728D01*
X162724819Y-62863333D02*
X162248628Y-62530000D01*
X162724819Y-62291905D02*
X161724819Y-62291905D01*
X161724819Y-62291905D02*
X161724819Y-62672857D01*
X161724819Y-62672857D02*
X161772438Y-62768095D01*
X161772438Y-62768095D02*
X161820057Y-62815714D01*
X161820057Y-62815714D02*
X161915295Y-62863333D01*
X161915295Y-62863333D02*
X162058152Y-62863333D01*
X162058152Y-62863333D02*
X162153390Y-62815714D01*
X162153390Y-62815714D02*
X162201009Y-62768095D01*
X162201009Y-62768095D02*
X162248628Y-62672857D01*
X162248628Y-62672857D02*
X162248628Y-62291905D01*
X162153390Y-63434762D02*
X162105771Y-63339524D01*
X162105771Y-63339524D02*
X162058152Y-63291905D01*
X162058152Y-63291905D02*
X161962914Y-63244286D01*
X161962914Y-63244286D02*
X161915295Y-63244286D01*
X161915295Y-63244286D02*
X161820057Y-63291905D01*
X161820057Y-63291905D02*
X161772438Y-63339524D01*
X161772438Y-63339524D02*
X161724819Y-63434762D01*
X161724819Y-63434762D02*
X161724819Y-63625238D01*
X161724819Y-63625238D02*
X161772438Y-63720476D01*
X161772438Y-63720476D02*
X161820057Y-63768095D01*
X161820057Y-63768095D02*
X161915295Y-63815714D01*
X161915295Y-63815714D02*
X161962914Y-63815714D01*
X161962914Y-63815714D02*
X162058152Y-63768095D01*
X162058152Y-63768095D02*
X162105771Y-63720476D01*
X162105771Y-63720476D02*
X162153390Y-63625238D01*
X162153390Y-63625238D02*
X162153390Y-63434762D01*
X162153390Y-63434762D02*
X162201009Y-63339524D01*
X162201009Y-63339524D02*
X162248628Y-63291905D01*
X162248628Y-63291905D02*
X162343866Y-63244286D01*
X162343866Y-63244286D02*
X162534342Y-63244286D01*
X162534342Y-63244286D02*
X162629580Y-63291905D01*
X162629580Y-63291905D02*
X162677200Y-63339524D01*
X162677200Y-63339524D02*
X162724819Y-63434762D01*
X162724819Y-63434762D02*
X162724819Y-63625238D01*
X162724819Y-63625238D02*
X162677200Y-63720476D01*
X162677200Y-63720476D02*
X162629580Y-63768095D01*
X162629580Y-63768095D02*
X162534342Y-63815714D01*
X162534342Y-63815714D02*
X162343866Y-63815714D01*
X162343866Y-63815714D02*
X162248628Y-63768095D01*
X162248628Y-63768095D02*
X162201009Y-63720476D01*
X162201009Y-63720476D02*
X162153390Y-63625238D01*
X163141904Y-62194819D02*
X163141904Y-63004342D01*
X163141904Y-63004342D02*
X163094285Y-63099580D01*
X163094285Y-63099580D02*
X163046666Y-63147200D01*
X163046666Y-63147200D02*
X162951428Y-63194819D01*
X162951428Y-63194819D02*
X162760952Y-63194819D01*
X162760952Y-63194819D02*
X162665714Y-63147200D01*
X162665714Y-63147200D02*
X162618095Y-63099580D01*
X162618095Y-63099580D02*
X162570476Y-63004342D01*
X162570476Y-63004342D02*
X162570476Y-62194819D01*
X161665714Y-62528152D02*
X161665714Y-63194819D01*
X161903809Y-62147200D02*
X162141904Y-62861485D01*
X162141904Y-62861485D02*
X161522857Y-62861485D01*
X161990357Y-58599580D02*
X162037976Y-58647200D01*
X162037976Y-58647200D02*
X162180833Y-58694819D01*
X162180833Y-58694819D02*
X162276071Y-58694819D01*
X162276071Y-58694819D02*
X162418928Y-58647200D01*
X162418928Y-58647200D02*
X162514166Y-58551961D01*
X162514166Y-58551961D02*
X162561785Y-58456723D01*
X162561785Y-58456723D02*
X162609404Y-58266247D01*
X162609404Y-58266247D02*
X162609404Y-58123390D01*
X162609404Y-58123390D02*
X162561785Y-57932914D01*
X162561785Y-57932914D02*
X162514166Y-57837676D01*
X162514166Y-57837676D02*
X162418928Y-57742438D01*
X162418928Y-57742438D02*
X162276071Y-57694819D01*
X162276071Y-57694819D02*
X162180833Y-57694819D01*
X162180833Y-57694819D02*
X162037976Y-57742438D01*
X162037976Y-57742438D02*
X161990357Y-57790057D01*
X161037976Y-58694819D02*
X161609404Y-58694819D01*
X161323690Y-58694819D02*
X161323690Y-57694819D01*
X161323690Y-57694819D02*
X161418928Y-57837676D01*
X161418928Y-57837676D02*
X161514166Y-57932914D01*
X161514166Y-57932914D02*
X161609404Y-57980533D01*
X160561785Y-58694819D02*
X160371309Y-58694819D01*
X160371309Y-58694819D02*
X160276071Y-58647200D01*
X160276071Y-58647200D02*
X160228452Y-58599580D01*
X160228452Y-58599580D02*
X160133214Y-58456723D01*
X160133214Y-58456723D02*
X160085595Y-58266247D01*
X160085595Y-58266247D02*
X160085595Y-57885295D01*
X160085595Y-57885295D02*
X160133214Y-57790057D01*
X160133214Y-57790057D02*
X160180833Y-57742438D01*
X160180833Y-57742438D02*
X160276071Y-57694819D01*
X160276071Y-57694819D02*
X160466547Y-57694819D01*
X160466547Y-57694819D02*
X160561785Y-57742438D01*
X160561785Y-57742438D02*
X160609404Y-57790057D01*
X160609404Y-57790057D02*
X160657023Y-57885295D01*
X160657023Y-57885295D02*
X160657023Y-58123390D01*
X160657023Y-58123390D02*
X160609404Y-58218628D01*
X160609404Y-58218628D02*
X160561785Y-58266247D01*
X160561785Y-58266247D02*
X160466547Y-58313866D01*
X160466547Y-58313866D02*
X160276071Y-58313866D01*
X160276071Y-58313866D02*
X160180833Y-58266247D01*
X160180833Y-58266247D02*
X160133214Y-58218628D01*
X160133214Y-58218628D02*
X160085595Y-58123390D01*
X164684819Y-52501905D02*
X163684819Y-52501905D01*
X163684819Y-52501905D02*
X163684819Y-52740000D01*
X163684819Y-52740000D02*
X163732438Y-52882857D01*
X163732438Y-52882857D02*
X163827676Y-52978095D01*
X163827676Y-52978095D02*
X163922914Y-53025714D01*
X163922914Y-53025714D02*
X164113390Y-53073333D01*
X164113390Y-53073333D02*
X164256247Y-53073333D01*
X164256247Y-53073333D02*
X164446723Y-53025714D01*
X164446723Y-53025714D02*
X164541961Y-52978095D01*
X164541961Y-52978095D02*
X164637200Y-52882857D01*
X164637200Y-52882857D02*
X164684819Y-52740000D01*
X164684819Y-52740000D02*
X164684819Y-52501905D01*
X164684819Y-54025714D02*
X164684819Y-53454286D01*
X164684819Y-53740000D02*
X163684819Y-53740000D01*
X163684819Y-53740000D02*
X163827676Y-53644762D01*
X163827676Y-53644762D02*
X163922914Y-53549524D01*
X163922914Y-53549524D02*
X163970533Y-53454286D01*
X157872857Y-62989580D02*
X157920476Y-63037200D01*
X157920476Y-63037200D02*
X158063333Y-63084819D01*
X158063333Y-63084819D02*
X158158571Y-63084819D01*
X158158571Y-63084819D02*
X158301428Y-63037200D01*
X158301428Y-63037200D02*
X158396666Y-62941961D01*
X158396666Y-62941961D02*
X158444285Y-62846723D01*
X158444285Y-62846723D02*
X158491904Y-62656247D01*
X158491904Y-62656247D02*
X158491904Y-62513390D01*
X158491904Y-62513390D02*
X158444285Y-62322914D01*
X158444285Y-62322914D02*
X158396666Y-62227676D01*
X158396666Y-62227676D02*
X158301428Y-62132438D01*
X158301428Y-62132438D02*
X158158571Y-62084819D01*
X158158571Y-62084819D02*
X158063333Y-62084819D01*
X158063333Y-62084819D02*
X157920476Y-62132438D01*
X157920476Y-62132438D02*
X157872857Y-62180057D01*
X157491904Y-62180057D02*
X157444285Y-62132438D01*
X157444285Y-62132438D02*
X157349047Y-62084819D01*
X157349047Y-62084819D02*
X157110952Y-62084819D01*
X157110952Y-62084819D02*
X157015714Y-62132438D01*
X157015714Y-62132438D02*
X156968095Y-62180057D01*
X156968095Y-62180057D02*
X156920476Y-62275295D01*
X156920476Y-62275295D02*
X156920476Y-62370533D01*
X156920476Y-62370533D02*
X156968095Y-62513390D01*
X156968095Y-62513390D02*
X157539523Y-63084819D01*
X157539523Y-63084819D02*
X156920476Y-63084819D01*
X156301428Y-62084819D02*
X156206190Y-62084819D01*
X156206190Y-62084819D02*
X156110952Y-62132438D01*
X156110952Y-62132438D02*
X156063333Y-62180057D01*
X156063333Y-62180057D02*
X156015714Y-62275295D01*
X156015714Y-62275295D02*
X155968095Y-62465771D01*
X155968095Y-62465771D02*
X155968095Y-62703866D01*
X155968095Y-62703866D02*
X156015714Y-62894342D01*
X156015714Y-62894342D02*
X156063333Y-62989580D01*
X156063333Y-62989580D02*
X156110952Y-63037200D01*
X156110952Y-63037200D02*
X156206190Y-63084819D01*
X156206190Y-63084819D02*
X156301428Y-63084819D01*
X156301428Y-63084819D02*
X156396666Y-63037200D01*
X156396666Y-63037200D02*
X156444285Y-62989580D01*
X156444285Y-62989580D02*
X156491904Y-62894342D01*
X156491904Y-62894342D02*
X156539523Y-62703866D01*
X156539523Y-62703866D02*
X156539523Y-62465771D01*
X156539523Y-62465771D02*
X156491904Y-62275295D01*
X156491904Y-62275295D02*
X156444285Y-62180057D01*
X156444285Y-62180057D02*
X156396666Y-62132438D01*
X156396666Y-62132438D02*
X156301428Y-62084819D01*
X169883333Y-45199819D02*
X169883333Y-45914104D01*
X169883333Y-45914104D02*
X169930952Y-46056961D01*
X169930952Y-46056961D02*
X170026190Y-46152200D01*
X170026190Y-46152200D02*
X170169047Y-46199819D01*
X170169047Y-46199819D02*
X170264285Y-46199819D01*
X169502380Y-45199819D02*
X168883333Y-45199819D01*
X168883333Y-45199819D02*
X169216666Y-45580771D01*
X169216666Y-45580771D02*
X169073809Y-45580771D01*
X169073809Y-45580771D02*
X168978571Y-45628390D01*
X168978571Y-45628390D02*
X168930952Y-45676009D01*
X168930952Y-45676009D02*
X168883333Y-45771247D01*
X168883333Y-45771247D02*
X168883333Y-46009342D01*
X168883333Y-46009342D02*
X168930952Y-46104580D01*
X168930952Y-46104580D02*
X168978571Y-46152200D01*
X168978571Y-46152200D02*
X169073809Y-46199819D01*
X169073809Y-46199819D02*
X169359523Y-46199819D01*
X169359523Y-46199819D02*
X169454761Y-46152200D01*
X169454761Y-46152200D02*
X169502380Y-46104580D01*
X152083333Y-45199819D02*
X152083333Y-45914104D01*
X152083333Y-45914104D02*
X152130952Y-46056961D01*
X152130952Y-46056961D02*
X152226190Y-46152200D01*
X152226190Y-46152200D02*
X152369047Y-46199819D01*
X152369047Y-46199819D02*
X152464285Y-46199819D01*
X151654761Y-45295057D02*
X151607142Y-45247438D01*
X151607142Y-45247438D02*
X151511904Y-45199819D01*
X151511904Y-45199819D02*
X151273809Y-45199819D01*
X151273809Y-45199819D02*
X151178571Y-45247438D01*
X151178571Y-45247438D02*
X151130952Y-45295057D01*
X151130952Y-45295057D02*
X151083333Y-45390295D01*
X151083333Y-45390295D02*
X151083333Y-45485533D01*
X151083333Y-45485533D02*
X151130952Y-45628390D01*
X151130952Y-45628390D02*
X151702380Y-46199819D01*
X151702380Y-46199819D02*
X151083333Y-46199819D01*
%TO.C,R8*%
D11*
X164222500Y-62775276D02*
X164222500Y-63284724D01*
X163177500Y-62775276D02*
X163177500Y-63284724D01*
%TO.C,U4*%
X161180000Y-61400000D02*
X160940000Y-61730000D01*
X161420000Y-61730000D01*
X161180000Y-61400000D01*
G36*
X161420000Y-61730000D02*
G01*
X160940000Y-61730000D01*
X161180000Y-61400000D01*
X161420000Y-61730000D01*
G37*
X162480000Y-61450000D02*
X163280000Y-61450000D01*
X162480000Y-61450000D02*
X161680000Y-61450000D01*
X161480000Y-58230000D02*
X163280000Y-58230000D01*
%TO.C,C19*%
X161201233Y-56300000D02*
X161493767Y-56300000D01*
X161201233Y-57320000D02*
X161493767Y-57320000D01*
%TO.C,D1*%
X163090000Y-54580000D02*
X163420000Y-54820000D01*
X163420000Y-54340000D01*
X163090000Y-54580000D01*
G36*
X163420000Y-54820000D02*
G01*
X163090000Y-54580000D01*
X163420000Y-54340000D01*
X163420000Y-54820000D01*
G37*
X159900000Y-52480000D02*
X160830000Y-52480000D01*
X159900000Y-52480000D02*
X159900000Y-53940000D01*
X163060000Y-52480000D02*
X162130000Y-52480000D01*
X163060000Y-53280000D02*
X163060000Y-52480000D01*
X163060000Y-53280000D02*
X163060000Y-54080000D01*
%TO.C,C20*%
X157083733Y-60690000D02*
X157376267Y-60690000D01*
X157083733Y-61710000D02*
X157376267Y-61710000D01*
%TO.C,J3*%
X168170000Y-49395000D02*
X168170000Y-97765000D01*
X170930000Y-46745000D02*
X169550000Y-46745000D01*
X170930000Y-48125000D02*
X170930000Y-46745000D01*
X170930000Y-49395000D02*
X168170000Y-49395000D01*
X170930000Y-49395000D02*
X170930000Y-97765000D01*
X170930000Y-97765000D02*
X168170000Y-97765000D01*
%TO.C,J2*%
X150370000Y-49395000D02*
X150370000Y-97765000D01*
X153130000Y-46745000D02*
X151750000Y-46745000D01*
X153130000Y-48125000D02*
X153130000Y-46745000D01*
X153130000Y-49395000D02*
X150370000Y-49395000D01*
X153130000Y-49395000D02*
X153130000Y-97765000D01*
X153130000Y-97765000D02*
X150370000Y-97765000D01*
%TD*%
M02*
