M48
; DRILL file KiCad 10.0.4 date 2026-08-28T17:36:26
; FORMAT={-:-/ absolute / metric / decimal}
; #@! TF.CreationDate,2026-08-28T17:36:26+02:00
; #@! TF.GenerationSoftware,Kicad,Pcbnew,10.0.4
; #@! TF.FileFunction,Plated,1,2,PTH
FMAT,2
METRIC
; #@! TA.AperFunction,Plated,PTH,ViaDrill
T1C0.300
; #@! TA.AperFunction,Plated,PTH,ViaDrill
T2C0.400
; #@! TA.AperFunction,Plated,PTH,ComponentDrill
T3C0.600
; #@! TA.AperFunction,Plated,PTH,ComponentDrill
T4C0.800
; #@! TA.AperFunction,Plated,PTH,ComponentDrill
T5C1.000
%
G90
G05
T1
X160.0Y-65.1
X160.2Y-64.056
X160.75Y-51.92
X164.56Y-56.8
X167.55Y-78.09
T2
X154.35Y-77.3
X154.7Y-86.4
X155.05Y-80.675
X155.05Y-85.1
X157.1Y-66.7
X157.2Y-82.0
X157.4Y-73.4
X158.27Y-75.4
X158.3Y-81.45
X158.378Y-79.507
X158.431Y-78.541
X159.04Y-79.06
X159.1Y-74.5
X159.45Y-68.95
X159.8Y-68.25
X159.851Y-79.1
X160.0Y-74.5
X160.838Y-78.05
X161.85Y-79.5
X162.57Y-74.39
X163.05Y-79.15
X163.55Y-68.35
X163.758Y-69.173
X163.892Y-82.45
X164.105Y-85.105
X165.625Y-69.9
X166.05Y-80.45
X166.2Y-79.6
X166.5Y-82.8
X166.789Y-78.68
X167.5Y-93.2
T4
X156.07Y-59.38
X158.61Y-59.38
T5
X151.75Y-48.125
X151.75Y-50.665
X151.75Y-53.205
X151.75Y-55.745
X151.75Y-58.285
X151.75Y-60.825
X151.75Y-63.365
X151.75Y-65.905
X151.75Y-68.445
X151.75Y-70.985
X151.75Y-73.525
X151.75Y-76.065
X151.75Y-78.605
X151.75Y-81.145
X151.75Y-83.685
X151.75Y-86.225
X151.75Y-88.765
X151.75Y-91.305
X151.75Y-93.845
X151.75Y-96.385
X169.55Y-48.125
X169.55Y-50.665
X169.55Y-53.205
X169.55Y-55.745
X169.55Y-58.285
X169.55Y-60.825
X169.55Y-63.365
X169.55Y-65.905
X169.55Y-68.445
X169.55Y-70.985
X169.55Y-73.525
X169.55Y-76.065
X169.55Y-78.605
X169.55Y-81.145
X169.55Y-83.685
X169.55Y-86.225
X169.55Y-88.765
X169.55Y-91.305
X169.55Y-93.845
X169.55Y-96.385
T3
G00X156.63Y-49.725
M15
G01X156.63Y-48.925
M16
G05
G00X156.63Y-54.055
M15
G01X156.63Y-52.955
M16
G05
G00X165.27Y-49.725
M15
G01X165.27Y-48.925
M16
G05
G00X165.27Y-54.055
M15
G01X165.27Y-52.955
M16
G05
M30
