%TF.GenerationSoftware,KiCad,Pcbnew,10.0.4*%
%TF.CreationDate,2026-08-28T17:36:24+02:00*%
%TF.ProjectId,samot2040_devboard,73616d6f-7432-4303-9430-5f646576626f,rev?*%
%TF.SameCoordinates,Original*%
%TF.FileFunction,Soldermask,Bot*%
%TF.FilePolarity,Negative*%
%FSLAX46Y46*%
G04 Gerber Fmt 4.6, Leading zero omitted, Abs format (unit mm)*
G04 Created by KiCad (PCBNEW 10.0.4) date 2026-08-28 17:36:24*
%MOMM*%
%LPD*%
G01*
G04 APERTURE LIST*
G04 Aperture macros list*
%AMRoundRect*
0 Rectangle with rounded corners*
0 $1 Rounding radius*
0 $2 $3 $4 $5 $6 $7 $8 $9 X,Y pos of 4 corners*
0 Add a 4 corners polygon primitive as box body*
4,1,4,$2,$3,$4,$5,$6,$7,$8,$9,$2,$3,0*
0 Add four circle primitives for the rounded corners*
1,1,$1+$1,$2,$3*
1,1,$1+$1,$4,$5*
1,1,$1+$1,$6,$7*
1,1,$1+$1,$8,$9*
0 Add four rect primitives between the rounded corners*
20,1,$1+$1,$2,$3,$4,$5,0*
20,1,$1+$1,$4,$5,$6,$7,0*
20,1,$1+$1,$6,$7,$8,$9,0*
20,1,$1+$1,$8,$9,$2,$3,0*%
G04 Aperture macros list end*
%ADD10RoundRect,0.237500X-0.237500X0.250000X-0.237500X-0.250000X0.237500X-0.250000X0.237500X0.250000X0*%
%ADD11RoundRect,0.162500X-0.617500X-0.162500X0.617500X-0.162500X0.617500X0.162500X-0.617500X0.162500X0*%
%ADD12RoundRect,0.237500X-0.300000X-0.237500X0.300000X-0.237500X0.300000X0.237500X-0.300000X0.237500X0*%
%ADD13RoundRect,0.200000X0.200000X-0.750000X0.200000X0.750000X-0.200000X0.750000X-0.200000X-0.750000X0*%
%ADD14C,1.400000*%
%ADD15C,0.650000*%
%ADD16O,1.000000X2.100000*%
%ADD17O,1.000000X1.800000*%
%ADD18C,0.800000*%
%ADD19R,1.700000X1.700000*%
%ADD20C,1.700000*%
G04 APERTURE END LIST*
D10*
%TO.C,R8*%
X163700000Y-63942500D03*
X163700000Y-62117500D03*
%TD*%
D11*
%TO.C,U4*%
X163730000Y-60790000D03*
X163730000Y-58890000D03*
X161030000Y-58890000D03*
X161030000Y-59840000D03*
X161030000Y-60790000D03*
%TD*%
D12*
%TO.C,C19*%
X162210000Y-56810000D03*
X160485000Y-56810000D03*
%TD*%
D13*
%TO.C,D1*%
X161480000Y-51740000D03*
X160530000Y-54740000D03*
X162430000Y-54740000D03*
%TD*%
D12*
%TO.C,C20*%
X158092500Y-61200000D03*
X156367500Y-61200000D03*
%TD*%
D14*
%TO.C,TP1*%
X158610000Y-59380000D03*
X156070000Y-59380000D03*
%TD*%
D15*
%TO.C,J1*%
X163840000Y-53005000D03*
X158060000Y-53005000D03*
D16*
X165270000Y-53505000D03*
D17*
X165270000Y-49325000D03*
D16*
X156630000Y-53505000D03*
D17*
X156630000Y-49325000D03*
%TD*%
D18*
%TO.C,SW2*%
X164550000Y-91000000D03*
%TD*%
%TO.C,SW1*%
X156950000Y-91000000D03*
%TD*%
D19*
%TO.C,J3*%
X169550000Y-48125000D03*
D20*
X169550000Y-50665000D03*
X169550000Y-53205000D03*
X169550000Y-55745000D03*
X169550000Y-58285000D03*
X169550000Y-60825000D03*
X169550000Y-63365000D03*
X169550000Y-65905000D03*
X169550000Y-68445000D03*
X169550000Y-70985000D03*
X169550000Y-73525000D03*
X169550000Y-76065000D03*
X169550000Y-78605000D03*
X169550000Y-81145000D03*
X169550000Y-83685000D03*
X169550000Y-86225000D03*
X169550000Y-88765000D03*
X169550000Y-91305000D03*
X169550000Y-93845000D03*
X169550000Y-96385000D03*
%TD*%
D19*
%TO.C,J2*%
X151750000Y-48125000D03*
D20*
X151750000Y-50665000D03*
X151750000Y-53205000D03*
X151750000Y-55745000D03*
X151750000Y-58285000D03*
X151750000Y-60825000D03*
X151750000Y-63365000D03*
X151750000Y-65905000D03*
X151750000Y-68445000D03*
X151750000Y-70985000D03*
X151750000Y-73525000D03*
X151750000Y-76065000D03*
X151750000Y-78605000D03*
X151750000Y-81145000D03*
X151750000Y-83685000D03*
X151750000Y-86225000D03*
X151750000Y-88765000D03*
X151750000Y-91305000D03*
X151750000Y-93845000D03*
X151750000Y-96385000D03*
%TD*%
M02*
