%TF.GenerationSoftware,KiCad,Pcbnew,10.0.4*%
%TF.CreationDate,2026-08-28T17:36:24+02:00*%
%TF.ProjectId,samot2040_devboard,73616d6f-7432-4303-9430-5f646576626f,rev?*%
%TF.SameCoordinates,Original*%
%TF.FileFunction,Copper,L2,Bot*%
%TF.FilePolarity,Positive*%
%FSLAX46Y46*%
G04 Gerber Fmt 4.6, Leading zero omitted, Abs format (unit mm)*
G04 Created by KiCad (PCBNEW 10.0.4) date 2026-08-28 17:36:24*
%MOMM*%
%LPD*%
G01*
G04 APERTURE LIST*
G04 Aperture macros list*
%AMRoundRect*
0 Rectangle with rounded corners*
0 $1 Rounding radius*
0 $2 $3 $4 $5 $6 $7 $8 $9 X,Y pos of 4 corners*
0 Add a 4 corners polygon primitive as box body*
4,1,4,$2,$3,$4,$5,$6,$7,$8,$9,$2,$3,0*
0 Add four circle primitives for the rounded corners*
1,1,$1+$1,$2,$3*
1,1,$1+$1,$4,$5*
1,1,$1+$1,$6,$7*
1,1,$1+$1,$8,$9*
0 Add four rect primitives between the rounded corners*
20,1,$1+$1,$2,$3,$4,$5,0*
20,1,$1+$1,$4,$5,$6,$7,0*
20,1,$1+$1,$6,$7,$8,$9,0*
20,1,$1+$1,$8,$9,$2,$3,0*%
G04 Aperture macros list end*
%TA.AperFunction,SMDPad,CuDef*%
%ADD10RoundRect,0.237500X-0.237500X0.250000X-0.237500X-0.250000X0.237500X-0.250000X0.237500X0.250000X0*%
%TD*%
%TA.AperFunction,SMDPad,CuDef*%
%ADD11RoundRect,0.162500X-0.617500X-0.162500X0.617500X-0.162500X0.617500X0.162500X-0.617500X0.162500X0*%
%TD*%
%TA.AperFunction,SMDPad,CuDef*%
%ADD12RoundRect,0.237500X-0.300000X-0.237500X0.300000X-0.237500X0.300000X0.237500X-0.300000X0.237500X0*%
%TD*%
%TA.AperFunction,SMDPad,CuDef*%
%ADD13RoundRect,0.200000X0.200000X-0.750000X0.200000X0.750000X-0.200000X0.750000X-0.200000X-0.750000X0*%
%TD*%
%TA.AperFunction,ComponentPad*%
%ADD14C,1.400000*%
%TD*%
%TA.AperFunction,ComponentPad*%
%ADD15O,1.000000X2.100000*%
%TD*%
%TA.AperFunction,ComponentPad*%
%ADD16O,1.000000X1.800000*%
%TD*%
%TA.AperFunction,ComponentPad*%
%ADD17R,1.700000X1.700000*%
%TD*%
%TA.AperFunction,ComponentPad*%
%ADD18C,1.700000*%
%TD*%
%TA.AperFunction,ViaPad*%
%ADD19C,0.600000*%
%TD*%
%TA.AperFunction,Conductor*%
%ADD20C,0.400000*%
%TD*%
%TA.AperFunction,Conductor*%
%ADD21C,0.200000*%
%TD*%
%TA.AperFunction,Conductor*%
%ADD22C,0.300000*%
%TD*%
G04 APERTURE END LIST*
D10*
%TO.P,R8,2*%
%TO.N,GND*%
X163700000Y-63942500D03*
%TO.P,R8,1*%
%TO.N,Net-(U4-PROG)*%
X163700000Y-62117500D03*
%TD*%
D11*
%TO.P,U4,5,PROG_5*%
%TO.N,Net-(U4-PROG)*%
X163730000Y-60790000D03*
%TO.P,U4,4,V_{DD}_4*%
%TO.N,VBUS*%
X163730000Y-58890000D03*
%TO.P,U4,3,V_{BAT}_3*%
%TO.N,+BATT*%
X161030000Y-58890000D03*
%TO.P,U4,2,V_{SS}_2*%
%TO.N,GND*%
X161030000Y-59840000D03*
%TO.P,U4,1,STAT_1*%
%TO.N,unconnected-(U4-STAT-Pad1)*%
X161030000Y-60790000D03*
%TD*%
D12*
%TO.P,C19,2*%
%TO.N,VBUS*%
X162210000Y-56810000D03*
%TO.P,C19,1*%
%TO.N,GND*%
X160485000Y-56810000D03*
%TD*%
D13*
%TO.P,D1,3*%
%TO.N,VBUS*%
X161480000Y-51740000D03*
%TO.P,D1,2*%
%TO.N,+BATT*%
X160530000Y-54740000D03*
%TO.P,D1,1*%
%TO.N,VBUS*%
X162430000Y-54740000D03*
%TD*%
D12*
%TO.P,C20,2*%
%TO.N,+BATT*%
X158092500Y-61200000D03*
%TO.P,C20,1*%
%TO.N,GND*%
X156367500Y-61200000D03*
%TD*%
D14*
%TO.P,TP1,1,1_1*%
%TO.N,+BATT*%
X158610000Y-59380000D03*
%TO.P,TP1,2,2_2*%
%TO.N,GND*%
X156070000Y-59380000D03*
%TD*%
D15*
%TO.P,J1,SH,SHIELD_SH*%
%TO.N,GND*%
X165270000Y-53505000D03*
D16*
X165270000Y-49325000D03*
D15*
X156630000Y-53505000D03*
D16*
X156630000Y-49325000D03*
%TD*%
D17*
%TO.P,J3,1,Pin_1_1*%
%TO.N,VBUS*%
X169550000Y-48125000D03*
D18*
%TO.P,J3,2,Pin_2_2*%
%TO.N,unconnected-(J3-Pin_2-Pad2)*%
X169550000Y-50665000D03*
%TO.P,J3,3,Pin_3_3*%
%TO.N,GND*%
X169550000Y-53205000D03*
%TO.P,J3,4,Pin_4_4*%
%TO.N,unconnected-(J3-Pin_4-Pad4)*%
X169550000Y-55745000D03*
%TO.P,J3,5,Pin_5_5*%
%TO.N,+3V3*%
X169550000Y-58285000D03*
%TO.P,J3,6,Pin_6_6*%
%TO.N,unconnected-(J3-Pin_6-Pad6)*%
X169550000Y-60825000D03*
%TO.P,J3,7,Pin_7_7*%
%TO.N,GPIO28{slash}ADC2*%
X169550000Y-63365000D03*
%TO.P,J3,8,Pin_8_8*%
%TO.N,GND*%
X169550000Y-65905000D03*
%TO.P,J3,9,Pin_9_9*%
%TO.N,GPIO27{slash}ADC1*%
X169550000Y-68445000D03*
%TO.P,J3,10,Pin_10_10*%
%TO.N,GPIO26{slash}ADC0*%
X169550000Y-70985000D03*
%TO.P,J3,11,Pin_11_11*%
%TO.N,unconnected-(J3-Pin_11-Pad11)*%
X169550000Y-73525000D03*
%TO.P,J3,12,Pin_12_12*%
%TO.N,GPIO22*%
X169550000Y-76065000D03*
%TO.P,J3,13,Pin_13_13*%
%TO.N,GND*%
X169550000Y-78605000D03*
%TO.P,J3,14,Pin_14_14*%
%TO.N,GPIO21*%
X169550000Y-81145000D03*
%TO.P,J3,15,Pin_15_15*%
%TO.N,GPIO20*%
X169550000Y-83685000D03*
%TO.P,J3,16,Pin_16_16*%
%TO.N,GPIO19*%
X169550000Y-86225000D03*
%TO.P,J3,17,Pin_17_17*%
%TO.N,GPIO18*%
X169550000Y-88765000D03*
%TO.P,J3,18,Pin_18_18*%
%TO.N,GND*%
X169550000Y-91305000D03*
%TO.P,J3,19,Pin_19_19*%
%TO.N,GPIO17*%
X169550000Y-93845000D03*
%TO.P,J3,20,Pin_20_20*%
%TO.N,GPIO16*%
X169550000Y-96385000D03*
%TD*%
D17*
%TO.P,J2,1,Pin_1_1*%
%TO.N,GPIO0*%
X151750000Y-48125000D03*
D18*
%TO.P,J2,2,Pin_2_2*%
%TO.N,GPIO1*%
X151750000Y-50665000D03*
%TO.P,J2,3,Pin_3_3*%
%TO.N,GND*%
X151750000Y-53205000D03*
%TO.P,J2,4,Pin_4_4*%
%TO.N,GPIO2*%
X151750000Y-55745000D03*
%TO.P,J2,5,Pin_5_5*%
%TO.N,GPIO3*%
X151750000Y-58285000D03*
%TO.P,J2,6,Pin_6_6*%
%TO.N,GPIO4*%
X151750000Y-60825000D03*
%TO.P,J2,7,Pin_7_7*%
%TO.N,GPIO5*%
X151750000Y-63365000D03*
%TO.P,J2,8,Pin_8_8*%
%TO.N,GND*%
X151750000Y-65905000D03*
%TO.P,J2,9,Pin_9_9*%
%TO.N,GPIO6*%
X151750000Y-68445000D03*
%TO.P,J2,10,Pin_10_10*%
%TO.N,GPIO7*%
X151750000Y-70985000D03*
%TO.P,J2,11,Pin_11_11*%
%TO.N,GPIO8*%
X151750000Y-73525000D03*
%TO.P,J2,12,Pin_12_12*%
%TO.N,GPIO9*%
X151750000Y-76065000D03*
%TO.P,J2,13,Pin_13_13*%
%TO.N,GND*%
X151750000Y-78605000D03*
%TO.P,J2,14,Pin_14_14*%
%TO.N,GPIO10*%
X151750000Y-81145000D03*
%TO.P,J2,15,Pin_15_15*%
%TO.N,GPIO11*%
X151750000Y-83685000D03*
%TO.P,J2,16,Pin_16_16*%
%TO.N,GPIO12*%
X151750000Y-86225000D03*
%TO.P,J2,17,Pin_17_17*%
%TO.N,GPIO13*%
X151750000Y-88765000D03*
%TO.P,J2,18,Pin_18_18*%
%TO.N,GND*%
X151750000Y-91305000D03*
%TO.P,J2,19,Pin_19_19*%
%TO.N,GPIO14*%
X151750000Y-93845000D03*
%TO.P,J2,20,Pin_20_20*%
%TO.N,GPIO15*%
X151750000Y-96385000D03*
%TD*%
D19*
%TO.N,VBUS*%
X160750000Y-51920000D03*
%TO.N,GND*%
X159450000Y-68950000D03*
X154350000Y-77300000D03*
X163891628Y-82450000D03*
X167500000Y-93200000D03*
X164560000Y-56800000D03*
X157100000Y-66700000D03*
X160837500Y-78050000D03*
X159800000Y-68250000D03*
X167550000Y-78090000D03*
X157400000Y-73400000D03*
X158431010Y-78541341D03*
X164105000Y-85105000D03*
X165625000Y-69900000D03*
%TO.N,Net-(R6-Pad1)*%
X154700000Y-86400000D03*
X155050000Y-85100000D03*
%TO.N,QSPI_SS*%
X159100000Y-74500000D03*
X155050000Y-80675000D03*
%TO.N,USB_D+*%
X160200000Y-64055761D03*
X163757880Y-69172880D03*
%TO.N,USB_D-*%
X160000000Y-65100000D03*
X163550000Y-68350000D03*
%TO.N,+1V1*%
X160000000Y-74500000D03*
X161850000Y-79500000D03*
X162570000Y-74390000D03*
%TO.N,GPIO7*%
X158270000Y-75400000D03*
%TO.N,GPIO10*%
X158377518Y-79507293D03*
%TO.N,GPIO12*%
X157200000Y-82000000D03*
%TO.N,GPIO13*%
X158300000Y-81450000D03*
%TO.N,GPIO14*%
X159040487Y-79059551D03*
%TO.N,GPIO15*%
X159851472Y-79099999D03*
%TO.N,GPIO16*%
X163050000Y-79150000D03*
%TO.N,GPIO18*%
X166500000Y-82800000D03*
%TO.N,GPIO19*%
X166050000Y-80450000D03*
%TO.N,GPIO20*%
X166200000Y-79600000D03*
%TO.N,GPIO21*%
X166788939Y-78680000D03*
%TD*%
%TO.N,VBUS*%
D20*
X160930000Y-51740000D02*
X161480000Y-51740000D01*
X160750000Y-51920000D02*
X160930000Y-51740000D01*
X162410000Y-52670000D02*
X162410000Y-54720000D01*
X161480000Y-51740000D02*
X162410000Y-52670000D01*
X162410000Y-54720000D02*
X162430000Y-54740000D01*
%TO.N,Net-(U4-PROG)*%
X163730000Y-62087500D02*
X163700000Y-62117500D01*
X163730000Y-60790000D02*
X163730000Y-62087500D01*
%TO.N,+BATT*%
X158092500Y-59897500D02*
X158610000Y-59380000D01*
X158092500Y-61200000D02*
X158092500Y-59897500D01*
X158610000Y-59380000D02*
X159695000Y-58295000D01*
X159695000Y-57555000D02*
X161030000Y-58890000D01*
X159695000Y-58295000D02*
X159695000Y-57555000D01*
X159620500Y-57480500D02*
X159695000Y-57555000D01*
X159620500Y-55649500D02*
X159620500Y-57480500D01*
X160530000Y-54740000D02*
X159620500Y-55649500D01*
%TO.N,VBUS*%
X162210000Y-57370000D02*
X163730000Y-58890000D01*
X162210000Y-56810000D02*
X162210000Y-57370000D01*
X162430000Y-56590000D02*
X162210000Y-56810000D01*
X162430000Y-54740000D02*
X162430000Y-56590000D01*
%TO.N,GND*%
X164560000Y-55240000D02*
X165270000Y-54530000D01*
X164560000Y-56800000D02*
X164560000Y-55240000D01*
X165270000Y-54530000D02*
X165270000Y-53505000D01*
D21*
X168065000Y-78605000D02*
X169550000Y-78605000D01*
X158000000Y-73901471D02*
X158000000Y-72800000D01*
X158450000Y-74848529D02*
X158450000Y-74450736D01*
X156305000Y-65905000D02*
X157100000Y-66700000D01*
X154350000Y-77300000D02*
X153055000Y-77300000D01*
X153055000Y-77300000D02*
X151750000Y-78605000D01*
X163891628Y-84891628D02*
X163891628Y-82450000D01*
X158820000Y-75627818D02*
X158820000Y-75172182D01*
X158820000Y-75172182D02*
X158497818Y-74850000D01*
X167550000Y-78090000D02*
X168065000Y-78605000D01*
X158650000Y-68250000D02*
X159800000Y-68250000D01*
X158477000Y-76723000D02*
X158737500Y-76462500D01*
X160837500Y-79887500D02*
X160837500Y-78050000D01*
X157678237Y-77300000D02*
X158255238Y-76723000D01*
X161450000Y-69900000D02*
X165625000Y-69900000D01*
X158737500Y-75710318D02*
X158820000Y-75627818D01*
X157400000Y-73400000D02*
X157901471Y-73901471D01*
X158000000Y-70400000D02*
X159450000Y-68950000D01*
X163950000Y-81790000D02*
X162740000Y-81790000D01*
X151750000Y-65905000D02*
X156305000Y-65905000D01*
X158451471Y-74850000D02*
X158450000Y-74848529D01*
X159800000Y-68250000D02*
X161450000Y-69900000D01*
X158737500Y-76462500D02*
X158737500Y-75710318D01*
X157901471Y-73901471D02*
X158000000Y-73901471D01*
X158450000Y-74450736D02*
X158000000Y-74000736D01*
X158000000Y-72800000D02*
X158000000Y-70400000D01*
X158497818Y-74850000D02*
X158451471Y-74850000D01*
X162740000Y-81790000D02*
X160837500Y-79887500D01*
X164105000Y-85105000D02*
X163891628Y-84891628D01*
X158000000Y-74000736D02*
X158000000Y-73901471D01*
X158255238Y-76723000D02*
X158477000Y-76723000D01*
X163891628Y-81848372D02*
X163950000Y-81790000D01*
X157400000Y-73400000D02*
X158000000Y-72800000D01*
X157100000Y-66700000D02*
X158650000Y-68250000D01*
X163891628Y-82450000D02*
X163891628Y-81848372D01*
X154350000Y-77300000D02*
X157678237Y-77300000D01*
%TO.N,Net-(R6-Pad1)*%
X155050000Y-86050000D02*
X155050000Y-85100000D01*
X154700000Y-86400000D02*
X155050000Y-86050000D01*
%TO.N,QSPI_SS*%
X159100000Y-74500000D02*
X159100000Y-74650000D01*
X157740685Y-77700000D02*
X157600000Y-77700000D01*
X159400000Y-74950000D02*
X159400000Y-76775000D01*
X155150000Y-80575000D02*
X155050000Y-80675000D01*
X155373529Y-80575000D02*
X155150000Y-80575000D01*
X159100000Y-74650000D02*
X159400000Y-74950000D01*
X156923529Y-79025000D02*
X155373529Y-80575000D01*
X159400000Y-76775000D02*
X159125000Y-77050000D01*
X156923529Y-78376471D02*
X156923529Y-79025000D01*
X157600000Y-77700000D02*
X156923529Y-78376471D01*
X158390686Y-77050000D02*
X157740685Y-77700000D01*
X159125000Y-77050000D02*
X158390686Y-77050000D01*
%TO.N,USB_D+*%
D22*
X161744239Y-65600000D02*
X161750000Y-65600000D01*
X161750000Y-65600000D02*
X164290380Y-68140380D01*
X164290380Y-68140380D02*
X164290380Y-68640380D01*
X164290380Y-68640380D02*
X163757880Y-69172880D01*
X160200000Y-64055761D02*
X161744239Y-65600000D01*
%TO.N,USB_D-*%
X163340380Y-68140380D02*
X163550000Y-68350000D01*
X160000000Y-65600000D02*
X162540380Y-68140380D01*
X160000000Y-65100000D02*
X160000000Y-65600000D01*
X162540380Y-68140380D02*
X163340380Y-68140380D01*
X160000000Y-65600000D02*
X160225000Y-65825000D01*
%TO.N,+1V1*%
D21*
X162950000Y-75200000D02*
X162950000Y-78400000D01*
X162570000Y-74390000D02*
X162650000Y-74470000D01*
X160350000Y-74850000D02*
X160000000Y-74500000D01*
X162950000Y-78400000D02*
X161850000Y-79500000D01*
X162600000Y-74850000D02*
X160350000Y-74850000D01*
X162650000Y-74470000D02*
X162650000Y-74900000D01*
X162650000Y-74900000D02*
X162950000Y-75200000D01*
X162950000Y-75200000D02*
X162600000Y-74850000D01*
%TO.N,GPIO7*%
X156365000Y-75600000D02*
X151750000Y-70985000D01*
X158070000Y-75600000D02*
X158270000Y-75400000D01*
X156365000Y-75600000D02*
X158070000Y-75600000D01*
%TO.N,GPIO10*%
X156411397Y-80461397D02*
X155372794Y-81500000D01*
X158250000Y-79600000D02*
X157388603Y-80461397D01*
X155372794Y-81500000D02*
X152105000Y-81500000D01*
X152105000Y-81500000D02*
X151750000Y-81145000D01*
X158325780Y-79507293D02*
X158250000Y-79583073D01*
X158377518Y-79507293D02*
X158325780Y-79507293D01*
X157388603Y-80461397D02*
X156411397Y-80461397D01*
X158250000Y-79583073D02*
X158250000Y-79600000D01*
%TO.N,GPIO12*%
X152975000Y-86225000D02*
X151750000Y-86225000D01*
X157200000Y-82000000D02*
X152975000Y-86225000D01*
%TO.N,GPIO13*%
X153435000Y-88765000D02*
X151750000Y-88765000D01*
X158650000Y-83550000D02*
X153435000Y-88765000D01*
X158300000Y-81450000D02*
X158650000Y-81800000D01*
X158650000Y-81800000D02*
X158650000Y-83550000D01*
%TO.N,GPIO14*%
X159040487Y-79059551D02*
X159040487Y-79140487D01*
X159040487Y-79140487D02*
X159153170Y-79253170D01*
X159150000Y-86445000D02*
X151750000Y-93845000D01*
X159153170Y-79609330D02*
X159150000Y-79612500D01*
X159150000Y-79612500D02*
X159150000Y-86445000D01*
X159153170Y-79253170D02*
X159153170Y-79609330D01*
%TO.N,GPIO15*%
X159550000Y-80950000D02*
X159550000Y-81150000D01*
X159747538Y-81347538D02*
X159747538Y-89589543D01*
X159851472Y-79099999D02*
X159553170Y-79398300D01*
X152952081Y-96385000D02*
X151750000Y-96385000D01*
X159553170Y-79398300D02*
X159553170Y-80946830D01*
X159550000Y-81150000D02*
X159747538Y-81347538D01*
X159747538Y-89589543D02*
X152952081Y-96385000D01*
X159553170Y-80946830D02*
X159550000Y-80950000D01*
%TO.N,GPIO16*%
X169550000Y-96385000D02*
X165300000Y-92135000D01*
X165300000Y-81400000D02*
X163050000Y-79150000D01*
X165300000Y-92135000D02*
X165300000Y-81400000D01*
%TO.N,GPIO18*%
X166500000Y-82800000D02*
X166500000Y-85715000D01*
X166500000Y-85715000D02*
X169550000Y-88765000D01*
%TO.N,GPIO19*%
X166659953Y-81360639D02*
X167930000Y-82630686D01*
X166050000Y-80450000D02*
X165976446Y-80523554D01*
X166373554Y-80523554D02*
X166659953Y-80809953D01*
X167930000Y-82630686D02*
X167930000Y-84605000D01*
X169550000Y-85730000D02*
X169550000Y-86225000D01*
X166050000Y-80450000D02*
X166123554Y-80523554D01*
X166659953Y-80809953D02*
X166659953Y-81360639D01*
X166123554Y-80523554D02*
X166373554Y-80523554D01*
X167930000Y-84605000D02*
X169550000Y-86225000D01*
%TO.N,GPIO20*%
X167059953Y-81194953D02*
X167059953Y-80025639D01*
X169550000Y-83685000D02*
X167059953Y-81194953D01*
X166634314Y-79600000D02*
X166200000Y-79600000D01*
X167059953Y-80025639D02*
X166634314Y-79600000D01*
%TO.N,GPIO21*%
X166788939Y-78680000D02*
X167000000Y-78891061D01*
X168745000Y-81145000D02*
X169550000Y-81145000D01*
X167000000Y-78891061D02*
X167000000Y-79400000D01*
X167000000Y-79400000D02*
X168745000Y-81145000D01*
%TD*%
%TA.AperFunction,Conductor*%
%TO.N,GND*%
G36*
X160005584Y-75107206D02*
G01*
X160029275Y-75109561D01*
X160045204Y-75118840D01*
X160049784Y-75120185D01*
X160055707Y-75124958D01*
X160059772Y-75127326D01*
X160065371Y-75131764D01*
X160104087Y-75170480D01*
X160133475Y-75187447D01*
X160195412Y-75223207D01*
X160297273Y-75250501D01*
X160297276Y-75250501D01*
X160410323Y-75250501D01*
X160410339Y-75250500D01*
X162382745Y-75250500D01*
X162412185Y-75259144D01*
X162442172Y-75265668D01*
X162447187Y-75269422D01*
X162449784Y-75270185D01*
X162470426Y-75286819D01*
X162513181Y-75329574D01*
X162546666Y-75390897D01*
X162549500Y-75417255D01*
X162549500Y-78182745D01*
X162529815Y-78249784D01*
X162513181Y-78270426D01*
X161920426Y-78863181D01*
X161859103Y-78896666D01*
X161832745Y-78899500D01*
X161770943Y-78899500D01*
X161618216Y-78940423D01*
X161618209Y-78940426D01*
X161481290Y-79019475D01*
X161481282Y-79019481D01*
X161369481Y-79131282D01*
X161369475Y-79131290D01*
X161290426Y-79268209D01*
X161290423Y-79268216D01*
X161249500Y-79420943D01*
X161249500Y-79579057D01*
X161290423Y-79731782D01*
X161290423Y-79731783D01*
X161290426Y-79731790D01*
X161369475Y-79868709D01*
X161369479Y-79868714D01*
X161369480Y-79868716D01*
X161481284Y-79980520D01*
X161481286Y-79980521D01*
X161481290Y-79980524D01*
X161594585Y-80045934D01*
X161618216Y-80059577D01*
X161770943Y-80100500D01*
X161770945Y-80100500D01*
X161929055Y-80100500D01*
X161929057Y-80100500D01*
X162081784Y-80059577D01*
X162218716Y-79980520D01*
X162330520Y-79868716D01*
X162409577Y-79731784D01*
X162432808Y-79645083D01*
X162469170Y-79585426D01*
X162532016Y-79554896D01*
X162601392Y-79563190D01*
X162640262Y-79589498D01*
X162681284Y-79630520D01*
X162681286Y-79630521D01*
X162681290Y-79630524D01*
X162765353Y-79679057D01*
X162818216Y-79709577D01*
X162970943Y-79750500D01*
X163032745Y-79750500D01*
X163099784Y-79770185D01*
X163120426Y-79786819D01*
X164863181Y-81529573D01*
X164896666Y-81590896D01*
X164899500Y-81617254D01*
X164899500Y-90255765D01*
X164879815Y-90322804D01*
X164827011Y-90368559D01*
X164757853Y-90378503D01*
X164740538Y-90374656D01*
X164614071Y-90349500D01*
X164614069Y-90349500D01*
X164485931Y-90349500D01*
X164485929Y-90349500D01*
X164360261Y-90374497D01*
X164360255Y-90374499D01*
X164241875Y-90423533D01*
X164241866Y-90423538D01*
X164135331Y-90494723D01*
X164135327Y-90494726D01*
X164044726Y-90585327D01*
X164044723Y-90585331D01*
X163973538Y-90691866D01*
X163973533Y-90691875D01*
X163924499Y-90810255D01*
X163924497Y-90810261D01*
X163899500Y-90935928D01*
X163899500Y-90935931D01*
X163899500Y-91064069D01*
X163899500Y-91064071D01*
X163899499Y-91064071D01*
X163924497Y-91189738D01*
X163924499Y-91189744D01*
X163973533Y-91308124D01*
X163973538Y-91308133D01*
X164044723Y-91414668D01*
X164044726Y-91414672D01*
X164135327Y-91505273D01*
X164135331Y-91505276D01*
X164241866Y-91576461D01*
X164241872Y-91576464D01*
X164241873Y-91576465D01*
X164360256Y-91625501D01*
X164360260Y-91625501D01*
X164360261Y-91625502D01*
X164485928Y-91650500D01*
X164485931Y-91650500D01*
X164614071Y-91650500D01*
X164745718Y-91624313D01*
X164745957Y-91625517D01*
X164809366Y-91624948D01*
X164868481Y-91662194D01*
X164898075Y-91725486D01*
X164899500Y-91744234D01*
X164899500Y-92187726D01*
X164926793Y-92289589D01*
X164953156Y-92335250D01*
X164979520Y-92380913D01*
X166713017Y-94114410D01*
X168444325Y-95845717D01*
X168477810Y-95907040D01*
X168474575Y-95971715D01*
X168427829Y-96115587D01*
X168399500Y-96294448D01*
X168399500Y-96475551D01*
X168427829Y-96654410D01*
X168483787Y-96826636D01*
X168483788Y-96826639D01*
X168566006Y-96987997D01*
X168612953Y-97052615D01*
X168636433Y-97118421D01*
X168620607Y-97186475D01*
X168570502Y-97235170D01*
X168512635Y-97249500D01*
X152787365Y-97249500D01*
X152781311Y-97247722D01*
X152775113Y-97248893D01*
X152748190Y-97237997D01*
X152720326Y-97229815D01*
X152716195Y-97225047D01*
X152710347Y-97222681D01*
X152693587Y-97198956D01*
X152674571Y-97177011D01*
X152673673Y-97170768D01*
X152670033Y-97165615D01*
X152668760Y-97136597D01*
X152664627Y-97107853D01*
X152667177Y-97100527D01*
X152666971Y-97095812D01*
X152674344Y-97079947D01*
X152680212Y-97063096D01*
X152683365Y-97057681D01*
X152733996Y-96987994D01*
X152804252Y-96850107D01*
X152806007Y-96847096D01*
X152828954Y-96825380D01*
X152850650Y-96802409D01*
X152854260Y-96801432D01*
X152856756Y-96799071D01*
X152877402Y-96795172D01*
X152913160Y-96785500D01*
X153004806Y-96785500D01*
X153004808Y-96785500D01*
X153106669Y-96758207D01*
X153197994Y-96705480D01*
X160068018Y-89835456D01*
X160070469Y-89831211D01*
X160120745Y-89744130D01*
X160148038Y-89642270D01*
X160148038Y-81294811D01*
X160137126Y-81254087D01*
X160120745Y-81192950D01*
X160068018Y-81101625D01*
X159989989Y-81023596D01*
X159956504Y-80962273D01*
X159953670Y-80935915D01*
X159953670Y-79789446D01*
X159973355Y-79722407D01*
X160026159Y-79676652D01*
X160045570Y-79669673D01*
X160083256Y-79659576D01*
X160220188Y-79580519D01*
X160331992Y-79468715D01*
X160411049Y-79331783D01*
X160451972Y-79179056D01*
X160451972Y-79020942D01*
X160411049Y-78868215D01*
X160405791Y-78859107D01*
X160331996Y-78731289D01*
X160331990Y-78731281D01*
X160220189Y-78619480D01*
X160220181Y-78619474D01*
X160083262Y-78540425D01*
X160083258Y-78540423D01*
X160083256Y-78540422D01*
X159930529Y-78499499D01*
X159772415Y-78499499D01*
X159619688Y-78540422D01*
X159619685Y-78540423D01*
X159542618Y-78584918D01*
X159474717Y-78601391D01*
X159417176Y-78581475D01*
X159416242Y-78583094D01*
X159272277Y-78499977D01*
X159272273Y-78499975D01*
X159272271Y-78499974D01*
X159119544Y-78459051D01*
X158961430Y-78459051D01*
X158808703Y-78499974D01*
X158808696Y-78499977D01*
X158671777Y-78579026D01*
X158671769Y-78579032D01*
X158559968Y-78690833D01*
X158559962Y-78690841D01*
X158480910Y-78827764D01*
X158479882Y-78830248D01*
X158478453Y-78832020D01*
X158476846Y-78834805D01*
X158476411Y-78834554D01*
X158436040Y-78884651D01*
X158369745Y-78906714D01*
X158365322Y-78906793D01*
X158298461Y-78906793D01*
X158145734Y-78947716D01*
X158145727Y-78947719D01*
X158008808Y-79026768D01*
X158008800Y-79026774D01*
X157896999Y-79138575D01*
X157896993Y-79138583D01*
X157817944Y-79275502D01*
X157817941Y-79275509D01*
X157777018Y-79428236D01*
X157777018Y-79455227D01*
X157757333Y-79522266D01*
X157740699Y-79542908D01*
X157259029Y-80024578D01*
X157197706Y-80058063D01*
X157171348Y-80060897D01*
X156753387Y-80060897D01*
X156686348Y-80041212D01*
X156640593Y-79988408D01*
X156630649Y-79919250D01*
X156659674Y-79855694D01*
X156665706Y-79849216D01*
X156951732Y-79563190D01*
X157244009Y-79270913D01*
X157296736Y-79179588D01*
X157324029Y-79077727D01*
X157324029Y-78972273D01*
X157324029Y-78593726D01*
X157343714Y-78526687D01*
X157360348Y-78506045D01*
X157542649Y-78323744D01*
X157732328Y-78134064D01*
X157742556Y-78127641D01*
X157747789Y-78120948D01*
X157769756Y-78110559D01*
X157779112Y-78104684D01*
X157791089Y-78100500D01*
X157793412Y-78100500D01*
X157895272Y-78073207D01*
X157925091Y-78055991D01*
X157935192Y-78050158D01*
X157935195Y-78050158D01*
X157986591Y-78020484D01*
X157986590Y-78020484D01*
X157986598Y-78020480D01*
X158061165Y-77945913D01*
X158061166Y-77945911D01*
X158520261Y-77486816D01*
X158581583Y-77453334D01*
X158607941Y-77450500D01*
X159177725Y-77450500D01*
X159177727Y-77450500D01*
X159279588Y-77423207D01*
X159370913Y-77370480D01*
X159645911Y-77095481D01*
X159645913Y-77095480D01*
X159720480Y-77020913D01*
X159773207Y-76929587D01*
X159790379Y-76865500D01*
X159800501Y-76827727D01*
X159800501Y-76722273D01*
X159800501Y-76714678D01*
X159800500Y-76714660D01*
X159800500Y-75224500D01*
X159820185Y-75157461D01*
X159872989Y-75111706D01*
X159924500Y-75100500D01*
X159982745Y-75100500D01*
X160005584Y-75107206D01*
G37*
%TD.AperFunction*%
%TA.AperFunction,Conductor*%
G36*
X165905703Y-82982235D02*
G01*
X165936357Y-83024747D01*
X165936359Y-83024746D01*
X165936368Y-83024763D01*
X165939062Y-83028498D01*
X165940424Y-83031788D01*
X166019475Y-83168709D01*
X166019481Y-83168717D01*
X166063181Y-83212417D01*
X166096666Y-83273740D01*
X166099500Y-83300098D01*
X166099500Y-85767726D01*
X166126793Y-85869589D01*
X166140073Y-85892590D01*
X166179520Y-85960913D01*
X166179522Y-85960915D01*
X168444325Y-88225718D01*
X168477810Y-88287041D01*
X168474575Y-88351716D01*
X168427829Y-88495587D01*
X168399500Y-88674448D01*
X168399500Y-88855551D01*
X168427829Y-89034410D01*
X168483787Y-89206636D01*
X168483788Y-89206639D01*
X168566006Y-89367997D01*
X168672441Y-89514494D01*
X168672445Y-89514499D01*
X168800500Y-89642554D01*
X168800505Y-89642558D01*
X168928287Y-89735396D01*
X168947006Y-89748996D01*
X169048780Y-89800853D01*
X169078684Y-89816090D01*
X169129480Y-89864065D01*
X169146275Y-89931886D01*
X169123737Y-89998021D01*
X169069022Y-90041472D01*
X169060708Y-90044506D01*
X169031781Y-90053905D01*
X168842439Y-90150380D01*
X168788282Y-90189727D01*
X168788282Y-90189728D01*
X169420591Y-90822037D01*
X169357007Y-90839075D01*
X169242993Y-90904901D01*
X169149901Y-90997993D01*
X169084075Y-91112007D01*
X169067037Y-91175591D01*
X168434728Y-90543282D01*
X168434727Y-90543282D01*
X168395380Y-90597439D01*
X168298904Y-90786782D01*
X168233242Y-90988869D01*
X168233242Y-90988872D01*
X168200000Y-91198753D01*
X168200000Y-91411246D01*
X168233242Y-91621127D01*
X168233242Y-91621130D01*
X168298904Y-91823217D01*
X168395375Y-92012550D01*
X168434728Y-92066716D01*
X169067037Y-91434408D01*
X169084075Y-91497993D01*
X169149901Y-91612007D01*
X169242993Y-91705099D01*
X169357007Y-91770925D01*
X169420590Y-91787962D01*
X168788282Y-92420269D01*
X168788282Y-92420270D01*
X168842449Y-92459624D01*
X169031780Y-92556094D01*
X169060705Y-92565492D01*
X169118381Y-92604929D01*
X169145580Y-92669287D01*
X169133667Y-92738134D01*
X169086424Y-92789610D01*
X169078685Y-92793908D01*
X168947004Y-92861004D01*
X168800505Y-92967441D01*
X168800500Y-92967445D01*
X168672445Y-93095500D01*
X168672441Y-93095505D01*
X168566006Y-93242002D01*
X168483788Y-93403360D01*
X168483787Y-93403363D01*
X168427829Y-93575589D01*
X168399500Y-93754448D01*
X168399500Y-93935551D01*
X168427829Y-94114410D01*
X168483787Y-94286636D01*
X168483788Y-94286639D01*
X168566006Y-94447997D01*
X168643838Y-94555125D01*
X168672447Y-94594501D01*
X168800499Y-94722553D01*
X168815751Y-94733634D01*
X168815754Y-94733637D01*
X168930502Y-94817005D01*
X168947006Y-94828996D01*
X169052484Y-94882740D01*
X169108360Y-94911211D01*
X169108363Y-94911212D01*
X169122792Y-94915900D01*
X169280591Y-94967171D01*
X169353639Y-94978740D01*
X169440678Y-94992527D01*
X169503813Y-95022456D01*
X169540744Y-95081768D01*
X169539746Y-95151631D01*
X169501136Y-95209863D01*
X169440678Y-95237473D01*
X169280587Y-95262829D01*
X169136715Y-95309575D01*
X169066874Y-95311570D01*
X169010717Y-95279325D01*
X168647292Y-94915900D01*
X168479100Y-94747707D01*
X165736819Y-92005426D01*
X165703334Y-91944103D01*
X165700500Y-91917745D01*
X165700500Y-83075948D01*
X165720185Y-83008909D01*
X165772989Y-82963154D01*
X165842147Y-82953210D01*
X165905703Y-82982235D01*
G37*
%TD.AperFunction*%
%TA.AperFunction,Conductor*%
G36*
X170613181Y-92014627D02*
G01*
X170646666Y-92075950D01*
X170649500Y-92102308D01*
X170649500Y-93019349D01*
X170629815Y-93086388D01*
X170577011Y-93132143D01*
X170507853Y-93142087D01*
X170444297Y-93113062D01*
X170431206Y-93098800D01*
X170430725Y-93099212D01*
X170427554Y-93095500D01*
X170299499Y-92967445D01*
X170299494Y-92967441D01*
X170152995Y-92861004D01*
X170021314Y-92793908D01*
X169970519Y-92745934D01*
X169953724Y-92678113D01*
X169976262Y-92611978D01*
X170030977Y-92568527D01*
X170039295Y-92565492D01*
X170068217Y-92556095D01*
X170257554Y-92459622D01*
X170311716Y-92420270D01*
X170311717Y-92420270D01*
X169679408Y-91787962D01*
X169742993Y-91770925D01*
X169857007Y-91705099D01*
X169950099Y-91612007D01*
X170015925Y-91497993D01*
X170032962Y-91434408D01*
X170613181Y-92014627D01*
G37*
%TD.AperFunction*%
%TA.AperFunction,Conductor*%
G36*
X151284075Y-91497993D02*
G01*
X151349901Y-91612007D01*
X151442993Y-91705099D01*
X151557007Y-91770925D01*
X151620590Y-91787962D01*
X150988282Y-92420269D01*
X150988282Y-92420270D01*
X151042449Y-92459624D01*
X151231780Y-92556094D01*
X151260705Y-92565492D01*
X151318381Y-92604929D01*
X151345580Y-92669287D01*
X151333667Y-92738134D01*
X151286424Y-92789610D01*
X151278685Y-92793908D01*
X151147004Y-92861004D01*
X151000505Y-92967441D01*
X151000500Y-92967445D01*
X150872445Y-93095500D01*
X150869275Y-93099212D01*
X150867614Y-93097793D01*
X150819474Y-93134906D01*
X150749859Y-93140876D01*
X150688069Y-93108262D01*
X150653719Y-93047419D01*
X150650500Y-93019349D01*
X150650500Y-92102308D01*
X150670185Y-92035269D01*
X150686819Y-92014627D01*
X151267037Y-91434408D01*
X151284075Y-91497993D01*
G37*
%TD.AperFunction*%
%TA.AperFunction,Conductor*%
G36*
X158668834Y-84200072D02*
G01*
X158724767Y-84241944D01*
X158749184Y-84307408D01*
X158749500Y-84316254D01*
X158749500Y-86227744D01*
X158729815Y-86294783D01*
X158713181Y-86315425D01*
X153267985Y-91760620D01*
X153206662Y-91794105D01*
X153136970Y-91789121D01*
X153081037Y-91747249D01*
X153056620Y-91681785D01*
X153062375Y-91634616D01*
X153066756Y-91621132D01*
X153066757Y-91621127D01*
X153100000Y-91411246D01*
X153100000Y-91198753D01*
X153066757Y-90988872D01*
X153066757Y-90988869D01*
X153001095Y-90786782D01*
X152904624Y-90597449D01*
X152865270Y-90543282D01*
X152865269Y-90543282D01*
X152232962Y-91175590D01*
X152215925Y-91112007D01*
X152150099Y-90997993D01*
X152057007Y-90904901D01*
X151942993Y-90839075D01*
X151879409Y-90822037D01*
X152511716Y-90189728D01*
X152457550Y-90150375D01*
X152268217Y-90053904D01*
X152239292Y-90044506D01*
X152181616Y-90005068D01*
X152154418Y-89940710D01*
X152166333Y-89871863D01*
X152213577Y-89820388D01*
X152221315Y-89816090D01*
X152352994Y-89748996D01*
X152499501Y-89642553D01*
X152627553Y-89514501D01*
X152733996Y-89367994D01*
X152802675Y-89233205D01*
X152850650Y-89182409D01*
X152913160Y-89165500D01*
X153487725Y-89165500D01*
X153487727Y-89165500D01*
X153589588Y-89138207D01*
X153680913Y-89085480D01*
X158537819Y-84228572D01*
X158599142Y-84195088D01*
X158668834Y-84200072D01*
G37*
%TD.AperFunction*%
%TA.AperFunction,Conductor*%
G36*
X150855703Y-89496937D02*
G01*
X150868788Y-89511203D01*
X150869275Y-89510788D01*
X150872445Y-89514499D01*
X151000500Y-89642554D01*
X151000505Y-89642558D01*
X151128287Y-89735396D01*
X151147006Y-89748996D01*
X151248780Y-89800853D01*
X151278684Y-89816090D01*
X151329480Y-89864065D01*
X151346275Y-89931886D01*
X151323737Y-89998021D01*
X151269022Y-90041472D01*
X151260708Y-90044506D01*
X151231781Y-90053905D01*
X151042439Y-90150380D01*
X150988282Y-90189727D01*
X150988282Y-90189728D01*
X151620591Y-90822037D01*
X151557007Y-90839075D01*
X151442993Y-90904901D01*
X151349901Y-90997993D01*
X151284075Y-91112007D01*
X151267037Y-91175591D01*
X150686819Y-90595373D01*
X150653334Y-90534050D01*
X150650500Y-90507692D01*
X150650500Y-89590650D01*
X150670185Y-89523611D01*
X150722989Y-89477856D01*
X150792147Y-89467912D01*
X150855703Y-89496937D01*
G37*
%TD.AperFunction*%
%TA.AperFunction,Conductor*%
G36*
X170611869Y-89501676D02*
G01*
X170646261Y-89562495D01*
X170649500Y-89590650D01*
X170649500Y-90507692D01*
X170629815Y-90574731D01*
X170613181Y-90595373D01*
X170032962Y-91175591D01*
X170015925Y-91112007D01*
X169950099Y-90997993D01*
X169857007Y-90904901D01*
X169742993Y-90839075D01*
X169679409Y-90822037D01*
X170311716Y-90189728D01*
X170257550Y-90150375D01*
X170068217Y-90053904D01*
X170039292Y-90044506D01*
X169981616Y-90005068D01*
X169954418Y-89940710D01*
X169966333Y-89871863D01*
X170013577Y-89820388D01*
X170021315Y-89816090D01*
X170152994Y-89748996D01*
X170299501Y-89642553D01*
X170427553Y-89514501D01*
X170427558Y-89514494D01*
X170430725Y-89510788D01*
X170432398Y-89512217D01*
X170480445Y-89475125D01*
X170550055Y-89469106D01*
X170611869Y-89501676D01*
G37*
%TD.AperFunction*%
%TA.AperFunction,Conductor*%
G36*
X152289281Y-72090674D02*
G01*
X152652706Y-72454099D01*
X156040179Y-75841571D01*
X156040189Y-75841582D01*
X156044519Y-75845912D01*
X156044520Y-75845913D01*
X156119087Y-75920480D01*
X156186805Y-75959577D01*
X156210413Y-75973207D01*
X156312273Y-76000501D01*
X156312275Y-76000501D01*
X156425323Y-76000501D01*
X156425339Y-76000500D01*
X158122725Y-76000500D01*
X158122727Y-76000500D01*
X158124731Y-75999963D01*
X158126806Y-75999963D01*
X158130786Y-75999439D01*
X158130855Y-75999963D01*
X158182815Y-75999963D01*
X158182884Y-75999439D01*
X158186864Y-75999963D01*
X158188939Y-75999963D01*
X158190943Y-76000500D01*
X158190945Y-76000500D01*
X158349055Y-76000500D01*
X158349057Y-76000500D01*
X158501784Y-75959577D01*
X158638716Y-75880520D01*
X158750520Y-75768716D01*
X158768112Y-75738244D01*
X158818679Y-75690029D01*
X158887286Y-75676805D01*
X158952151Y-75702773D01*
X158992680Y-75759687D01*
X158999500Y-75800244D01*
X158999500Y-76525500D01*
X158979815Y-76592539D01*
X158927011Y-76638294D01*
X158875500Y-76649500D01*
X158451025Y-76649500D01*
X158451009Y-76649499D01*
X158443413Y-76649499D01*
X158337960Y-76649499D01*
X158236099Y-76676793D01*
X158144773Y-76729520D01*
X158077275Y-76797018D01*
X158077274Y-76797017D01*
X158077272Y-76797020D01*
X157608358Y-77265933D01*
X157600607Y-77271036D01*
X157597169Y-77275848D01*
X157581133Y-77283858D01*
X157566574Y-77293445D01*
X157551377Y-77299500D01*
X157547273Y-77299500D01*
X157445413Y-77326793D01*
X157369745Y-77370480D01*
X157361983Y-77374960D01*
X157361976Y-77374964D01*
X157354090Y-77379517D01*
X157354085Y-77379521D01*
X156603051Y-78130555D01*
X156603047Y-78130561D01*
X156550321Y-78221883D01*
X156550322Y-78221884D01*
X156523029Y-78323744D01*
X156523029Y-78807744D01*
X156503344Y-78874783D01*
X156486710Y-78895425D01*
X155320519Y-80061615D01*
X155259196Y-80095100D01*
X155200745Y-80093709D01*
X155129057Y-80074500D01*
X154970943Y-80074500D01*
X154818216Y-80115423D01*
X154818209Y-80115426D01*
X154681290Y-80194475D01*
X154681282Y-80194481D01*
X154569481Y-80306282D01*
X154569475Y-80306290D01*
X154490426Y-80443209D01*
X154490423Y-80443216D01*
X154449500Y-80595943D01*
X154449500Y-80754057D01*
X154486040Y-80890424D01*
X154490423Y-80906783D01*
X154490424Y-80906786D01*
X154494302Y-80913503D01*
X154510772Y-80981403D01*
X154487919Y-81047430D01*
X154432996Y-81090619D01*
X154386913Y-81099500D01*
X153013541Y-81099500D01*
X152946502Y-81079815D01*
X152900747Y-81027011D01*
X152891068Y-80994898D01*
X152880871Y-80930520D01*
X152872171Y-80875591D01*
X152816211Y-80703361D01*
X152816211Y-80703360D01*
X152761478Y-80595943D01*
X152733996Y-80542006D01*
X152720396Y-80523287D01*
X152627558Y-80395505D01*
X152627554Y-80395500D01*
X152499499Y-80267445D01*
X152499494Y-80267441D01*
X152352995Y-80161004D01*
X152221314Y-80093908D01*
X152170519Y-80045934D01*
X152153724Y-79978113D01*
X152176262Y-79911978D01*
X152230977Y-79868527D01*
X152239295Y-79865492D01*
X152268217Y-79856095D01*
X152457554Y-79759622D01*
X152511716Y-79720270D01*
X152511717Y-79720270D01*
X151879408Y-79087962D01*
X151942993Y-79070925D01*
X152057007Y-79005099D01*
X152150099Y-78912007D01*
X152215925Y-78797993D01*
X152232962Y-78734409D01*
X152865270Y-79366717D01*
X152865270Y-79366716D01*
X152904622Y-79312554D01*
X153001095Y-79123217D01*
X153066757Y-78921130D01*
X153066757Y-78921127D01*
X153100000Y-78711246D01*
X153100000Y-78498753D01*
X153066757Y-78288872D01*
X153066757Y-78288869D01*
X153001095Y-78086782D01*
X152904624Y-77897449D01*
X152865270Y-77843282D01*
X152865269Y-77843282D01*
X152232962Y-78475590D01*
X152215925Y-78412007D01*
X152150099Y-78297993D01*
X152057007Y-78204901D01*
X151942993Y-78139075D01*
X151879409Y-78122037D01*
X152511716Y-77489728D01*
X152457550Y-77450375D01*
X152268217Y-77353904D01*
X152239292Y-77344506D01*
X152181616Y-77305068D01*
X152154418Y-77240710D01*
X152166333Y-77171863D01*
X152213577Y-77120388D01*
X152221315Y-77116090D01*
X152352994Y-77048996D01*
X152499501Y-76942553D01*
X152627553Y-76814501D01*
X152733996Y-76667994D01*
X152816211Y-76506639D01*
X152872171Y-76334409D01*
X152886765Y-76242259D01*
X152900500Y-76155551D01*
X152900500Y-75974448D01*
X152880141Y-75845913D01*
X152872171Y-75795591D01*
X152816211Y-75623361D01*
X152816211Y-75623360D01*
X152787740Y-75567484D01*
X152733996Y-75462006D01*
X152682333Y-75390897D01*
X152627558Y-75315505D01*
X152627554Y-75315500D01*
X152499499Y-75187445D01*
X152499494Y-75187441D01*
X152352997Y-75081006D01*
X152352996Y-75081005D01*
X152352994Y-75081004D01*
X152301300Y-75054664D01*
X152191639Y-74998788D01*
X152191636Y-74998787D01*
X152019410Y-74942829D01*
X151859321Y-74917473D01*
X151796186Y-74887544D01*
X151759255Y-74828232D01*
X151760253Y-74758370D01*
X151798863Y-74700137D01*
X151859321Y-74672527D01*
X151933851Y-74660722D01*
X152019409Y-74647171D01*
X152191639Y-74591211D01*
X152352994Y-74508996D01*
X152499501Y-74402553D01*
X152627553Y-74274501D01*
X152733996Y-74127994D01*
X152816211Y-73966639D01*
X152872171Y-73794409D01*
X152886765Y-73702259D01*
X152900500Y-73615551D01*
X152900500Y-73434448D01*
X152884019Y-73330397D01*
X152872171Y-73255591D01*
X152816211Y-73083361D01*
X152816211Y-73083360D01*
X152787740Y-73027484D01*
X152733996Y-72922006D01*
X152661401Y-72822087D01*
X152638637Y-72790754D01*
X152638634Y-72790751D01*
X152627553Y-72775499D01*
X152499501Y-72647447D01*
X152484248Y-72636365D01*
X152484244Y-72636361D01*
X152352997Y-72541006D01*
X152352996Y-72541005D01*
X152352994Y-72541004D01*
X152301300Y-72514664D01*
X152191639Y-72458788D01*
X152191636Y-72458787D01*
X152019410Y-72402829D01*
X151859321Y-72377473D01*
X151796186Y-72347544D01*
X151759255Y-72288232D01*
X151760253Y-72218370D01*
X151798863Y-72160137D01*
X151859321Y-72132527D01*
X152019409Y-72107171D01*
X152070182Y-72090674D01*
X152163284Y-72060423D01*
X152233123Y-72058429D01*
X152289281Y-72090674D01*
G37*
%TD.AperFunction*%
%TA.AperFunction,Conductor*%
G36*
X168342539Y-47270185D02*
G01*
X168388294Y-47322989D01*
X168399500Y-47374500D01*
X168399500Y-49019856D01*
X168399502Y-49019882D01*
X168402413Y-49044987D01*
X168402415Y-49044991D01*
X168447793Y-49147764D01*
X168447794Y-49147765D01*
X168527235Y-49227206D01*
X168630009Y-49272585D01*
X168655135Y-49275500D01*
X169392873Y-49275499D01*
X169459910Y-49295183D01*
X169505665Y-49347987D01*
X169515609Y-49417146D01*
X169486584Y-49480702D01*
X169427806Y-49518476D01*
X169412270Y-49521972D01*
X169280589Y-49542829D01*
X169108363Y-49598787D01*
X169108360Y-49598788D01*
X168947002Y-49681006D01*
X168800505Y-49787441D01*
X168800500Y-49787445D01*
X168672445Y-49915500D01*
X168672441Y-49915505D01*
X168566006Y-50062002D01*
X168483788Y-50223360D01*
X168483787Y-50223363D01*
X168427829Y-50395589D01*
X168399500Y-50574448D01*
X168399500Y-50755551D01*
X168427829Y-50934410D01*
X168483787Y-51106636D01*
X168483788Y-51106639D01*
X168539664Y-51216300D01*
X168563429Y-51262941D01*
X168566006Y-51267997D01*
X168672441Y-51414494D01*
X168672445Y-51414499D01*
X168800500Y-51542554D01*
X168800505Y-51542558D01*
X168928287Y-51635396D01*
X168947006Y-51648996D01*
X169048780Y-51700853D01*
X169078684Y-51716090D01*
X169129480Y-51764065D01*
X169146275Y-51831886D01*
X169123737Y-51898021D01*
X169069022Y-51941472D01*
X169060708Y-51944506D01*
X169031781Y-51953905D01*
X168842439Y-52050380D01*
X168788282Y-52089727D01*
X168788282Y-52089728D01*
X169420591Y-52722037D01*
X169357007Y-52739075D01*
X169242993Y-52804901D01*
X169149901Y-52897993D01*
X169084075Y-53012007D01*
X169067037Y-53075591D01*
X168434728Y-52443282D01*
X168434727Y-52443282D01*
X168395380Y-52497439D01*
X168298904Y-52686782D01*
X168233242Y-52888869D01*
X168233242Y-52888872D01*
X168200000Y-53098753D01*
X168200000Y-53311246D01*
X168233242Y-53521127D01*
X168233242Y-53521130D01*
X168298904Y-53723217D01*
X168395375Y-53912550D01*
X168434728Y-53966716D01*
X169067037Y-53334408D01*
X169084075Y-53397993D01*
X169149901Y-53512007D01*
X169242993Y-53605099D01*
X169357007Y-53670925D01*
X169420590Y-53687962D01*
X168788282Y-54320269D01*
X168788282Y-54320270D01*
X168842449Y-54359624D01*
X169031780Y-54456094D01*
X169060705Y-54465492D01*
X169118381Y-54504929D01*
X169145580Y-54569287D01*
X169133667Y-54638134D01*
X169086424Y-54689610D01*
X169078685Y-54693908D01*
X168947004Y-54761004D01*
X168800505Y-54867441D01*
X168800500Y-54867445D01*
X168672445Y-54995500D01*
X168672441Y-54995505D01*
X168566006Y-55142002D01*
X168483788Y-55303360D01*
X168483787Y-55303363D01*
X168427829Y-55475589D01*
X168399500Y-55654448D01*
X168399500Y-55835551D01*
X168427829Y-56014410D01*
X168483787Y-56186636D01*
X168483788Y-56186639D01*
X168566006Y-56347997D01*
X168672441Y-56494494D01*
X168672445Y-56494499D01*
X168800500Y-56622554D01*
X168800505Y-56622558D01*
X168928287Y-56715396D01*
X168947006Y-56728996D01*
X169052484Y-56782740D01*
X169108360Y-56811211D01*
X169108363Y-56811212D01*
X169194476Y-56839191D01*
X169280591Y-56867171D01*
X169353639Y-56878740D01*
X169440678Y-56892527D01*
X169503813Y-56922456D01*
X169540744Y-56981768D01*
X169539746Y-57051631D01*
X169501136Y-57109863D01*
X169440678Y-57137473D01*
X169280589Y-57162829D01*
X169108363Y-57218787D01*
X169108360Y-57218788D01*
X168947002Y-57301006D01*
X168800505Y-57407441D01*
X168800500Y-57407445D01*
X168672445Y-57535500D01*
X168672441Y-57535505D01*
X168566006Y-57682002D01*
X168483788Y-57843360D01*
X168483787Y-57843363D01*
X168427829Y-58015589D01*
X168399500Y-58194448D01*
X168399500Y-58375551D01*
X168427829Y-58554410D01*
X168483787Y-58726636D01*
X168483788Y-58726639D01*
X168566006Y-58887997D01*
X168672441Y-59034494D01*
X168672445Y-59034499D01*
X168800500Y-59162554D01*
X168800505Y-59162558D01*
X168825019Y-59180368D01*
X168947006Y-59268996D01*
X169052484Y-59322740D01*
X169108360Y-59351211D01*
X169108363Y-59351212D01*
X169194476Y-59379191D01*
X169280591Y-59407171D01*
X169353639Y-59418740D01*
X169440678Y-59432527D01*
X169503813Y-59462456D01*
X169540744Y-59521768D01*
X169539746Y-59591631D01*
X169501136Y-59649863D01*
X169440678Y-59677473D01*
X169280589Y-59702829D01*
X169108363Y-59758787D01*
X169108360Y-59758788D01*
X168947002Y-59841006D01*
X168800505Y-59947441D01*
X168800500Y-59947445D01*
X168672445Y-60075500D01*
X168672441Y-60075505D01*
X168566006Y-60222002D01*
X168483788Y-60383360D01*
X168483787Y-60383363D01*
X168427829Y-60555589D01*
X168399500Y-60734448D01*
X168399500Y-60915551D01*
X168427829Y-61094410D01*
X168483787Y-61266636D01*
X168483788Y-61266639D01*
X168513016Y-61324000D01*
X168557360Y-61411030D01*
X168566006Y-61427997D01*
X168672441Y-61574494D01*
X168672445Y-61574499D01*
X168800500Y-61702554D01*
X168800505Y-61702558D01*
X168867609Y-61751311D01*
X168947006Y-61808996D01*
X169052484Y-61862740D01*
X169108360Y-61891211D01*
X169108363Y-61891212D01*
X169194476Y-61919191D01*
X169280591Y-61947171D01*
X169353639Y-61958740D01*
X169440678Y-61972527D01*
X169503813Y-62002456D01*
X169540744Y-62061768D01*
X169539746Y-62131631D01*
X169501136Y-62189863D01*
X169440678Y-62217473D01*
X169280589Y-62242829D01*
X169108363Y-62298787D01*
X169108360Y-62298788D01*
X168947002Y-62381006D01*
X168800505Y-62487441D01*
X168800500Y-62487445D01*
X168672445Y-62615500D01*
X168672441Y-62615505D01*
X168566006Y-62762002D01*
X168483788Y-62923360D01*
X168483787Y-62923363D01*
X168427829Y-63095589D01*
X168399500Y-63274448D01*
X168399500Y-63455551D01*
X168427829Y-63634410D01*
X168483787Y-63806636D01*
X168483788Y-63806639D01*
X168566006Y-63967997D01*
X168672441Y-64114494D01*
X168672445Y-64114499D01*
X168800500Y-64242554D01*
X168800505Y-64242558D01*
X168928287Y-64335396D01*
X168947006Y-64348996D01*
X169048780Y-64400853D01*
X169078684Y-64416090D01*
X169129480Y-64464065D01*
X169146275Y-64531886D01*
X169123737Y-64598021D01*
X169069022Y-64641472D01*
X169060708Y-64644506D01*
X169031781Y-64653905D01*
X168842439Y-64750380D01*
X168788282Y-64789727D01*
X168788282Y-64789728D01*
X169420591Y-65422037D01*
X169357007Y-65439075D01*
X169242993Y-65504901D01*
X169149901Y-65597993D01*
X169084075Y-65712007D01*
X169067037Y-65775591D01*
X168434728Y-65143282D01*
X168434727Y-65143282D01*
X168395380Y-65197439D01*
X168298904Y-65386782D01*
X168233242Y-65588869D01*
X168233242Y-65588872D01*
X168200000Y-65798753D01*
X168200000Y-66011246D01*
X168233242Y-66221127D01*
X168233242Y-66221130D01*
X168298904Y-66423217D01*
X168395375Y-66612550D01*
X168434728Y-66666716D01*
X169067037Y-66034408D01*
X169084075Y-66097993D01*
X169149901Y-66212007D01*
X169242993Y-66305099D01*
X169357007Y-66370925D01*
X169420590Y-66387962D01*
X168788282Y-67020269D01*
X168788282Y-67020270D01*
X168842449Y-67059624D01*
X169031780Y-67156094D01*
X169060705Y-67165492D01*
X169118381Y-67204929D01*
X169145580Y-67269287D01*
X169133667Y-67338134D01*
X169086424Y-67389610D01*
X169078685Y-67393908D01*
X168947004Y-67461004D01*
X168800505Y-67567441D01*
X168800500Y-67567445D01*
X168672445Y-67695500D01*
X168672441Y-67695505D01*
X168566006Y-67842002D01*
X168483788Y-68003360D01*
X168483787Y-68003363D01*
X168427829Y-68175589D01*
X168399500Y-68354448D01*
X168399500Y-68535551D01*
X168427829Y-68714410D01*
X168483787Y-68886636D01*
X168483788Y-68886639D01*
X168566006Y-69047997D01*
X168672441Y-69194494D01*
X168672445Y-69194499D01*
X168800500Y-69322554D01*
X168800505Y-69322558D01*
X168913514Y-69404663D01*
X168947006Y-69428996D01*
X169052484Y-69482740D01*
X169108360Y-69511211D01*
X169108363Y-69511212D01*
X169194476Y-69539191D01*
X169280591Y-69567171D01*
X169353639Y-69578740D01*
X169440678Y-69592527D01*
X169503813Y-69622456D01*
X169540744Y-69681768D01*
X169539746Y-69751631D01*
X169501136Y-69809863D01*
X169440678Y-69837473D01*
X169280589Y-69862829D01*
X169108363Y-69918787D01*
X169108360Y-69918788D01*
X168947002Y-70001006D01*
X168800505Y-70107441D01*
X168800500Y-70107445D01*
X168672445Y-70235500D01*
X168672441Y-70235505D01*
X168566006Y-70382002D01*
X168483788Y-70543360D01*
X168483787Y-70543363D01*
X168427829Y-70715589D01*
X168399500Y-70894448D01*
X168399500Y-71075551D01*
X168427829Y-71254410D01*
X168483787Y-71426636D01*
X168483788Y-71426639D01*
X168566006Y-71587997D01*
X168672441Y-71734494D01*
X168672445Y-71734499D01*
X168800500Y-71862554D01*
X168800505Y-71862558D01*
X168928287Y-71955396D01*
X168947006Y-71968996D01*
X169052484Y-72022740D01*
X169108360Y-72051211D01*
X169108363Y-72051212D01*
X169194476Y-72079191D01*
X169280591Y-72107171D01*
X169353639Y-72118740D01*
X169440678Y-72132527D01*
X169503813Y-72162456D01*
X169540744Y-72221768D01*
X169539746Y-72291631D01*
X169501136Y-72349863D01*
X169440678Y-72377473D01*
X169280589Y-72402829D01*
X169108363Y-72458787D01*
X169108360Y-72458788D01*
X168947002Y-72541006D01*
X168800505Y-72647441D01*
X168800500Y-72647445D01*
X168672445Y-72775500D01*
X168672441Y-72775505D01*
X168566006Y-72922002D01*
X168483788Y-73083360D01*
X168483787Y-73083363D01*
X168427829Y-73255589D01*
X168399500Y-73434448D01*
X168399500Y-73615551D01*
X168427829Y-73794410D01*
X168483787Y-73966636D01*
X168483788Y-73966639D01*
X168566006Y-74127997D01*
X168672441Y-74274494D01*
X168672445Y-74274499D01*
X168800500Y-74402554D01*
X168800505Y-74402558D01*
X168892033Y-74469056D01*
X168947006Y-74508996D01*
X169052484Y-74562740D01*
X169108360Y-74591211D01*
X169108363Y-74591212D01*
X169194476Y-74619191D01*
X169280591Y-74647171D01*
X169353639Y-74658740D01*
X169440678Y-74672527D01*
X169503813Y-74702456D01*
X169540744Y-74761768D01*
X169539746Y-74831631D01*
X169501136Y-74889863D01*
X169440678Y-74917473D01*
X169280589Y-74942829D01*
X169108363Y-74998787D01*
X169108360Y-74998788D01*
X168947002Y-75081006D01*
X168800505Y-75187441D01*
X168800500Y-75187445D01*
X168672445Y-75315500D01*
X168672441Y-75315505D01*
X168566006Y-75462002D01*
X168483788Y-75623360D01*
X168483787Y-75623363D01*
X168427829Y-75795589D01*
X168399500Y-75974448D01*
X168399500Y-76155551D01*
X168427829Y-76334410D01*
X168483787Y-76506636D01*
X168483788Y-76506639D01*
X168535999Y-76609107D01*
X168556580Y-76649499D01*
X168566006Y-76667997D01*
X168672441Y-76814494D01*
X168672445Y-76814499D01*
X168800500Y-76942554D01*
X168800505Y-76942558D01*
X168908353Y-77020913D01*
X168947006Y-77048996D01*
X169048780Y-77100853D01*
X169078684Y-77116090D01*
X169129480Y-77164065D01*
X169146275Y-77231886D01*
X169123737Y-77298021D01*
X169069022Y-77341472D01*
X169060708Y-77344506D01*
X169031781Y-77353905D01*
X168842439Y-77450380D01*
X168788282Y-77489727D01*
X168788282Y-77489728D01*
X169420591Y-78122037D01*
X169357007Y-78139075D01*
X169242993Y-78204901D01*
X169149901Y-78297993D01*
X169084075Y-78412007D01*
X169067037Y-78475591D01*
X168434728Y-77843282D01*
X168434727Y-77843282D01*
X168395380Y-77897439D01*
X168298904Y-78086782D01*
X168233242Y-78288869D01*
X168233242Y-78288872D01*
X168200000Y-78498753D01*
X168200000Y-78711246D01*
X168233242Y-78921127D01*
X168233242Y-78921130D01*
X168298904Y-79123217D01*
X168395375Y-79312550D01*
X168434728Y-79366716D01*
X169067037Y-78734408D01*
X169084075Y-78797993D01*
X169149901Y-78912007D01*
X169242993Y-79005099D01*
X169357007Y-79070925D01*
X169420590Y-79087962D01*
X168788282Y-79720269D01*
X168788282Y-79720270D01*
X168842449Y-79759624D01*
X169031780Y-79856094D01*
X169060705Y-79865492D01*
X169118381Y-79904929D01*
X169145580Y-79969287D01*
X169133667Y-80038134D01*
X169086424Y-80089610D01*
X169078685Y-80093908D01*
X168947004Y-80161004D01*
X168800506Y-80267440D01*
X168704850Y-80363096D01*
X168643526Y-80396580D01*
X168573835Y-80391596D01*
X168529488Y-80363095D01*
X167436819Y-79270426D01*
X167403334Y-79209103D01*
X167400500Y-79182745D01*
X167400500Y-78838335D01*
X167398333Y-78830248D01*
X167392467Y-78808358D01*
X167389771Y-78767185D01*
X167389439Y-78767185D01*
X167389439Y-78762120D01*
X167389305Y-78760075D01*
X167389439Y-78759057D01*
X167389439Y-78600945D01*
X167389439Y-78600943D01*
X167348516Y-78448216D01*
X167276653Y-78323744D01*
X167269463Y-78311290D01*
X167269457Y-78311282D01*
X167157656Y-78199481D01*
X167157648Y-78199475D01*
X167020729Y-78120426D01*
X167020725Y-78120424D01*
X167020723Y-78120423D01*
X166867996Y-78079500D01*
X166709882Y-78079500D01*
X166557155Y-78120423D01*
X166557148Y-78120426D01*
X166420229Y-78199475D01*
X166420221Y-78199481D01*
X166308420Y-78311282D01*
X166308414Y-78311290D01*
X166229365Y-78448209D01*
X166229363Y-78448214D01*
X166229362Y-78448216D01*
X166188439Y-78600943D01*
X166188439Y-78759057D01*
X166211935Y-78846745D01*
X166210272Y-78916595D01*
X166171109Y-78974457D01*
X166124254Y-78998613D01*
X166120944Y-78999500D01*
X166120943Y-78999500D01*
X166100047Y-79005099D01*
X165968214Y-79040423D01*
X165968209Y-79040426D01*
X165831290Y-79119475D01*
X165831282Y-79119481D01*
X165719481Y-79231282D01*
X165719475Y-79231290D01*
X165640426Y-79368209D01*
X165640423Y-79368216D01*
X165599500Y-79520943D01*
X165599500Y-79679057D01*
X165621088Y-79759622D01*
X165640423Y-79831783D01*
X165640425Y-79831788D01*
X165658205Y-79862585D01*
X165674676Y-79930485D01*
X165651823Y-79996512D01*
X165638499Y-80012263D01*
X165569481Y-80081282D01*
X165569475Y-80081290D01*
X165490426Y-80218209D01*
X165490423Y-80218216D01*
X165449500Y-80370943D01*
X165449500Y-80529056D01*
X165490423Y-80681783D01*
X165493534Y-80689294D01*
X165490567Y-80690522D01*
X165503475Y-80743803D01*
X165480601Y-80809822D01*
X165425666Y-80852995D01*
X165356111Y-80859615D01*
X165294018Y-80827579D01*
X165291936Y-80825544D01*
X164581818Y-80115426D01*
X163686819Y-79220426D01*
X163653334Y-79159103D01*
X163650500Y-79132745D01*
X163650500Y-79070945D01*
X163650500Y-79070943D01*
X163609577Y-78918216D01*
X163602936Y-78906714D01*
X163530524Y-78781290D01*
X163530518Y-78781282D01*
X163418718Y-78669482D01*
X163418716Y-78669480D01*
X163418713Y-78669478D01*
X163418709Y-78669475D01*
X163391741Y-78653905D01*
X163343526Y-78603338D01*
X163330304Y-78534730D01*
X163333964Y-78514441D01*
X163350500Y-78452727D01*
X163350500Y-78347273D01*
X163350500Y-75262729D01*
X163350501Y-75262716D01*
X163350501Y-75147275D01*
X163350501Y-75147273D01*
X163323207Y-75045412D01*
X163299636Y-75004587D01*
X163270480Y-74954087D01*
X163126799Y-74810406D01*
X163093314Y-74749083D01*
X163098298Y-74679391D01*
X163107083Y-74660743D01*
X163129577Y-74621784D01*
X163170500Y-74469057D01*
X163170500Y-74310943D01*
X163129577Y-74158216D01*
X163129573Y-74158209D01*
X163050524Y-74021290D01*
X163050518Y-74021282D01*
X162938717Y-73909481D01*
X162938709Y-73909475D01*
X162801790Y-73830426D01*
X162801786Y-73830424D01*
X162801784Y-73830423D01*
X162649057Y-73789500D01*
X162490943Y-73789500D01*
X162338216Y-73830423D01*
X162338209Y-73830426D01*
X162201290Y-73909475D01*
X162201282Y-73909481D01*
X162089481Y-74021282D01*
X162089475Y-74021290D01*
X162010426Y-74158209D01*
X162010423Y-74158216D01*
X161969500Y-74310943D01*
X161969500Y-74325500D01*
X161949815Y-74392539D01*
X161897011Y-74438294D01*
X161845500Y-74449500D01*
X160703300Y-74449500D01*
X160636261Y-74429815D01*
X160590506Y-74377011D01*
X160583525Y-74357593D01*
X160574926Y-74325500D01*
X160559577Y-74268216D01*
X160496065Y-74158209D01*
X160480524Y-74131290D01*
X160480518Y-74131282D01*
X160368717Y-74019481D01*
X160368709Y-74019475D01*
X160231790Y-73940426D01*
X160231786Y-73940424D01*
X160231784Y-73940423D01*
X160079057Y-73899500D01*
X159920943Y-73899500D01*
X159768216Y-73940423D01*
X159768209Y-73940426D01*
X159631291Y-74019475D01*
X159625488Y-74023928D01*
X159560319Y-74049123D01*
X159491874Y-74035086D01*
X159474512Y-74023928D01*
X159468720Y-74019484D01*
X159468716Y-74019480D01*
X159468710Y-74019476D01*
X159468708Y-74019475D01*
X159331790Y-73940426D01*
X159331786Y-73940424D01*
X159331784Y-73940423D01*
X159179057Y-73899500D01*
X159020943Y-73899500D01*
X158868216Y-73940423D01*
X158868209Y-73940426D01*
X158731290Y-74019475D01*
X158731282Y-74019481D01*
X158619481Y-74131282D01*
X158619475Y-74131290D01*
X158540426Y-74268209D01*
X158540423Y-74268216D01*
X158499500Y-74420943D01*
X158499500Y-74579056D01*
X158519186Y-74652525D01*
X158517523Y-74722374D01*
X158478360Y-74780237D01*
X158414132Y-74807741D01*
X158367319Y-74804393D01*
X158349058Y-74799500D01*
X158349057Y-74799500D01*
X158190943Y-74799500D01*
X158038216Y-74840423D01*
X158038209Y-74840426D01*
X157901290Y-74919475D01*
X157901282Y-74919481D01*
X157789481Y-75031282D01*
X157789477Y-75031287D01*
X157728156Y-75137500D01*
X157677589Y-75185716D01*
X157620769Y-75199500D01*
X156582254Y-75199500D01*
X156515215Y-75179815D01*
X156494573Y-75163181D01*
X152855674Y-71524281D01*
X152822189Y-71462958D01*
X152825423Y-71398284D01*
X152872171Y-71254409D01*
X152900500Y-71075551D01*
X152900500Y-70894448D01*
X152884019Y-70790397D01*
X152872171Y-70715591D01*
X152816211Y-70543361D01*
X152816211Y-70543360D01*
X152787740Y-70487484D01*
X152733996Y-70382006D01*
X152661401Y-70282087D01*
X152627558Y-70235505D01*
X152627554Y-70235500D01*
X152499499Y-70107445D01*
X152499494Y-70107441D01*
X152352997Y-70001006D01*
X152352996Y-70001005D01*
X152352994Y-70001004D01*
X152301300Y-69974664D01*
X152191639Y-69918788D01*
X152191636Y-69918787D01*
X152019410Y-69862829D01*
X151859321Y-69837473D01*
X151796186Y-69807544D01*
X151759255Y-69748232D01*
X151760253Y-69678370D01*
X151798863Y-69620137D01*
X151859321Y-69592527D01*
X151929425Y-69581422D01*
X152019409Y-69567171D01*
X152191639Y-69511211D01*
X152352994Y-69428996D01*
X152499501Y-69322553D01*
X152627553Y-69194501D01*
X152733996Y-69047994D01*
X152816211Y-68886639D01*
X152872171Y-68714409D01*
X152891736Y-68590880D01*
X152900500Y-68535551D01*
X152900500Y-68354448D01*
X152884019Y-68250397D01*
X152872171Y-68175591D01*
X152816211Y-68003361D01*
X152816211Y-68003360D01*
X152787740Y-67947484D01*
X152733996Y-67842006D01*
X152661401Y-67742087D01*
X152627558Y-67695505D01*
X152627554Y-67695500D01*
X152499499Y-67567445D01*
X152499494Y-67567441D01*
X152352995Y-67461004D01*
X152221314Y-67393908D01*
X152170519Y-67345934D01*
X152153724Y-67278113D01*
X152176262Y-67211978D01*
X152230977Y-67168527D01*
X152239295Y-67165492D01*
X152268217Y-67156095D01*
X152457554Y-67059622D01*
X152511716Y-67020270D01*
X152511717Y-67020270D01*
X151879408Y-66387962D01*
X151942993Y-66370925D01*
X152057007Y-66305099D01*
X152150099Y-66212007D01*
X152215925Y-66097993D01*
X152232962Y-66034409D01*
X152865270Y-66666717D01*
X152865270Y-66666716D01*
X152904622Y-66612554D01*
X153001095Y-66423217D01*
X153066757Y-66221130D01*
X153066757Y-66221127D01*
X153100000Y-66011246D01*
X153100000Y-65798753D01*
X153066757Y-65588872D01*
X153066757Y-65588869D01*
X153001095Y-65386782D01*
X152904624Y-65197449D01*
X152865270Y-65143282D01*
X152865269Y-65143282D01*
X152232962Y-65775590D01*
X152215925Y-65712007D01*
X152150099Y-65597993D01*
X152057007Y-65504901D01*
X151942993Y-65439075D01*
X151879409Y-65422037D01*
X152280502Y-65020943D01*
X159399500Y-65020943D01*
X159399500Y-65179057D01*
X159414357Y-65234502D01*
X159440423Y-65331783D01*
X159440426Y-65331790D01*
X159519473Y-65468706D01*
X159519477Y-65468712D01*
X159519480Y-65468716D01*
X159519482Y-65468718D01*
X159523872Y-65474438D01*
X159549069Y-65539606D01*
X159549500Y-65549930D01*
X159549500Y-65659308D01*
X159573712Y-65749672D01*
X159580200Y-65773885D01*
X159580200Y-65773886D01*
X159605267Y-65817303D01*
X159639511Y-65876614D01*
X162263766Y-68500870D01*
X162366493Y-68560179D01*
X162390701Y-68566664D01*
X162390704Y-68566666D01*
X162390705Y-68566666D01*
X162420827Y-68574737D01*
X162481071Y-68590880D01*
X162924083Y-68590880D01*
X162991122Y-68610565D01*
X163019892Y-68636161D01*
X163026368Y-68644043D01*
X163069480Y-68718716D01*
X163171737Y-68820973D01*
X163175579Y-68825649D01*
X163186979Y-68852451D01*
X163200936Y-68878010D01*
X163200772Y-68884876D01*
X163202928Y-68889944D01*
X163200283Y-68905443D01*
X163199545Y-68936461D01*
X163198303Y-68941095D01*
X163198303Y-68941096D01*
X163157380Y-69093823D01*
X163157380Y-69251937D01*
X163176302Y-69322553D01*
X163198303Y-69404663D01*
X163198306Y-69404670D01*
X163277355Y-69541589D01*
X163277359Y-69541594D01*
X163277360Y-69541596D01*
X163389164Y-69653400D01*
X163389166Y-69653401D01*
X163389170Y-69653404D01*
X163438299Y-69681768D01*
X163526096Y-69732457D01*
X163678823Y-69773380D01*
X163678825Y-69773380D01*
X163836935Y-69773380D01*
X163836937Y-69773380D01*
X163989664Y-69732457D01*
X164126596Y-69653400D01*
X164238400Y-69541596D01*
X164317457Y-69404664D01*
X164358380Y-69251937D01*
X164358380Y-69251924D01*
X164359321Y-69244781D01*
X164387587Y-69180883D01*
X164394555Y-69173307D01*
X164650870Y-68916994D01*
X164710179Y-68814267D01*
X164727265Y-68750500D01*
X164740880Y-68699689D01*
X164740880Y-68081071D01*
X164710179Y-67966494D01*
X164710179Y-67966493D01*
X164710179Y-67966492D01*
X164650872Y-67863769D01*
X164650868Y-67863764D01*
X162026617Y-65239513D01*
X162020166Y-65234563D01*
X162020212Y-65234502D01*
X162001440Y-65220097D01*
X161022997Y-64241654D01*
X162725001Y-64241654D01*
X162735319Y-64342652D01*
X162789546Y-64506300D01*
X162789551Y-64506311D01*
X162880052Y-64653034D01*
X162880055Y-64653038D01*
X163001961Y-64774944D01*
X163001965Y-64774947D01*
X163148688Y-64865448D01*
X163148699Y-64865453D01*
X163312347Y-64919680D01*
X163413352Y-64929999D01*
X163450000Y-64929999D01*
X163950000Y-64929999D01*
X163986640Y-64929999D01*
X163986654Y-64929998D01*
X164087652Y-64919680D01*
X164251300Y-64865453D01*
X164251311Y-64865448D01*
X164398034Y-64774947D01*
X164398038Y-64774944D01*
X164519944Y-64653038D01*
X164519947Y-64653034D01*
X164610448Y-64506311D01*
X164610453Y-64506300D01*
X164664680Y-64342652D01*
X164674999Y-64241654D01*
X164675000Y-64241641D01*
X164675000Y-64192500D01*
X163950000Y-64192500D01*
X163950000Y-64929999D01*
X163450000Y-64929999D01*
X163450000Y-64192500D01*
X162725001Y-64192500D01*
X162725001Y-64241654D01*
X161022997Y-64241654D01*
X160836700Y-64055357D01*
X160803215Y-63994034D01*
X160801442Y-63983861D01*
X160800500Y-63976705D01*
X160798166Y-63967994D01*
X160759577Y-63823977D01*
X160749565Y-63806636D01*
X160680524Y-63687051D01*
X160680518Y-63687043D01*
X160568717Y-63575242D01*
X160568709Y-63575236D01*
X160431790Y-63496187D01*
X160431786Y-63496185D01*
X160431784Y-63496184D01*
X160279057Y-63455261D01*
X160120943Y-63455261D01*
X159968216Y-63496184D01*
X159968209Y-63496187D01*
X159831290Y-63575236D01*
X159831282Y-63575242D01*
X159719481Y-63687043D01*
X159719475Y-63687051D01*
X159640426Y-63823970D01*
X159640423Y-63823977D01*
X159599500Y-63976704D01*
X159599500Y-64134818D01*
X159628368Y-64242553D01*
X159640423Y-64287544D01*
X159640423Y-64287545D01*
X159719870Y-64425153D01*
X159736342Y-64493053D01*
X159713489Y-64559080D01*
X159674482Y-64594539D01*
X159631287Y-64619477D01*
X159631282Y-64619481D01*
X159519481Y-64731282D01*
X159519475Y-64731290D01*
X159440426Y-64868209D01*
X159440423Y-64868216D01*
X159399500Y-65020943D01*
X152280502Y-65020943D01*
X152376310Y-64925135D01*
X152511716Y-64789728D01*
X152457550Y-64750375D01*
X152268217Y-64653904D01*
X152239292Y-64644506D01*
X152181616Y-64605068D01*
X152154418Y-64540710D01*
X152166333Y-64471863D01*
X152213577Y-64420388D01*
X152221315Y-64416090D01*
X152352994Y-64348996D01*
X152499501Y-64242553D01*
X152627553Y-64114501D01*
X152733996Y-63967994D01*
X152816211Y-63806639D01*
X152872171Y-63634409D01*
X152886765Y-63542259D01*
X152900500Y-63455551D01*
X152900500Y-63274448D01*
X152884019Y-63170397D01*
X152872171Y-63095591D01*
X152816211Y-62923361D01*
X152816211Y-62923360D01*
X152760412Y-62813850D01*
X152733996Y-62762006D01*
X152661401Y-62662087D01*
X152627558Y-62615505D01*
X152627554Y-62615500D01*
X152499499Y-62487445D01*
X152499494Y-62487441D01*
X152352997Y-62381006D01*
X152352996Y-62381005D01*
X152352994Y-62381004D01*
X152301300Y-62354664D01*
X152191639Y-62298788D01*
X152191636Y-62298787D01*
X152019410Y-62242829D01*
X151859321Y-62217473D01*
X151796186Y-62187544D01*
X151759255Y-62128232D01*
X151760253Y-62058370D01*
X151798863Y-62000137D01*
X151859321Y-61972527D01*
X151929425Y-61961422D01*
X152019409Y-61947171D01*
X152191639Y-61891211D01*
X152352994Y-61808996D01*
X152499501Y-61702553D01*
X152627553Y-61574501D01*
X152691377Y-61486654D01*
X155330001Y-61486654D01*
X155340319Y-61587652D01*
X155394546Y-61751300D01*
X155394551Y-61751311D01*
X155485052Y-61898034D01*
X155485055Y-61898038D01*
X155606961Y-62019944D01*
X155606965Y-62019947D01*
X155753688Y-62110448D01*
X155753699Y-62110453D01*
X155917347Y-62164680D01*
X156018351Y-62174999D01*
X156117500Y-62174998D01*
X156117500Y-61450000D01*
X155330001Y-61450000D01*
X155330001Y-61486654D01*
X152691377Y-61486654D01*
X152733996Y-61427994D01*
X152755466Y-61385857D01*
X152777639Y-61342342D01*
X152816211Y-61266639D01*
X152816212Y-61266636D01*
X152847190Y-61171294D01*
X152872171Y-61094409D01*
X152886765Y-61002259D01*
X152900500Y-60915551D01*
X152900500Y-60734448D01*
X152875776Y-60578354D01*
X152872171Y-60555591D01*
X152826192Y-60414080D01*
X152816212Y-60383363D01*
X152816211Y-60383360D01*
X152761707Y-60276392D01*
X152733996Y-60222006D01*
X152686868Y-60157139D01*
X152627558Y-60075505D01*
X152627554Y-60075500D01*
X152499499Y-59947445D01*
X152499494Y-59947441D01*
X152352997Y-59841006D01*
X152352996Y-59841005D01*
X152352994Y-59841004D01*
X152301300Y-59814664D01*
X152191639Y-59758788D01*
X152191636Y-59758787D01*
X152019410Y-59702829D01*
X151859321Y-59677473D01*
X151796186Y-59647544D01*
X151759255Y-59588232D01*
X151760253Y-59518370D01*
X151798863Y-59460137D01*
X151859321Y-59432527D01*
X151929425Y-59421422D01*
X152019409Y-59407171D01*
X152191639Y-59351211D01*
X152320501Y-59285552D01*
X154870000Y-59285552D01*
X154870000Y-59474447D01*
X154899548Y-59661002D01*
X154957914Y-59840637D01*
X155043666Y-60008933D01*
X155062116Y-60034328D01*
X155670000Y-59426445D01*
X155670000Y-59432661D01*
X155697259Y-59534394D01*
X155749920Y-59625606D01*
X155824394Y-59700080D01*
X155915606Y-59752741D01*
X156017339Y-59780000D01*
X156023553Y-59780000D01*
X155415669Y-60387882D01*
X155419168Y-60390424D01*
X155461834Y-60445754D01*
X155467813Y-60515367D01*
X155451822Y-60555840D01*
X155394548Y-60648694D01*
X155394546Y-60648699D01*
X155340319Y-60812347D01*
X155330000Y-60913345D01*
X155330000Y-60950000D01*
X156243500Y-60950000D01*
X156310539Y-60969685D01*
X156356294Y-61022489D01*
X156367500Y-61074000D01*
X156367500Y-61200000D01*
X156493500Y-61200000D01*
X156560539Y-61219685D01*
X156606294Y-61272489D01*
X156617500Y-61324000D01*
X156617500Y-62174999D01*
X156716640Y-62174999D01*
X156716654Y-62174998D01*
X156817652Y-62164680D01*
X156981300Y-62110453D01*
X156981311Y-62110448D01*
X157128034Y-62019947D01*
X157128038Y-62019944D01*
X157249943Y-61898039D01*
X157260961Y-61880177D01*
X157312909Y-61833451D01*
X157381871Y-61822228D01*
X157441423Y-61846466D01*
X157526342Y-61910862D01*
X157663923Y-61965117D01*
X157721562Y-61972039D01*
X157750381Y-61975500D01*
X157750382Y-61975500D01*
X158434619Y-61975500D01*
X158459374Y-61972527D01*
X158521077Y-61965117D01*
X158658658Y-61910862D01*
X158776500Y-61821500D01*
X158865862Y-61703658D01*
X158920117Y-61566077D01*
X158930500Y-61479618D01*
X158930500Y-60920382D01*
X158920117Y-60833923D01*
X158865862Y-60696342D01*
X158865860Y-60696339D01*
X158776499Y-60578498D01*
X158775255Y-60577555D01*
X158774403Y-60576402D01*
X158770503Y-60572502D01*
X158771088Y-60571916D01*
X158733734Y-60521362D01*
X158729185Y-60451640D01*
X158763052Y-60390527D01*
X158824583Y-60357426D01*
X158825993Y-60357137D01*
X158901835Y-60342051D01*
X159083914Y-60266632D01*
X159247782Y-60157139D01*
X159314921Y-60090000D01*
X159753085Y-60090000D01*
X159756064Y-60122792D01*
X159756067Y-60122802D01*
X159803927Y-60276392D01*
X159887163Y-60414080D01*
X159916451Y-60443368D01*
X159949936Y-60504691D01*
X159952229Y-60542624D01*
X159949501Y-60571723D01*
X159949500Y-60571732D01*
X159949500Y-61008276D01*
X159952432Y-61039549D01*
X159952432Y-61039551D01*
X159998529Y-61171285D01*
X159998534Y-61171294D01*
X160081410Y-61283588D01*
X160081411Y-61283589D01*
X160193705Y-61366465D01*
X160193707Y-61366466D01*
X160193711Y-61366469D01*
X160193714Y-61366470D01*
X160325449Y-61412567D01*
X160356724Y-61415500D01*
X160356728Y-61415500D01*
X161703276Y-61415500D01*
X161734549Y-61412567D01*
X161734551Y-61412567D01*
X161818399Y-61383226D01*
X161866289Y-61366469D01*
X161978589Y-61283589D01*
X162061469Y-61171289D01*
X162095512Y-61074000D01*
X162107567Y-61039551D01*
X162107567Y-61039549D01*
X162110500Y-61008276D01*
X162110500Y-60574188D01*
X162110500Y-60571728D01*
X162110500Y-60571723D01*
X162649500Y-60571723D01*
X162649500Y-61008276D01*
X162652432Y-61039549D01*
X162652432Y-61039551D01*
X162698529Y-61171285D01*
X162698534Y-61171294D01*
X162781410Y-61283588D01*
X162781411Y-61283589D01*
X162893705Y-61366465D01*
X162893708Y-61366466D01*
X162893711Y-61366469D01*
X162949123Y-61385858D01*
X163005897Y-61426579D01*
X163031645Y-61491531D01*
X163018189Y-61560093D01*
X163006972Y-61577822D01*
X162989141Y-61601336D01*
X162989139Y-61601339D01*
X162934882Y-61738924D01*
X162934882Y-61738925D01*
X162924500Y-61825381D01*
X162924500Y-62409618D01*
X162934882Y-62496074D01*
X162934882Y-62496075D01*
X162934883Y-62496077D01*
X162981979Y-62615505D01*
X162989139Y-62633660D01*
X163078499Y-62751500D01*
X163160720Y-62813850D01*
X163202244Y-62870043D01*
X163206795Y-62939764D01*
X163172930Y-63000878D01*
X163150893Y-63018192D01*
X163001962Y-63110054D01*
X162880055Y-63231961D01*
X162880052Y-63231965D01*
X162789551Y-63378688D01*
X162789546Y-63378699D01*
X162735319Y-63542347D01*
X162725000Y-63643345D01*
X162725000Y-63692500D01*
X164674999Y-63692500D01*
X164674999Y-63643360D01*
X164674998Y-63643345D01*
X164664680Y-63542347D01*
X164610453Y-63378699D01*
X164610448Y-63378688D01*
X164519947Y-63231965D01*
X164519944Y-63231961D01*
X164398038Y-63110055D01*
X164398034Y-63110052D01*
X164249107Y-63018192D01*
X164202382Y-62966244D01*
X164191161Y-62897282D01*
X164219004Y-62833200D01*
X164239279Y-62813850D01*
X164321500Y-62751500D01*
X164410862Y-62633658D01*
X164465117Y-62496077D01*
X164475500Y-62409618D01*
X164475500Y-61825382D01*
X164465117Y-61738923D01*
X164410862Y-61601342D01*
X164410860Y-61601339D01*
X164405611Y-61594417D01*
X164380788Y-61529105D01*
X164395216Y-61460741D01*
X164444314Y-61411030D01*
X164463460Y-61402451D01*
X164517107Y-61383678D01*
X164566289Y-61366469D01*
X164678589Y-61283589D01*
X164761469Y-61171289D01*
X164795512Y-61074000D01*
X164807567Y-61039551D01*
X164807567Y-61039549D01*
X164810500Y-61008276D01*
X164810500Y-60571723D01*
X164807567Y-60540450D01*
X164807567Y-60540448D01*
X164761470Y-60408714D01*
X164761469Y-60408711D01*
X164743548Y-60384429D01*
X164678589Y-60296411D01*
X164678588Y-60296410D01*
X164566294Y-60213534D01*
X164566285Y-60213529D01*
X164434550Y-60167432D01*
X164403276Y-60164500D01*
X164403272Y-60164500D01*
X163056728Y-60164500D01*
X163056724Y-60164500D01*
X163025450Y-60167432D01*
X163025448Y-60167432D01*
X162893714Y-60213529D01*
X162893705Y-60213534D01*
X162781411Y-60296410D01*
X162781410Y-60296411D01*
X162698534Y-60408705D01*
X162698529Y-60408714D01*
X162652432Y-60540448D01*
X162652432Y-60540450D01*
X162649500Y-60571723D01*
X162110500Y-60571723D01*
X162107724Y-60542126D01*
X162107691Y-60541744D01*
X162114529Y-60507876D01*
X162121110Y-60474042D01*
X162121457Y-60473567D01*
X162121520Y-60473256D01*
X162122189Y-60472566D01*
X162143549Y-60443365D01*
X162172839Y-60414075D01*
X162256072Y-60276392D01*
X162303932Y-60122802D01*
X162303935Y-60122792D01*
X162306914Y-60090000D01*
X159753085Y-60090000D01*
X159314921Y-60090000D01*
X159387139Y-60017782D01*
X159496632Y-59853914D01*
X159501980Y-59841004D01*
X159536034Y-59758788D01*
X159572051Y-59671835D01*
X159572053Y-59671823D01*
X159572559Y-59670158D01*
X159573067Y-59669382D01*
X159574382Y-59666208D01*
X159574983Y-59666457D01*
X159610850Y-59611716D01*
X159674659Y-59583252D01*
X159718824Y-59590000D01*
X162306915Y-59590000D01*
X162306914Y-59589999D01*
X162303935Y-59557207D01*
X162303932Y-59557197D01*
X162256072Y-59403607D01*
X162172836Y-59265919D01*
X162143548Y-59236631D01*
X162110063Y-59175308D01*
X162107771Y-59137371D01*
X162110500Y-59108273D01*
X162110500Y-58671723D01*
X162107567Y-58640450D01*
X162107567Y-58640448D01*
X162061470Y-58508714D01*
X162061469Y-58508711D01*
X161978589Y-58396411D01*
X161978588Y-58396410D01*
X161866294Y-58313534D01*
X161866285Y-58313529D01*
X161734550Y-58267432D01*
X161703276Y-58264500D01*
X161703272Y-58264500D01*
X161163676Y-58264500D01*
X161096637Y-58244815D01*
X161075995Y-58228181D01*
X160835993Y-57988179D01*
X160802508Y-57926856D01*
X160807492Y-57857164D01*
X160849364Y-57801231D01*
X160911076Y-57777140D01*
X160935151Y-57774681D01*
X161098800Y-57720453D01*
X161098811Y-57720448D01*
X161245534Y-57629947D01*
X161245538Y-57629944D01*
X161367443Y-57508039D01*
X161378461Y-57490177D01*
X161384733Y-57484535D01*
X161388019Y-57476764D01*
X161410322Y-57461518D01*
X161430409Y-57443451D01*
X161438736Y-57442095D01*
X161445701Y-57437335D01*
X161472703Y-57436567D01*
X161499371Y-57432228D01*
X161508926Y-57435538D01*
X161515542Y-57435351D01*
X161533225Y-57443958D01*
X161548051Y-57449095D01*
X161553681Y-57452491D01*
X161643842Y-57520862D01*
X161710783Y-57547260D01*
X161719680Y-57552627D01*
X161736558Y-57571023D01*
X161756264Y-57586355D01*
X161763015Y-57596800D01*
X161809500Y-57677314D01*
X161809502Y-57677316D01*
X162628497Y-58496311D01*
X162661982Y-58557634D01*
X162657858Y-58624944D01*
X162652433Y-58640447D01*
X162652432Y-58640451D01*
X162649500Y-58671724D01*
X162649500Y-59108276D01*
X162652432Y-59139549D01*
X162652432Y-59139551D01*
X162698529Y-59271285D01*
X162698534Y-59271294D01*
X162781410Y-59383588D01*
X162781411Y-59383589D01*
X162893705Y-59466465D01*
X162893707Y-59466466D01*
X162893711Y-59466469D01*
X162893714Y-59466470D01*
X163025449Y-59512567D01*
X163056724Y-59515500D01*
X163056728Y-59515500D01*
X164403276Y-59515500D01*
X164434549Y-59512567D01*
X164434551Y-59512567D01*
X164518399Y-59483226D01*
X164566289Y-59466469D01*
X164678589Y-59383589D01*
X164761469Y-59271289D01*
X164793284Y-59180368D01*
X164807567Y-59139551D01*
X164807567Y-59139549D01*
X164810500Y-59108276D01*
X164810500Y-58671723D01*
X164807567Y-58640450D01*
X164807567Y-58640448D01*
X164761470Y-58508714D01*
X164761469Y-58508711D01*
X164678589Y-58396411D01*
X164678588Y-58396410D01*
X164566294Y-58313534D01*
X164566285Y-58313529D01*
X164434550Y-58267432D01*
X164403276Y-58264500D01*
X164403272Y-58264500D01*
X163863676Y-58264500D01*
X163796637Y-58244815D01*
X163775995Y-58228181D01*
X163005984Y-57458170D01*
X162972499Y-57396847D01*
X162977483Y-57327155D01*
X162981178Y-57319194D01*
X162983360Y-57313660D01*
X162983362Y-57313658D01*
X163037617Y-57176077D01*
X163048000Y-57089618D01*
X163048000Y-56530382D01*
X163037617Y-56443923D01*
X162983362Y-56306342D01*
X162955695Y-56269857D01*
X162947695Y-56248809D01*
X162935523Y-56229868D01*
X162932496Y-56208815D01*
X162930873Y-56204545D01*
X162930500Y-56194933D01*
X162930500Y-55952320D01*
X162950185Y-55885281D01*
X162980192Y-55853051D01*
X162987546Y-55847546D01*
X163073796Y-55732331D01*
X163124091Y-55597483D01*
X163130500Y-55537873D01*
X163130499Y-53942128D01*
X163124091Y-53882517D01*
X163076530Y-53755000D01*
X163073797Y-53747671D01*
X163073793Y-53747664D01*
X162987548Y-53632457D01*
X162987546Y-53632454D01*
X162987544Y-53632452D01*
X162987542Y-53632450D01*
X162960188Y-53611973D01*
X162918318Y-53556039D01*
X162910500Y-53512707D01*
X162910500Y-52929234D01*
X163264500Y-52929234D01*
X163264500Y-53080765D01*
X163303719Y-53227136D01*
X163319807Y-53255000D01*
X163379485Y-53358365D01*
X163486635Y-53465515D01*
X163617865Y-53541281D01*
X163764234Y-53580500D01*
X163764236Y-53580500D01*
X163915763Y-53580500D01*
X163915766Y-53580500D01*
X164062135Y-53541281D01*
X164193365Y-53465515D01*
X164300515Y-53358365D01*
X164324397Y-53316999D01*
X164374964Y-53268784D01*
X164431784Y-53255000D01*
X164970000Y-53255000D01*
X164970000Y-53755000D01*
X164270000Y-53755000D01*
X164270000Y-54153495D01*
X164308427Y-54346681D01*
X164308430Y-54346693D01*
X164383807Y-54528671D01*
X164383814Y-54528684D01*
X164493248Y-54692462D01*
X164493251Y-54692466D01*
X164632533Y-54831748D01*
X164632537Y-54831751D01*
X164796315Y-54941185D01*
X164796328Y-54941192D01*
X164978308Y-55016569D01*
X165020000Y-55024862D01*
X165020000Y-54221988D01*
X165029940Y-54239205D01*
X165085795Y-54295060D01*
X165154204Y-54334556D01*
X165230504Y-54355000D01*
X165309496Y-54355000D01*
X165385796Y-54334556D01*
X165454205Y-54295060D01*
X165510060Y-54239205D01*
X165520000Y-54221988D01*
X165520000Y-55024862D01*
X165561690Y-55016569D01*
X165561692Y-55016569D01*
X165743671Y-54941192D01*
X165743684Y-54941185D01*
X165907462Y-54831751D01*
X165907466Y-54831748D01*
X166046748Y-54692466D01*
X166046751Y-54692462D01*
X166156185Y-54528684D01*
X166156192Y-54528671D01*
X166231569Y-54346693D01*
X166231572Y-54346681D01*
X166269999Y-54153495D01*
X166270000Y-54153492D01*
X166270000Y-53755000D01*
X165570000Y-53755000D01*
X165570000Y-53255000D01*
X166270000Y-53255000D01*
X166270000Y-52856508D01*
X166269999Y-52856504D01*
X166231572Y-52663318D01*
X166231569Y-52663306D01*
X166156192Y-52481328D01*
X166156185Y-52481315D01*
X166046751Y-52317537D01*
X166046748Y-52317533D01*
X165907466Y-52178251D01*
X165907462Y-52178248D01*
X165743684Y-52068814D01*
X165743671Y-52068807D01*
X165561691Y-51993429D01*
X165561683Y-51993427D01*
X165520000Y-51985135D01*
X165520000Y-52788011D01*
X165510060Y-52770795D01*
X165454205Y-52714940D01*
X165385796Y-52675444D01*
X165309496Y-52655000D01*
X165230504Y-52655000D01*
X165154204Y-52675444D01*
X165085795Y-52714940D01*
X165029940Y-52770795D01*
X165020000Y-52788011D01*
X165020000Y-51985136D01*
X165019999Y-51985135D01*
X164978316Y-51993427D01*
X164978308Y-51993429D01*
X164796328Y-52068807D01*
X164796315Y-52068814D01*
X164632537Y-52178248D01*
X164632533Y-52178251D01*
X164493251Y-52317533D01*
X164493248Y-52317537D01*
X164383814Y-52481315D01*
X164383809Y-52481324D01*
X164379866Y-52490845D01*
X164336023Y-52545247D01*
X164269728Y-52567310D01*
X164202030Y-52550029D01*
X164196597Y-52546351D01*
X164062136Y-52468719D01*
X163988950Y-52449109D01*
X163915766Y-52429500D01*
X163764234Y-52429500D01*
X163617863Y-52468719D01*
X163486635Y-52544485D01*
X163486632Y-52544487D01*
X163379487Y-52651632D01*
X163379485Y-52651635D01*
X163303719Y-52782863D01*
X163264500Y-52929234D01*
X162910500Y-52929234D01*
X162910500Y-52604110D01*
X162910500Y-52604108D01*
X162876392Y-52476814D01*
X162875189Y-52474731D01*
X162836484Y-52407692D01*
X162810500Y-52362686D01*
X162717314Y-52269500D01*
X162216818Y-51769004D01*
X162183333Y-51707681D01*
X162180499Y-51681323D01*
X162180499Y-50942129D01*
X162180498Y-50942123D01*
X162180497Y-50942116D01*
X162174091Y-50882517D01*
X162123796Y-50747669D01*
X162123795Y-50747668D01*
X162123793Y-50747664D01*
X162037547Y-50632455D01*
X162037544Y-50632452D01*
X161922335Y-50546206D01*
X161922328Y-50546202D01*
X161787486Y-50495910D01*
X161787485Y-50495909D01*
X161787483Y-50495909D01*
X161727873Y-50489500D01*
X161727863Y-50489500D01*
X161232129Y-50489500D01*
X161232123Y-50489501D01*
X161172516Y-50495908D01*
X161037671Y-50546202D01*
X161037664Y-50546206D01*
X160922455Y-50632452D01*
X160922452Y-50632455D01*
X160836206Y-50747664D01*
X160836202Y-50747671D01*
X160785908Y-50882517D01*
X160779501Y-50942116D01*
X160779501Y-50942123D01*
X160779500Y-50942135D01*
X160779500Y-51177371D01*
X160776117Y-51188888D01*
X160777259Y-51200839D01*
X160766455Y-51221794D01*
X160759815Y-51244410D01*
X160749944Y-51253821D01*
X160745243Y-51262941D01*
X160717499Y-51284758D01*
X160659672Y-51318144D01*
X160629768Y-51330531D01*
X160518222Y-51360420D01*
X160518209Y-51360426D01*
X160381290Y-51439475D01*
X160381282Y-51439481D01*
X160269481Y-51551282D01*
X160269475Y-51551290D01*
X160190426Y-51688209D01*
X160190423Y-51688216D01*
X160149500Y-51840943D01*
X160149500Y-51999057D01*
X160168192Y-52068814D01*
X160190423Y-52151783D01*
X160190426Y-52151790D01*
X160269475Y-52288709D01*
X160269479Y-52288714D01*
X160269480Y-52288716D01*
X160381284Y-52400520D01*
X160381286Y-52400521D01*
X160381290Y-52400524D01*
X160499409Y-52468719D01*
X160518216Y-52479577D01*
X160670943Y-52520500D01*
X160671101Y-52520500D01*
X160671227Y-52520537D01*
X160679003Y-52521561D01*
X160678843Y-52522773D01*
X160738140Y-52540185D01*
X160783895Y-52592989D01*
X160787283Y-52601167D01*
X160836202Y-52732328D01*
X160836206Y-52732335D01*
X160922452Y-52847544D01*
X160922455Y-52847547D01*
X161037664Y-52933793D01*
X161037671Y-52933797D01*
X161050498Y-52938581D01*
X161172517Y-52984091D01*
X161232127Y-52990500D01*
X161727872Y-52990499D01*
X161727874Y-52990498D01*
X161727887Y-52990498D01*
X161763712Y-52986646D01*
X161772244Y-52985729D01*
X161841004Y-52998134D01*
X161892141Y-53045744D01*
X161909500Y-53109018D01*
X161909500Y-53544045D01*
X161889815Y-53611084D01*
X161873188Y-53631720D01*
X161872452Y-53632455D01*
X161786206Y-53747664D01*
X161786202Y-53747671D01*
X161735908Y-53882517D01*
X161730237Y-53935269D01*
X161729501Y-53942123D01*
X161729500Y-53942135D01*
X161729500Y-55537870D01*
X161729501Y-55537876D01*
X161735908Y-55597483D01*
X161786202Y-55732328D01*
X161786203Y-55732329D01*
X161786204Y-55732331D01*
X161858338Y-55828689D01*
X161871852Y-55846742D01*
X161896269Y-55912206D01*
X161881418Y-55980479D01*
X161832012Y-56029885D01*
X161787377Y-56044168D01*
X161781423Y-56044883D01*
X161643839Y-56099139D01*
X161558926Y-56163531D01*
X161493614Y-56188354D01*
X161425251Y-56173926D01*
X161378463Y-56129824D01*
X161367447Y-56111965D01*
X161367444Y-56111961D01*
X161245537Y-55990054D01*
X161179951Y-55949600D01*
X161133227Y-55897652D01*
X161122006Y-55828689D01*
X161145782Y-55769751D01*
X161173796Y-55732331D01*
X161224091Y-55597483D01*
X161230500Y-55537873D01*
X161230499Y-53942128D01*
X161224091Y-53882517D01*
X161176530Y-53755000D01*
X161173797Y-53747671D01*
X161173793Y-53747664D01*
X161087547Y-53632455D01*
X161087544Y-53632452D01*
X160972335Y-53546206D01*
X160972328Y-53546202D01*
X160837486Y-53495910D01*
X160837485Y-53495909D01*
X160837483Y-53495909D01*
X160777873Y-53489500D01*
X160777863Y-53489500D01*
X160282129Y-53489500D01*
X160282123Y-53489501D01*
X160222516Y-53495908D01*
X160087671Y-53546202D01*
X160087664Y-53546206D01*
X159972455Y-53632452D01*
X159972452Y-53632455D01*
X159886206Y-53747664D01*
X159886202Y-53747671D01*
X159835908Y-53882517D01*
X159830237Y-53935269D01*
X159829501Y-53942123D01*
X159829500Y-53942135D01*
X159829500Y-54681323D01*
X159809815Y-54748362D01*
X159793181Y-54769004D01*
X159295744Y-55266440D01*
X159295745Y-55266441D01*
X159220000Y-55342186D01*
X159154108Y-55456312D01*
X159132254Y-55537876D01*
X159120000Y-55583608D01*
X159120000Y-57414608D01*
X159120000Y-57546392D01*
X159142388Y-57629947D01*
X159154109Y-57673688D01*
X159154110Y-57673691D01*
X159177886Y-57714871D01*
X159194500Y-57776872D01*
X159194500Y-58036323D01*
X159174815Y-58103362D01*
X159158181Y-58124004D01*
X158917341Y-58364844D01*
X158856018Y-58398329D01*
X158805468Y-58398780D01*
X158708543Y-58379500D01*
X158708541Y-58379500D01*
X158511459Y-58379500D01*
X158511457Y-58379500D01*
X158318170Y-58417947D01*
X158318160Y-58417950D01*
X158136092Y-58493364D01*
X158136079Y-58493371D01*
X157972218Y-58602860D01*
X157972214Y-58602863D01*
X157832863Y-58742214D01*
X157832860Y-58742218D01*
X157723371Y-58906079D01*
X157723364Y-58906092D01*
X157647950Y-59088160D01*
X157647947Y-59088170D01*
X157609500Y-59281456D01*
X157609500Y-59281459D01*
X157609500Y-59478541D01*
X157609500Y-59478543D01*
X157609499Y-59478543D01*
X157638052Y-59622081D01*
X157631825Y-59691673D01*
X157628410Y-59698757D01*
X157626108Y-59704315D01*
X157592000Y-59831608D01*
X157592000Y-60379685D01*
X157590606Y-60384429D01*
X157591629Y-60389268D01*
X157580859Y-60417626D01*
X157572315Y-60446724D01*
X157568098Y-60451225D01*
X157566823Y-60454585D01*
X157556611Y-60463491D01*
X157541718Y-60479393D01*
X157531046Y-60487282D01*
X157526342Y-60489138D01*
X157440842Y-60553974D01*
X157440219Y-60554435D01*
X157408077Y-60566205D01*
X157376114Y-60578354D01*
X157375346Y-60578192D01*
X157374610Y-60578462D01*
X157341230Y-60570991D01*
X157307751Y-60563926D01*
X157307157Y-60563366D01*
X157306427Y-60563203D01*
X157298860Y-60555545D01*
X157260963Y-60519824D01*
X157249947Y-60501965D01*
X157249944Y-60501961D01*
X157128038Y-60380055D01*
X157128034Y-60380052D01*
X157033790Y-60321921D01*
X156987065Y-60269973D01*
X156975844Y-60201010D01*
X156998569Y-60143498D01*
X157096329Y-60008940D01*
X157182085Y-59840637D01*
X157240451Y-59661002D01*
X157270000Y-59474447D01*
X157270000Y-59285552D01*
X157240451Y-59098997D01*
X157182085Y-58919362D01*
X157096329Y-58751059D01*
X157077883Y-58725670D01*
X157077882Y-58725669D01*
X156470000Y-59333553D01*
X156470000Y-59327339D01*
X156442741Y-59225606D01*
X156390080Y-59134394D01*
X156315606Y-59059920D01*
X156224394Y-59007259D01*
X156122661Y-58980000D01*
X156116447Y-58980000D01*
X156724328Y-58372116D01*
X156698933Y-58353666D01*
X156530637Y-58267914D01*
X156351002Y-58209548D01*
X156164447Y-58180000D01*
X155975553Y-58180000D01*
X155788997Y-58209548D01*
X155609362Y-58267914D01*
X155441060Y-58353669D01*
X155415670Y-58372116D01*
X155415669Y-58372116D01*
X156023554Y-58980000D01*
X156017339Y-58980000D01*
X155915606Y-59007259D01*
X155824394Y-59059920D01*
X155749920Y-59134394D01*
X155697259Y-59225606D01*
X155670000Y-59327339D01*
X155670000Y-59333553D01*
X155062116Y-58725669D01*
X155062116Y-58725670D01*
X155043669Y-58751060D01*
X154957914Y-58919362D01*
X154899548Y-59098997D01*
X154870000Y-59285552D01*
X152320501Y-59285552D01*
X152352994Y-59268996D01*
X152412716Y-59225606D01*
X152474982Y-59180368D01*
X152499494Y-59162558D01*
X152499492Y-59162558D01*
X152499501Y-59162553D01*
X152627553Y-59034501D01*
X152733996Y-58887994D01*
X152816211Y-58726639D01*
X152872171Y-58554409D01*
X152893784Y-58417949D01*
X152896631Y-58399977D01*
X152896631Y-58399976D01*
X152900500Y-58375550D01*
X152900500Y-58194448D01*
X152883590Y-58087686D01*
X152872171Y-58015591D01*
X152816211Y-57843361D01*
X152816211Y-57843360D01*
X152787740Y-57787484D01*
X152733996Y-57682006D01*
X152661401Y-57582087D01*
X152627558Y-57535505D01*
X152627554Y-57535500D01*
X152499499Y-57407445D01*
X152499494Y-57407441D01*
X152352997Y-57301006D01*
X152352996Y-57301005D01*
X152352994Y-57301004D01*
X152298398Y-57273186D01*
X152191639Y-57218788D01*
X152191636Y-57218787D01*
X152019410Y-57162829D01*
X151859321Y-57137473D01*
X151796186Y-57107544D01*
X151759255Y-57048232D01*
X151760253Y-56978370D01*
X151798863Y-56920137D01*
X151859321Y-56892527D01*
X151929425Y-56881422D01*
X152019409Y-56867171D01*
X152191639Y-56811211D01*
X152352994Y-56728996D01*
X152499501Y-56622553D01*
X152627553Y-56494501D01*
X152733996Y-56347994D01*
X152816211Y-56186639D01*
X152872171Y-56014409D01*
X152888358Y-55912206D01*
X152900500Y-55835551D01*
X152900500Y-55654448D01*
X152882034Y-55537864D01*
X152872171Y-55475591D01*
X152816211Y-55303361D01*
X152816211Y-55303360D01*
X152787740Y-55247484D01*
X152733996Y-55142006D01*
X152661401Y-55042087D01*
X152627558Y-54995505D01*
X152627554Y-54995500D01*
X152499499Y-54867445D01*
X152499494Y-54867441D01*
X152352995Y-54761004D01*
X152221314Y-54693908D01*
X152170519Y-54645934D01*
X152153724Y-54578113D01*
X152176262Y-54511978D01*
X152230977Y-54468527D01*
X152239295Y-54465492D01*
X152268217Y-54456095D01*
X152457554Y-54359622D01*
X152511716Y-54320270D01*
X152511717Y-54320270D01*
X151879408Y-53687962D01*
X151942993Y-53670925D01*
X152057007Y-53605099D01*
X152150099Y-53512007D01*
X152215925Y-53397993D01*
X152232962Y-53334409D01*
X152865270Y-53966717D01*
X152865270Y-53966716D01*
X152904622Y-53912554D01*
X153001096Y-53723215D01*
X153019907Y-53665321D01*
X153019907Y-53665320D01*
X153066757Y-53521130D01*
X153066757Y-53521127D01*
X153100000Y-53311246D01*
X153100000Y-53098753D01*
X153066757Y-52888872D01*
X153066757Y-52888870D01*
X153066717Y-52888746D01*
X153066716Y-52888745D01*
X153066713Y-52888735D01*
X153056241Y-52856504D01*
X155630000Y-52856504D01*
X155630000Y-53255000D01*
X156330000Y-53255000D01*
X156330000Y-53755000D01*
X155630000Y-53755000D01*
X155630000Y-54153495D01*
X155668427Y-54346681D01*
X155668430Y-54346693D01*
X155743807Y-54528671D01*
X155743814Y-54528684D01*
X155853248Y-54692462D01*
X155853251Y-54692466D01*
X155992533Y-54831748D01*
X155992537Y-54831751D01*
X156156315Y-54941185D01*
X156156328Y-54941192D01*
X156338308Y-55016569D01*
X156380000Y-55024862D01*
X156380000Y-54221988D01*
X156389940Y-54239205D01*
X156445795Y-54295060D01*
X156514204Y-54334556D01*
X156590504Y-54355000D01*
X156669496Y-54355000D01*
X156745796Y-54334556D01*
X156814205Y-54295060D01*
X156870060Y-54239205D01*
X156880000Y-54221988D01*
X156880000Y-55024862D01*
X156921690Y-55016569D01*
X156921692Y-55016569D01*
X157103671Y-54941192D01*
X157103684Y-54941185D01*
X157267462Y-54831751D01*
X157267466Y-54831748D01*
X157406748Y-54692466D01*
X157406751Y-54692462D01*
X157516185Y-54528684D01*
X157516192Y-54528671D01*
X157591569Y-54346693D01*
X157591572Y-54346681D01*
X157629999Y-54153495D01*
X157630000Y-54153492D01*
X157630000Y-53755000D01*
X156930000Y-53755000D01*
X156930000Y-53255000D01*
X157468216Y-53255000D01*
X157535255Y-53274685D01*
X157575602Y-53316999D01*
X157599485Y-53358365D01*
X157706635Y-53465515D01*
X157837865Y-53541281D01*
X157984234Y-53580500D01*
X157984236Y-53580500D01*
X158135764Y-53580500D01*
X158135766Y-53580500D01*
X158282135Y-53541281D01*
X158413365Y-53465515D01*
X158520515Y-53358365D01*
X158596281Y-53227135D01*
X158635500Y-53080766D01*
X158635500Y-52929234D01*
X158596281Y-52782865D01*
X158520515Y-52651635D01*
X158413365Y-52544485D01*
X158331897Y-52497449D01*
X158282136Y-52468719D01*
X158208950Y-52449109D01*
X158135766Y-52429500D01*
X157984234Y-52429500D01*
X157837863Y-52468719D01*
X157748180Y-52520499D01*
X157706635Y-52544485D01*
X157706633Y-52544486D01*
X157699597Y-52548549D01*
X157698327Y-52546349D01*
X157644995Y-52566960D01*
X157576552Y-52552914D01*
X157526568Y-52504094D01*
X157520131Y-52490838D01*
X157516192Y-52481328D01*
X157516185Y-52481315D01*
X157406751Y-52317537D01*
X157406748Y-52317533D01*
X157267466Y-52178251D01*
X157267462Y-52178248D01*
X157103684Y-52068814D01*
X157103671Y-52068807D01*
X156921691Y-51993429D01*
X156921683Y-51993427D01*
X156880000Y-51985135D01*
X156880000Y-52788011D01*
X156870060Y-52770795D01*
X156814205Y-52714940D01*
X156745796Y-52675444D01*
X156669496Y-52655000D01*
X156590504Y-52655000D01*
X156514204Y-52675444D01*
X156445795Y-52714940D01*
X156389940Y-52770795D01*
X156380000Y-52788011D01*
X156380000Y-51985136D01*
X156379999Y-51985135D01*
X156338316Y-51993427D01*
X156338308Y-51993429D01*
X156156328Y-52068807D01*
X156156315Y-52068814D01*
X155992537Y-52178248D01*
X155992533Y-52178251D01*
X155853251Y-52317533D01*
X155853248Y-52317537D01*
X155743814Y-52481315D01*
X155743807Y-52481328D01*
X155668430Y-52663306D01*
X155668427Y-52663318D01*
X155630000Y-52856504D01*
X153056241Y-52856504D01*
X153001095Y-52686782D01*
X152904624Y-52497449D01*
X152865270Y-52443282D01*
X152865269Y-52443282D01*
X152232962Y-53075590D01*
X152215925Y-53012007D01*
X152150099Y-52897993D01*
X152057007Y-52804901D01*
X151942993Y-52739075D01*
X151879409Y-52722037D01*
X152511716Y-52089728D01*
X152457550Y-52050375D01*
X152268217Y-51953904D01*
X152239292Y-51944506D01*
X152181616Y-51905068D01*
X152154418Y-51840710D01*
X152166333Y-51771863D01*
X152213577Y-51720388D01*
X152221315Y-51716090D01*
X152352994Y-51648996D01*
X152499501Y-51542553D01*
X152627553Y-51414501D01*
X152733996Y-51267994D01*
X152816211Y-51106639D01*
X152872171Y-50934409D01*
X152886765Y-50842259D01*
X152900500Y-50755551D01*
X152900500Y-50574448D01*
X152884019Y-50470397D01*
X152872171Y-50395591D01*
X152816211Y-50223361D01*
X152816211Y-50223360D01*
X152787740Y-50167484D01*
X152733996Y-50062006D01*
X152701066Y-50016681D01*
X152627558Y-49915505D01*
X152627554Y-49915500D01*
X152499499Y-49787445D01*
X152499494Y-49787441D01*
X152352997Y-49681006D01*
X152352996Y-49681005D01*
X152352994Y-49681004D01*
X152260984Y-49634122D01*
X152260983Y-49634121D01*
X152191644Y-49598790D01*
X152191636Y-49598787D01*
X152019410Y-49542829D01*
X151887728Y-49521972D01*
X151824594Y-49492042D01*
X151787663Y-49432731D01*
X151788661Y-49362868D01*
X151827271Y-49304636D01*
X151891235Y-49276522D01*
X151907120Y-49275499D01*
X152644864Y-49275499D01*
X152644879Y-49275497D01*
X152644882Y-49275497D01*
X152669987Y-49272586D01*
X152669988Y-49272585D01*
X152669991Y-49272585D01*
X152772765Y-49227206D01*
X152852206Y-49147765D01*
X152897585Y-49044991D01*
X152900500Y-49019865D01*
X152900500Y-48826504D01*
X155630000Y-48826504D01*
X155630000Y-49075000D01*
X156330000Y-49075000D01*
X156330000Y-49575000D01*
X155630000Y-49575000D01*
X155630000Y-49823495D01*
X155668427Y-50016681D01*
X155668430Y-50016693D01*
X155743807Y-50198671D01*
X155743814Y-50198684D01*
X155853248Y-50362462D01*
X155853251Y-50362466D01*
X155992533Y-50501748D01*
X155992537Y-50501751D01*
X156156315Y-50611185D01*
X156156328Y-50611192D01*
X156338308Y-50686569D01*
X156380000Y-50694862D01*
X156380000Y-49891988D01*
X156389940Y-49909205D01*
X156445795Y-49965060D01*
X156514204Y-50004556D01*
X156590504Y-50025000D01*
X156669496Y-50025000D01*
X156745796Y-50004556D01*
X156814205Y-49965060D01*
X156870060Y-49909205D01*
X156880000Y-49891988D01*
X156880000Y-50694862D01*
X156921690Y-50686569D01*
X156921692Y-50686569D01*
X157103671Y-50611192D01*
X157103684Y-50611185D01*
X157267462Y-50501751D01*
X157267466Y-50501748D01*
X157406748Y-50362466D01*
X157406751Y-50362462D01*
X157516185Y-50198684D01*
X157516192Y-50198671D01*
X157591569Y-50016693D01*
X157591572Y-50016681D01*
X157629999Y-49823495D01*
X157630000Y-49823492D01*
X157630000Y-49575000D01*
X156930000Y-49575000D01*
X156930000Y-49075000D01*
X157630000Y-49075000D01*
X157630000Y-48826508D01*
X157629999Y-48826504D01*
X164270000Y-48826504D01*
X164270000Y-49075000D01*
X164970000Y-49075000D01*
X164970000Y-49575000D01*
X164270000Y-49575000D01*
X164270000Y-49823495D01*
X164308427Y-50016681D01*
X164308430Y-50016693D01*
X164383807Y-50198671D01*
X164383814Y-50198684D01*
X164493248Y-50362462D01*
X164493251Y-50362466D01*
X164632533Y-50501748D01*
X164632537Y-50501751D01*
X164796315Y-50611185D01*
X164796328Y-50611192D01*
X164978308Y-50686569D01*
X165020000Y-50694862D01*
X165020000Y-49891988D01*
X165029940Y-49909205D01*
X165085795Y-49965060D01*
X165154204Y-50004556D01*
X165230504Y-50025000D01*
X165309496Y-50025000D01*
X165385796Y-50004556D01*
X165454205Y-49965060D01*
X165510060Y-49909205D01*
X165520000Y-49891988D01*
X165520000Y-50694862D01*
X165561690Y-50686569D01*
X165561692Y-50686569D01*
X165743671Y-50611192D01*
X165743684Y-50611185D01*
X165907462Y-50501751D01*
X165907466Y-50501748D01*
X166046748Y-50362466D01*
X166046751Y-50362462D01*
X166156185Y-50198684D01*
X166156192Y-50198671D01*
X166231569Y-50016693D01*
X166231572Y-50016681D01*
X166269999Y-49823495D01*
X166270000Y-49823492D01*
X166270000Y-49575000D01*
X165570000Y-49575000D01*
X165570000Y-49075000D01*
X166270000Y-49075000D01*
X166270000Y-48826508D01*
X166269999Y-48826504D01*
X166231572Y-48633318D01*
X166231569Y-48633306D01*
X166156192Y-48451328D01*
X166156185Y-48451315D01*
X166046751Y-48287537D01*
X166046748Y-48287533D01*
X165907466Y-48148251D01*
X165907462Y-48148248D01*
X165743684Y-48038814D01*
X165743671Y-48038807D01*
X165561691Y-47963429D01*
X165561683Y-47963427D01*
X165520000Y-47955135D01*
X165520000Y-48758011D01*
X165510060Y-48740795D01*
X165454205Y-48684940D01*
X165385796Y-48645444D01*
X165309496Y-48625000D01*
X165230504Y-48625000D01*
X165154204Y-48645444D01*
X165085795Y-48684940D01*
X165029940Y-48740795D01*
X165020000Y-48758011D01*
X165020000Y-47955136D01*
X165019999Y-47955135D01*
X164978316Y-47963427D01*
X164978308Y-47963429D01*
X164796328Y-48038807D01*
X164796315Y-48038814D01*
X164632537Y-48148248D01*
X164632533Y-48148251D01*
X164493251Y-48287533D01*
X164493248Y-48287537D01*
X164383814Y-48451315D01*
X164383807Y-48451328D01*
X164308430Y-48633306D01*
X164308427Y-48633318D01*
X164270000Y-48826504D01*
X157629999Y-48826504D01*
X157591572Y-48633318D01*
X157591569Y-48633306D01*
X157516192Y-48451328D01*
X157516185Y-48451315D01*
X157406751Y-48287537D01*
X157406748Y-48287533D01*
X157267466Y-48148251D01*
X157267462Y-48148248D01*
X157103684Y-48038814D01*
X157103671Y-48038807D01*
X156921691Y-47963429D01*
X156921683Y-47963427D01*
X156880000Y-47955135D01*
X156880000Y-48758011D01*
X156870060Y-48740795D01*
X156814205Y-48684940D01*
X156745796Y-48645444D01*
X156669496Y-48625000D01*
X156590504Y-48625000D01*
X156514204Y-48645444D01*
X156445795Y-48684940D01*
X156389940Y-48740795D01*
X156380000Y-48758011D01*
X156380000Y-47955136D01*
X156379999Y-47955135D01*
X156338316Y-47963427D01*
X156338308Y-47963429D01*
X156156328Y-48038807D01*
X156156315Y-48038814D01*
X155992537Y-48148248D01*
X155992533Y-48148251D01*
X155853251Y-48287533D01*
X155853248Y-48287537D01*
X155743814Y-48451315D01*
X155743807Y-48451328D01*
X155668430Y-48633306D01*
X155668427Y-48633318D01*
X155630000Y-48826504D01*
X152900500Y-48826504D01*
X152900499Y-47374499D01*
X152920184Y-47307461D01*
X152972987Y-47261706D01*
X153024499Y-47250500D01*
X168275500Y-47250500D01*
X168342539Y-47270185D01*
G37*
%TD.AperFunction*%
%TA.AperFunction,Conductor*%
G36*
X170613181Y-79314627D02*
G01*
X170646666Y-79375950D01*
X170649500Y-79402308D01*
X170649500Y-80319349D01*
X170629815Y-80386388D01*
X170577011Y-80432143D01*
X170507853Y-80442087D01*
X170444297Y-80413062D01*
X170431206Y-80398800D01*
X170430725Y-80399212D01*
X170427554Y-80395500D01*
X170299499Y-80267445D01*
X170299494Y-80267441D01*
X170152995Y-80161004D01*
X170021314Y-80093908D01*
X169970519Y-80045934D01*
X169953724Y-79978113D01*
X169976262Y-79911978D01*
X170030977Y-79868527D01*
X170039295Y-79865492D01*
X170068217Y-79856095D01*
X170257554Y-79759622D01*
X170311716Y-79720270D01*
X170311717Y-79720270D01*
X169679408Y-79087962D01*
X169742993Y-79070925D01*
X169857007Y-79005099D01*
X169950099Y-78912007D01*
X170015925Y-78797993D01*
X170032962Y-78734408D01*
X170613181Y-79314627D01*
G37*
%TD.AperFunction*%
%TA.AperFunction,Conductor*%
G36*
X151284075Y-78797993D02*
G01*
X151349901Y-78912007D01*
X151442993Y-79005099D01*
X151557007Y-79070925D01*
X151620590Y-79087962D01*
X150988282Y-79720269D01*
X150988282Y-79720270D01*
X151042449Y-79759624D01*
X151231780Y-79856094D01*
X151260705Y-79865492D01*
X151318381Y-79904929D01*
X151345580Y-79969287D01*
X151333667Y-80038134D01*
X151286424Y-80089610D01*
X151278685Y-80093908D01*
X151147004Y-80161004D01*
X151000505Y-80267441D01*
X151000500Y-80267445D01*
X150872445Y-80395500D01*
X150869275Y-80399212D01*
X150867614Y-80397793D01*
X150819474Y-80434906D01*
X150749859Y-80440876D01*
X150688069Y-80408262D01*
X150653719Y-80347419D01*
X150650500Y-80319349D01*
X150650500Y-79402308D01*
X150670185Y-79335269D01*
X150686819Y-79314627D01*
X151267037Y-78734408D01*
X151284075Y-78797993D01*
G37*
%TD.AperFunction*%
%TA.AperFunction,Conductor*%
G36*
X150855703Y-76796937D02*
G01*
X150868788Y-76811203D01*
X150869275Y-76810788D01*
X150872445Y-76814499D01*
X151000500Y-76942554D01*
X151000505Y-76942558D01*
X151108353Y-77020913D01*
X151147006Y-77048996D01*
X151248780Y-77100853D01*
X151278684Y-77116090D01*
X151329480Y-77164065D01*
X151346275Y-77231886D01*
X151323737Y-77298021D01*
X151269022Y-77341472D01*
X151260708Y-77344506D01*
X151231781Y-77353905D01*
X151042439Y-77450380D01*
X150988282Y-77489727D01*
X150988282Y-77489728D01*
X151620591Y-78122037D01*
X151557007Y-78139075D01*
X151442993Y-78204901D01*
X151349901Y-78297993D01*
X151284075Y-78412007D01*
X151267037Y-78475591D01*
X150686819Y-77895373D01*
X150653334Y-77834050D01*
X150650500Y-77807692D01*
X150650500Y-76890650D01*
X150670185Y-76823611D01*
X150722989Y-76777856D01*
X150792147Y-76767912D01*
X150855703Y-76796937D01*
G37*
%TD.AperFunction*%
%TA.AperFunction,Conductor*%
G36*
X170611869Y-76801676D02*
G01*
X170646261Y-76862495D01*
X170649500Y-76890650D01*
X170649500Y-77807692D01*
X170629815Y-77874731D01*
X170613181Y-77895373D01*
X170032962Y-78475591D01*
X170015925Y-78412007D01*
X169950099Y-78297993D01*
X169857007Y-78204901D01*
X169742993Y-78139075D01*
X169679409Y-78122037D01*
X170311716Y-77489728D01*
X170257550Y-77450375D01*
X170068217Y-77353904D01*
X170039292Y-77344506D01*
X169981616Y-77305068D01*
X169954418Y-77240710D01*
X169966333Y-77171863D01*
X170013577Y-77120388D01*
X170021315Y-77116090D01*
X170152994Y-77048996D01*
X170299501Y-76942553D01*
X170427553Y-76814501D01*
X170427558Y-76814494D01*
X170430725Y-76810788D01*
X170432398Y-76812217D01*
X170480445Y-76775125D01*
X170550055Y-76769106D01*
X170611869Y-76801676D01*
G37*
%TD.AperFunction*%
%TA.AperFunction,Conductor*%
G36*
X170613181Y-66614627D02*
G01*
X170646666Y-66675950D01*
X170649500Y-66702308D01*
X170649500Y-67619349D01*
X170629815Y-67686388D01*
X170577011Y-67732143D01*
X170507853Y-67742087D01*
X170444297Y-67713062D01*
X170431206Y-67698800D01*
X170430725Y-67699212D01*
X170427554Y-67695500D01*
X170299499Y-67567445D01*
X170299494Y-67567441D01*
X170152995Y-67461004D01*
X170021314Y-67393908D01*
X169970519Y-67345934D01*
X169953724Y-67278113D01*
X169976262Y-67211978D01*
X170030977Y-67168527D01*
X170039295Y-67165492D01*
X170068217Y-67156095D01*
X170257554Y-67059622D01*
X170311716Y-67020270D01*
X170311717Y-67020270D01*
X169679408Y-66387962D01*
X169742993Y-66370925D01*
X169857007Y-66305099D01*
X169950099Y-66212007D01*
X170015925Y-66097993D01*
X170032962Y-66034408D01*
X170613181Y-66614627D01*
G37*
%TD.AperFunction*%
%TA.AperFunction,Conductor*%
G36*
X151284075Y-66097993D02*
G01*
X151349901Y-66212007D01*
X151442993Y-66305099D01*
X151557007Y-66370925D01*
X151620590Y-66387962D01*
X150988282Y-67020269D01*
X150988282Y-67020270D01*
X151042449Y-67059624D01*
X151231780Y-67156094D01*
X151260705Y-67165492D01*
X151318381Y-67204929D01*
X151345580Y-67269287D01*
X151333667Y-67338134D01*
X151286424Y-67389610D01*
X151278685Y-67393908D01*
X151147004Y-67461004D01*
X151000505Y-67567441D01*
X151000500Y-67567445D01*
X150872445Y-67695500D01*
X150869275Y-67699212D01*
X150867614Y-67697793D01*
X150819474Y-67734906D01*
X150749859Y-67740876D01*
X150688069Y-67708262D01*
X150653719Y-67647419D01*
X150650500Y-67619349D01*
X150650500Y-66702308D01*
X150670185Y-66635269D01*
X150686819Y-66614627D01*
X151267037Y-66034408D01*
X151284075Y-66097993D01*
G37*
%TD.AperFunction*%
%TA.AperFunction,Conductor*%
G36*
X150855703Y-64096937D02*
G01*
X150868788Y-64111203D01*
X150869275Y-64110788D01*
X150872445Y-64114499D01*
X151000500Y-64242554D01*
X151000505Y-64242558D01*
X151128287Y-64335396D01*
X151147006Y-64348996D01*
X151248780Y-64400853D01*
X151278684Y-64416090D01*
X151329480Y-64464065D01*
X151346275Y-64531886D01*
X151323737Y-64598021D01*
X151269022Y-64641472D01*
X151260708Y-64644506D01*
X151231781Y-64653905D01*
X151042439Y-64750380D01*
X150988282Y-64789727D01*
X150988282Y-64789728D01*
X151620591Y-65422037D01*
X151557007Y-65439075D01*
X151442993Y-65504901D01*
X151349901Y-65597993D01*
X151284075Y-65712007D01*
X151267037Y-65775591D01*
X150686819Y-65195373D01*
X150653334Y-65134050D01*
X150650500Y-65107692D01*
X150650500Y-64190650D01*
X150670185Y-64123611D01*
X150722989Y-64077856D01*
X150792147Y-64067912D01*
X150855703Y-64096937D01*
G37*
%TD.AperFunction*%
%TA.AperFunction,Conductor*%
G36*
X170611869Y-64101676D02*
G01*
X170646261Y-64162495D01*
X170649500Y-64190650D01*
X170649500Y-65107692D01*
X170629815Y-65174731D01*
X170613181Y-65195373D01*
X170032962Y-65775591D01*
X170015925Y-65712007D01*
X169950099Y-65597993D01*
X169857007Y-65504901D01*
X169742993Y-65439075D01*
X169679409Y-65422037D01*
X170311716Y-64789728D01*
X170257550Y-64750375D01*
X170068217Y-64653904D01*
X170039292Y-64644506D01*
X169981616Y-64605068D01*
X169954418Y-64540710D01*
X169966333Y-64471863D01*
X170013577Y-64420388D01*
X170021315Y-64416090D01*
X170152994Y-64348996D01*
X170299501Y-64242553D01*
X170427553Y-64114501D01*
X170427558Y-64114494D01*
X170430725Y-64110788D01*
X170432398Y-64112217D01*
X170480445Y-64075125D01*
X170550055Y-64069106D01*
X170611869Y-64101676D01*
G37*
%TD.AperFunction*%
%TA.AperFunction,Conductor*%
G36*
X170613181Y-53914627D02*
G01*
X170646666Y-53975950D01*
X170649500Y-54002308D01*
X170649500Y-54919349D01*
X170629815Y-54986388D01*
X170577011Y-55032143D01*
X170507853Y-55042087D01*
X170444297Y-55013062D01*
X170431206Y-54998800D01*
X170430725Y-54999212D01*
X170427554Y-54995500D01*
X170299499Y-54867445D01*
X170299494Y-54867441D01*
X170152995Y-54761004D01*
X170021314Y-54693908D01*
X169970519Y-54645934D01*
X169953724Y-54578113D01*
X169976262Y-54511978D01*
X170030977Y-54468527D01*
X170039295Y-54465492D01*
X170068217Y-54456095D01*
X170257554Y-54359622D01*
X170311716Y-54320270D01*
X170311717Y-54320270D01*
X169679408Y-53687962D01*
X169742993Y-53670925D01*
X169857007Y-53605099D01*
X169950099Y-53512007D01*
X170015925Y-53397993D01*
X170032962Y-53334408D01*
X170613181Y-53914627D01*
G37*
%TD.AperFunction*%
%TA.AperFunction,Conductor*%
G36*
X151284075Y-53397993D02*
G01*
X151349901Y-53512007D01*
X151442993Y-53605099D01*
X151557007Y-53670925D01*
X151620590Y-53687962D01*
X150988282Y-54320269D01*
X150988282Y-54320270D01*
X151042449Y-54359624D01*
X151231780Y-54456094D01*
X151260705Y-54465492D01*
X151318381Y-54504929D01*
X151345580Y-54569287D01*
X151333667Y-54638134D01*
X151286424Y-54689610D01*
X151278685Y-54693908D01*
X151147004Y-54761004D01*
X151000505Y-54867441D01*
X151000500Y-54867445D01*
X150872445Y-54995500D01*
X150869275Y-54999212D01*
X150867614Y-54997793D01*
X150819474Y-55034906D01*
X150749859Y-55040876D01*
X150688069Y-55008262D01*
X150653719Y-54947419D01*
X150650500Y-54919349D01*
X150650500Y-54002308D01*
X150670185Y-53935269D01*
X150686819Y-53914627D01*
X151267037Y-53334408D01*
X151284075Y-53397993D01*
G37*
%TD.AperFunction*%
%TA.AperFunction,Conductor*%
G36*
X150855703Y-51396937D02*
G01*
X150868788Y-51411203D01*
X150869275Y-51410788D01*
X150872445Y-51414499D01*
X151000500Y-51542554D01*
X151000505Y-51542558D01*
X151128287Y-51635396D01*
X151147006Y-51648996D01*
X151248780Y-51700853D01*
X151278684Y-51716090D01*
X151329480Y-51764065D01*
X151346275Y-51831886D01*
X151323737Y-51898021D01*
X151269022Y-51941472D01*
X151260708Y-51944506D01*
X151231781Y-51953905D01*
X151042439Y-52050380D01*
X150988282Y-52089727D01*
X150988282Y-52089728D01*
X151620591Y-52722037D01*
X151557007Y-52739075D01*
X151442993Y-52804901D01*
X151349901Y-52897993D01*
X151284075Y-53012007D01*
X151267037Y-53075591D01*
X150686819Y-52495373D01*
X150653334Y-52434050D01*
X150650500Y-52407692D01*
X150650500Y-51490650D01*
X150670185Y-51423611D01*
X150722989Y-51377856D01*
X150792147Y-51367912D01*
X150855703Y-51396937D01*
G37*
%TD.AperFunction*%
%TA.AperFunction,Conductor*%
G36*
X170611869Y-51401676D02*
G01*
X170646261Y-51462495D01*
X170649500Y-51490650D01*
X170649500Y-52407692D01*
X170629815Y-52474731D01*
X170613181Y-52495373D01*
X170032962Y-53075591D01*
X170015925Y-53012007D01*
X169950099Y-52897993D01*
X169857007Y-52804901D01*
X169742993Y-52739075D01*
X169679409Y-52722037D01*
X170311716Y-52089728D01*
X170257550Y-52050375D01*
X170068217Y-51953904D01*
X170039292Y-51944506D01*
X169981616Y-51905068D01*
X169954418Y-51840710D01*
X169966333Y-51771863D01*
X170013577Y-51720388D01*
X170021315Y-51716090D01*
X170152994Y-51648996D01*
X170299501Y-51542553D01*
X170427553Y-51414501D01*
X170427558Y-51414494D01*
X170430725Y-51410788D01*
X170432398Y-51412217D01*
X170480445Y-51375125D01*
X170550055Y-51369106D01*
X170611869Y-51401676D01*
G37*
%TD.AperFunction*%
%TD*%
M02*
