%TF.GenerationSoftware,KiCad,Pcbnew,10.0.4*%
%TF.CreationDate,2026-08-22T20:26:33+02:00*%
%TF.ProjectId,samot2040_devboard,73616d6f-7432-4303-9430-5f646576626f,rev?*%
%TF.SameCoordinates,Original*%
%TF.FileFunction,Legend,Bot*%
%TF.FilePolarity,Positive*%
%FSLAX46Y46*%
G04 Gerber Fmt 4.6, Leading zero omitted, Abs format (unit mm)*
G04 Created by KiCad (PCBNEW 10.0.4) date 2026-08-22 20:26:33*
%MOMM*%
%LPD*%
G01*
G04 APERTURE LIST*
%ADD10C,0.150000*%
%ADD11C,0.120000*%
G04 APERTURE END LIST*
D10*
X169883333Y-45199819D02*
X169883333Y-45914104D01*
X169883333Y-45914104D02*
X169930952Y-46056961D01*
X169930952Y-46056961D02*
X170026190Y-46152200D01*
X170026190Y-46152200D02*
X170169047Y-46199819D01*
X170169047Y-46199819D02*
X170264285Y-46199819D01*
X169502380Y-45199819D02*
X168883333Y-45199819D01*
X168883333Y-45199819D02*
X169216666Y-45580771D01*
X169216666Y-45580771D02*
X169073809Y-45580771D01*
X169073809Y-45580771D02*
X168978571Y-45628390D01*
X168978571Y-45628390D02*
X168930952Y-45676009D01*
X168930952Y-45676009D02*
X168883333Y-45771247D01*
X168883333Y-45771247D02*
X168883333Y-46009342D01*
X168883333Y-46009342D02*
X168930952Y-46104580D01*
X168930952Y-46104580D02*
X168978571Y-46152200D01*
X168978571Y-46152200D02*
X169073809Y-46199819D01*
X169073809Y-46199819D02*
X169359523Y-46199819D01*
X169359523Y-46199819D02*
X169454761Y-46152200D01*
X169454761Y-46152200D02*
X169502380Y-46104580D01*
X152083333Y-45199819D02*
X152083333Y-45914104D01*
X152083333Y-45914104D02*
X152130952Y-46056961D01*
X152130952Y-46056961D02*
X152226190Y-46152200D01*
X152226190Y-46152200D02*
X152369047Y-46199819D01*
X152369047Y-46199819D02*
X152464285Y-46199819D01*
X151654761Y-45295057D02*
X151607142Y-45247438D01*
X151607142Y-45247438D02*
X151511904Y-45199819D01*
X151511904Y-45199819D02*
X151273809Y-45199819D01*
X151273809Y-45199819D02*
X151178571Y-45247438D01*
X151178571Y-45247438D02*
X151130952Y-45295057D01*
X151130952Y-45295057D02*
X151083333Y-45390295D01*
X151083333Y-45390295D02*
X151083333Y-45485533D01*
X151083333Y-45485533D02*
X151130952Y-45628390D01*
X151130952Y-45628390D02*
X151702380Y-46199819D01*
X151702380Y-46199819D02*
X151083333Y-46199819D01*
%TO.C,J3*%
D11*
X168170000Y-49395000D02*
X168170000Y-97765000D01*
X170930000Y-46745000D02*
X169550000Y-46745000D01*
X170930000Y-48125000D02*
X170930000Y-46745000D01*
X170930000Y-49395000D02*
X168170000Y-49395000D01*
X170930000Y-49395000D02*
X170930000Y-97765000D01*
X170930000Y-97765000D02*
X168170000Y-97765000D01*
%TO.C,J2*%
X150370000Y-49395000D02*
X150370000Y-97765000D01*
X153130000Y-46745000D02*
X151750000Y-46745000D01*
X153130000Y-48125000D02*
X153130000Y-46745000D01*
X153130000Y-49395000D02*
X150370000Y-49395000D01*
X153130000Y-49395000D02*
X153130000Y-97765000D01*
X153130000Y-97765000D02*
X150370000Y-97765000D01*
%TD*%
M02*
