%TF.GenerationSoftware,KiCad,Pcbnew,10.0.5-10.0.5~ubuntu24.04.1*%
%TF.CreationDate,2026-08-26T19:31:52+02:00*%
%TF.ProjectId,samot2040_devboard,73616d6f-7432-4303-9430-5f646576626f,rev?*%
%TF.SameCoordinates,Original*%
%TF.FileFunction,Soldermask,Bot*%
%TF.FilePolarity,Negative*%
%FSLAX46Y46*%
G04 Gerber Fmt 4.6, Leading zero omitted, Abs format (unit mm)*
G04 Created by KiCad (PCBNEW 10.0.5-10.0.5~ubuntu24.04.1) date 2026-08-26 19:31:52*
%MOMM*%
%LPD*%
G01*
G04 APERTURE LIST*
%ADD10C,0.650000*%
%ADD11O,1.000000X2.100000*%
%ADD12O,1.000000X1.800000*%
%ADD13C,0.800000*%
%ADD14R,1.700000X1.700000*%
%ADD15C,1.700000*%
G04 APERTURE END LIST*
D10*
%TO.C,J1*%
X163840000Y-53005000D03*
X158060000Y-53005000D03*
D11*
X165270000Y-53505000D03*
D12*
X165270000Y-49325000D03*
D11*
X156630000Y-53505000D03*
D12*
X156630000Y-49325000D03*
%TD*%
D13*
%TO.C,SW2*%
X164550000Y-91000000D03*
%TD*%
%TO.C,SW1*%
X156950000Y-91000000D03*
%TD*%
D14*
%TO.C,J3*%
X169550000Y-48125000D03*
D15*
X169550000Y-50665000D03*
X169550000Y-53205000D03*
X169550000Y-55745000D03*
X169550000Y-58285000D03*
X169550000Y-60825000D03*
X169550000Y-63365000D03*
X169550000Y-65905000D03*
X169550000Y-68445000D03*
X169550000Y-70985000D03*
X169550000Y-73525000D03*
X169550000Y-76065000D03*
X169550000Y-78605000D03*
X169550000Y-81145000D03*
X169550000Y-83685000D03*
X169550000Y-86225000D03*
X169550000Y-88765000D03*
X169550000Y-91305000D03*
X169550000Y-93845000D03*
X169550000Y-96385000D03*
%TD*%
D14*
%TO.C,J2*%
X151750000Y-48125000D03*
D15*
X151750000Y-50665000D03*
X151750000Y-53205000D03*
X151750000Y-55745000D03*
X151750000Y-58285000D03*
X151750000Y-60825000D03*
X151750000Y-63365000D03*
X151750000Y-65905000D03*
X151750000Y-68445000D03*
X151750000Y-70985000D03*
X151750000Y-73525000D03*
X151750000Y-76065000D03*
X151750000Y-78605000D03*
X151750000Y-81145000D03*
X151750000Y-83685000D03*
X151750000Y-86225000D03*
X151750000Y-88765000D03*
X151750000Y-91305000D03*
X151750000Y-93845000D03*
X151750000Y-96385000D03*
%TD*%
M02*
